<?xml version="1.0" standalone="no"?>
<!DOCTYPE svg PUBLIC "-//W3C//DTD SVG 1.1//EN" "http://www.w3.org/Graphics/SVG/1.1/DTD/svg11.dtd" >
<svg xmlns="http://www.w3.org/2000/svg" xmlns:xlink="http://www.w3.org/1999/xlink" version="1.1">
<metadata>
Created by FontForge 20170731 at Tue Nov 30 21:39:34 2021
 By Aleksey,,,
Copyright 2021 The M+ FONTS Project Authors (https://github.com/coz-m/MPLUS_FONTS)
</metadata>
<defs>
<font id="MPLUSCodeLatin-Regular" horiz-adv-x="500" vert-adv-y="1000" >
  <font-face 
    font-family="M PLUS Code Latin"
    font-weight="400"
    font-stretch="normal"
    units-per-em="1000"
    panose-1="2 0 0 9 0 0 0 0 0 0"
    ascent="800"
    descent="-200"
    x-height="520"
    cap-height="730"
    bbox="-30 -270 575 1213"
    underline-thickness="50"
    underline-position="-175"
    unicode-range="U+0020-2265"
  />
<missing-glyph 
d="M50 -140v1000h400v-1000h-400zM100 -90h300v900h-300v-900z" />
    <glyph glyph-name=".notdef" 
d="M50 -140v1000h400v-1000h-400zM100 -90h300v900h-300v-900z" />
    <glyph glyph-name=".null" horiz-adv-x="0" vert-adv-y="0" 
 />
    <glyph glyph-name="nonmarkingreturn" horiz-adv-x="333" 
 />
    <glyph glyph-name="space" unicode=" " 
 />
    <glyph glyph-name="exclam" unicode="!" 
d="M210 220l-10 510h100l-10 -510h-80zM250 -10q-32 0 -51.5 18.5t-19.5 49.5q0 32 19.5 50t51.5 18t51.5 -18t19.5 -50q0 -31 -19.5 -49.5t-51.5 -18.5z" />
    <glyph glyph-name="quotedbl" unicode="&#x22;" 
d="M142 470l-9 300h86l-9 -300h-68zM290 470l-9 300h86l-9 -300h-68z" />
    <glyph glyph-name="numbersign" unicode="#" 
d="M74 0l23 180h-62v70h71l33 251h-66v70h75l21 159h78l-21 -159h102l21 159h78l-21 -159h59v-70h-68l-33 -251h64v-70h-73l-23 -180h-78l23 180h-102l-23 -180h-78zM180 215l-31 35h173l-40 -35l41 321l31 -35h-173l40 35z" />
    <glyph glyph-name="dollar" unicode="$" 
d="M215 -105v480h70v-480h-70zM215 375v460h70v-460h-70zM224 -10q-39 0 -77.5 6.5t-76.5 19.5v77q37 -15 73 -23t74 -8q68 0 105.5 28t37.5 89q0 32 -12.5 57.5t-42 49.5t-82.5 53q-65 37 -102.5 69t-53 68.5t-15.5 83.5q0 93 54.5 136.5t171.5 43.5q35 0 70.5 -4t74.5 -13
v-213h-80v182l32 -36q-27 6 -50.5 9t-48.5 3q-72 0 -107 -26.5t-35 -82.5q0 -31 12.5 -56.5t43 -50t82.5 -53.5q64 -36 101 -68.5t53 -69t16 -84.5q0 -94 -54.5 -140.5t-163.5 -46.5z" />
    <glyph glyph-name="percent" unicode="%" 
d="M158 410q-68 0 -105.5 40t-37.5 112v26q0 72 37.5 112t105.5 40t105.5 -40t37.5 -112v-26q0 -72 -37.5 -112t-105.5 -40zM158 473q35 0 50.5 22t15.5 71v18q0 49 -15.5 71t-50.5 22q-34 0 -50 -22t-16 -71v-18q0 -49 16 -71t50 -22zM342 -10q-68 0 -105.5 40t-37.5 112
v26q0 72 37.5 112t105.5 40t105.5 -40t37.5 -112v-26q0 -72 -37.5 -112t-105.5 -40zM342 53q35 0 50.5 22t15.5 71v18q0 49 -15.5 71t-50.5 22q-34 0 -50 -22t-16 -71v-18q0 -49 16 -71t50 -22zM40 217v76l420 220v-76z" />
    <glyph glyph-name="ampersand" unicode="&#x26;" 
d="M272 -10q-251 0 -251 187q0 33 9 61t30.5 56.5t58.5 62t93 75.5q43 35 66.5 59t32.5 44t9 42q0 44 -25.5 67.5t-72.5 23.5q-46 0 -72 -23.5t-26 -67.5q0 -22 9 -45.5t31 -52.5t61 -70l221 -229l-50 -54l-246 251q-52 54 -79 105.5t-27 102.5q0 71 48.5 113t129.5 42
t129.5 -42t48.5 -113q0 -34 -14 -66t-45 -66t-82 -75q-48 -35 -78.5 -61.5t-47.5 -48t-23.5 -42t-6.5 -44.5q0 -62 39.5 -91t123.5 -29q37 0 67.5 5.5t63.5 16.5l-24 -45v374h78v-397q-52 -13 -93 -19.5t-86 -6.5z" />
    <glyph glyph-name="quotesingle" unicode="'" 
d="M215 470l-10 300h90l-10 -300h-70z" />
    <glyph glyph-name="parenleft" unicode="(" 
d="M311 -110q-70 94 -105.5 205t-35.5 235q0 125 35.5 235.5t105.5 204.5h79q-70 -99 -104 -206.5t-34 -233.5t34 -233.5t104 -206.5h-79z" />
    <glyph glyph-name="parenright" unicode=")" 
d="M189 -110h-79q71 99 104.5 206.5t33.5 233.5t-33.5 233.5t-104.5 206.5h79q70 -94 105.5 -204.5t35.5 -235.5q0 -124 -35.5 -235t-105.5 -205z" />
    <glyph glyph-name="asterisk" unicode="*" 
d="M149 339l-57 40l104 141l-166 51l21 66l166 -54l-2 173h70l-2 -173l166 54l21 -66l-166 -51l104 -141l-57 -40l-101 142z" />
    <glyph glyph-name="plus" unicode="+" 
d="M210 0v254h-185v72h185v254h80v-254h185v-72h-185v-254h-80z" />
    <glyph glyph-name="comma" unicode="," 
d="M141 -170l92 312h94l-112 -312h-74z" />
    <glyph glyph-name="hyphen" unicode="-" 
d="M105 254v72h290v-72h-290z" />
    <glyph glyph-name="period" unicode="." 
d="M250 -10q-35 0 -56.5 21t-21.5 55q0 35 21.5 55.5t56.5 20.5t56.5 -20.5t21.5 -55.5q0 -34 -21.5 -55t-56.5 -21z" />
    <glyph glyph-name="slash" unicode="/" 
d="M33 -40l351 810h83l-351 -810h-83z" />
    <glyph glyph-name="zero" unicode="0" 
d="M250 316q-32 0 -51 19t-19 50q0 32 19 50.5t51 18.5t51 -18.5t19 -50.5q0 -31 -19 -50t-51 -19zM250 -10q-77 0 -123 33.5t-66.5 109.5t-20.5 202v60q0 127 20.5 202.5t66.5 109t123 33.5t123 -33.5t66.5 -109t20.5 -202.5v-60q0 -126 -20.5 -202t-66.5 -109.5
t-123 -33.5zM250 62q50 0 77.5 24.5t39 85t11.5 168.5v50q0 108 -11.5 168.5t-39 85t-77.5 24.5q-49 0 -77 -24.5t-39.5 -85t-11.5 -168.5v-50q0 -108 11.5 -168.5t39.5 -85t77 -24.5z" />
    <glyph glyph-name="one" unicode="1" 
d="M274 0v633h-3l-235 -190v95l238 192h82v-730h-82z" />
    <glyph glyph-name="two" unicode="2" 
d="M65 70q78 90 132 158.5t86.5 122t47 98t14.5 86.5q0 68 -30 100.5t-93 32.5q-38 0 -76 -9t-81 -29v75q77 35 173 35q98 0 144.5 -48t46.5 -149q0 -47 -14 -97t-44.5 -106t-79.5 -121.5t-118 -144.5v-4h262v-70h-370v70z" />
    <glyph glyph-name="three" unicode="3" 
d="M216 -10q-34 0 -76 6t-80 19v76q36 -15 71.5 -23t70.5 -8q156 0 156 154q0 77 -41.5 111.5t-132.5 34.5h-58v70l201 226v4h-267v70h368v-70l-206 -231v-4h21q95 0 146 -54.5t51 -156.5q0 -109 -57.5 -166.5t-166.5 -57.5z" />
    <glyph glyph-name="four" unicode="4" 
d="M313 0v145h-298v70l298 515h82v-515h90v-70h-90v-145h-82zM107 213h206v353h-4l-202 -349v-4z" />
    <glyph glyph-name="five" unicode="5" 
d="M229 -10q-37 0 -77 6.5t-78 18.5v76q24 -10 46.5 -17t45.5 -10.5t49 -3.5q83 0 120 39.5t37 127.5q0 80 -29.5 120t-86.5 40q-30 0 -60.5 -12.5t-51.5 -34.5h-70v390h363v-70h-283v-232h4q26 14 56 22t61 8q86 0 132.5 -59.5t46.5 -171.5q0 -121 -56 -179t-169 -58z" />
    <glyph glyph-name="six" unicode="6" 
d="M250 -10q-75 0 -122.5 28.5t-70 89t-22.5 155.5q0 154 37.5 257t114.5 158t194 62v-72q-63 -4 -113.5 -30.5t-83.5 -73t-46 -109.5h4q23 17 54.5 25.5t70.5 8.5q102 0 150 -59t48 -185q0 -131 -51.5 -193t-163.5 -62zM250 60q68 0 100.5 45t32.5 136q0 92 -32.5 136.5
t-98.5 44.5q-67 0 -101 -45.5t-34 -136.5t33 -135.5t100 -44.5z" />
    <glyph glyph-name="seven" unicode="7" 
d="M136 0q41 178 98.5 343t128.5 311v4h-313v72h400v-72q-48 -97 -88.5 -200.5t-75 -217t-64.5 -240.5h-86z" />
    <glyph glyph-name="eight" unicode="8" 
d="M250 -10q-104 0 -164.5 55t-60.5 149q0 133 137 187v4q-59 28 -92.5 75.5t-33.5 106.5q0 79 58 126t156 47t156 -47t58 -126q0 -58 -33 -105.5t-93 -74.5v-4q68 -26 102.5 -73t34.5 -116q0 -94 -60.5 -149t-164.5 -55zM250 60q66 0 104.5 36.5t38.5 99.5q0 56 -35 92.5
t-112 56.5q-139 -33 -139 -149q0 -63 38.5 -99.5t104.5 -36.5zM251 422q62 14 97 50.5t35 85.5q0 52 -35.5 82t-97.5 30q-61 0 -97 -30t-36 -82q0 -49 34.5 -84t99.5 -52z" />
    <glyph glyph-name="nine" unicode="9" 
d="M250 740q76 0 123 -28.5t69.5 -88.5t22.5 -156q0 -153 -37.5 -256.5t-114.5 -158t-194 -62.5v72q64 4 114 30.5t83 73t46 109.5h-4q-23 -17 -54.5 -25.5t-70.5 -8.5q-102 0 -150 59t-48 185q0 131 51.5 193t163.5 62zM250 670q-67 0 -100 -44.5t-33 -136.5
q0 -91 32.5 -136t98.5 -45q68 0 101.5 45.5t33.5 136.5q0 92 -32.5 136t-100.5 44z" />
    <glyph glyph-name="colon" unicode=":" 
d="M250 378q-35 0 -56.5 21t-21.5 55q0 35 21.5 55.5t56.5 20.5t56.5 -20.5t21.5 -55.5q0 -34 -21.5 -55t-56.5 -21zM250 -10q-35 0 -56.5 21t-21.5 55q0 35 21.5 55.5t56.5 20.5t56.5 -20.5t21.5 -55.5q0 -34 -21.5 -55t-56.5 -21z" />
    <glyph glyph-name="semicolon" unicode=";" 
d="M121 -170l92 312h94l-112 -312h-74zM253 378q-35 0 -56.5 21t-21.5 55q0 35 21.5 55.5t56.5 20.5t56.5 -20.5t21.5 -55.5q0 -34 -21.5 -55t-56.5 -21z" />
    <glyph glyph-name="less" unicode="&#x3c;" 
d="M428 16l-380 228v92l380 228v-80l-318 -191v-6l318 -191v-80z" />
    <glyph glyph-name="equal" unicode="=" 
d="M60 368v72h380v-72h-380zM60 140v72h380v-72h-380z" />
    <glyph glyph-name="greater" unicode="&#x3e;" 
d="M72 16v80l318 191v6l-318 191v80l380 -228v-92z" />
    <glyph glyph-name="question" unicode="?" 
d="M182 220q0 39 8.5 73.5t30.5 68t64 68.5q37 31 57.5 54t29 43.5t8.5 43.5q0 50 -36 73.5t-115 23.5q-52 0 -97.5 -10t-95.5 -31v75q47 19 102 28.5t110 9.5q110 0 164 -39.5t54 -121.5q0 -34 -10.5 -63.5t-35.5 -59.5t-68 -68q-35 -29 -53.5 -56.5t-25.5 -54.5t-7 -57
h-84zM224 -10q-32 0 -51.5 18.5t-19.5 49.5q0 32 19.5 50t51.5 18t51.5 -18t19.5 -50q0 -31 -19.5 -49.5t-51.5 -18.5z" />
    <glyph glyph-name="at" unicode="@" 
d="M275 -114q-125 0 -185 91.5t-60 282.5t60.5 282.5t187.5 91.5q92 0 137 -49.5t45 -150.5v-326q-18 -19 -43.5 -33.5t-54 -22.5t-56.5 -8q-68 0 -99.5 52t-31.5 162q0 109 30.5 161.5t94.5 52.5q23 0 42 -7t35 -23h4v11q0 56 -27 82.5t-81 26.5q-86 0 -125.5 -71.5
t-39.5 -230.5q0 -109 18 -175.5t58 -96.5t104 -30q34 0 66 8t64 24v-77q-32 -13 -69 -20t-74 -7zM317 114q17 0 34.5 7t28.5 18v230q-7 15 -25 24t-38 9q-34 0 -48.5 -32.5t-14.5 -111.5t14.5 -111.5t48.5 -32.5z" />
    <glyph glyph-name="A" unicode="A" 
d="M20 0l181 730h98l181 -730h-82l-146 636h-4l-146 -636h-82zM112 200v70h276v-70h-276z" />
    <glyph glyph-name="B" unicode="B" 
d="M212 -10q-25 0 -63.5 2.5t-83.5 9.5v726q46 7 83.5 9.5t63.5 2.5q118 0 176 -46t58 -139q0 -61 -25 -102t-74 -60v-4q60 -17 89 -61t29 -118q0 -109 -63.5 -164.5t-189.5 -55.5zM125 75q26 -7 49 -10t47 -3q83 0 122.5 36.5t39.5 111.5t-39.5 108.5t-125.5 33.5h-113v68
h105q79 0 117 31.5t38 96.5q0 62 -35 91t-109 29q-24 0 -48 -3t-48 -10l20 32v-644z" />
    <glyph glyph-name="C" unicode="C" 
d="M310 -10q-130 0 -196.5 87t-66.5 258v60q0 171 64 258t189 87q35 0 68 -6.5t59 -19.5v-244h-80v232l40 -62q-38 28 -89 28q-83 0 -126 -70t-43 -208v-50q0 -143 46.5 -210.5t142.5 -67.5q27 0 56 5t53 13v-75q-25 -7 -56.5 -11t-60.5 -4z" />
    <glyph glyph-name="D" unicode="D" 
d="M190 -10q-55 0 -129 12v726q74 12 129 12q96 0 155.5 -35t87.5 -111t28 -199v-60q0 -122 -28 -198.5t-87.5 -111.5t-155.5 -35zM126 74q17 -6 36 -9t40 -3q63 0 102.5 28.5t57.5 89.5t18 160v50q0 99 -18 160t-57.5 89.5t-102.5 28.5q-21 0 -40 -3t-36 -9l15 27v-636z
" />
    <glyph glyph-name="E" unicode="E" 
d="M81 0v730h350v-70h-269v-239h259v-70h-259v-281h269v-70h-350z" />
    <glyph glyph-name="F" unicode="F" 
d="M87 0v730h360v-70h-278v-249h268v-70h-268v-341h-82z" />
    <glyph glyph-name="G" unicode="G" 
d="M302 -10q-265 0 -265 345v60q0 174 67.5 259.5t204.5 85.5q29 0 60 -3.5t59 -9.5v-74q-28 7 -57.5 11t-56.5 4q-102 0 -148.5 -66t-46.5 -212v-50q0 -139 44.5 -208.5t133.5 -69.5q23 0 49.5 5t51.5 15l-31 -38v308h-150v68h230v-410q-32 -10 -72 -15t-73 -5z" />
    <glyph glyph-name="H" unicode="H" 
d="M55 0v730h80v-308h230v308h80v-730h-80v350h-230v-350h-80z" />
    <glyph glyph-name="I" unicode="I" 
d="M75 0v70h134v590h-134v70h350v-70h-134v-590h134v-70h-350z" />
    <glyph glyph-name="J" unicode="J" 
d="M192 -10q-43 0 -79 7.5t-68 21.5v75q31 -15 65.5 -23.5t71.5 -8.5q70 0 100.5 33t30.5 107v458h-228v70h310v-535q0 -107 -48 -156t-155 -49z" />
    <glyph glyph-name="K" unicode="K" 
d="M75 0v730h80v-316h4l225 316h91l-245 -344l245 -386h-90l-226 358h-4v-358h-80z" />
    <glyph glyph-name="L" unicode="L" 
d="M80 0v730h82v-658h288v-72h-370z" />
    <glyph glyph-name="M" unicode="M" 
d="M40 0v730h136l72 -501h4l72 501h136v-730h-78v626h-4l-73 -486h-110l-73 486h-4v-626h-78z" />
    <glyph glyph-name="N" unicode="N" 
d="M55 0v730h130l176 -630h4v630h80v-730h-130l-176 630h-4v-630h-80z" />
    <glyph glyph-name="O" unicode="O" 
d="M250 -10q-77 0 -123 33.5t-66.5 109.5t-20.5 202v60q0 127 20.5 202.5t66.5 109t123 33.5t123 -33.5t66.5 -109t20.5 -202.5v-60q0 -126 -20.5 -202t-66.5 -109.5t-123 -33.5zM250 62q50 0 77.5 24.5t39 85t11.5 168.5v50q0 108 -11.5 168.5t-39 85t-77.5 24.5
q-49 0 -77 -24.5t-39.5 -85t-11.5 -168.5v-50q0 -108 11.5 -168.5t39.5 -85t77 -24.5z" />
    <glyph glyph-name="P" unicode="P" 
d="M75 728q44 7 77.5 9.5t61.5 2.5q91 0 146 -24.5t80 -78t25 -142.5q0 -88 -25 -142t-80 -78.5t-146 -24.5q-28 0 -53 2t-53 6l26 72q24 -4 44 -6t43 -2q60 0 95.5 17t51.5 55t16 101q0 64 -16 101.5t-51.5 54.5t-95.5 17q-23 0 -45 -2t-45 -6l26 28v-688h-82v728z" />
    <glyph glyph-name="Q" unicode="Q" 
d="M398 -150q0 49 -15.5 80t-48 45.5t-84.5 14.5q-77 0 -123 33.5t-66.5 109.5t-20.5 202v60q0 127 20.5 202.5t66.5 109t123 33.5t123 -33.5t66.5 -109t20.5 -202.5v-60q0 -130 -21 -202.5t-68 -104.5v-4q53 -19 81 -63.5t28 -110.5h-82zM250 62q49 0 77 24.5t39.5 85
t11.5 168.5v50q0 108 -11.5 168.5t-39.5 85t-77 24.5t-77 -24.5t-39.5 -85t-11.5 -168.5v-50q0 -108 11.5 -168.5t39.5 -85t77 -24.5z" />
    <glyph glyph-name="R" unicode="R" 
d="M70 728q44 7 76.5 9.5t62.5 2.5q91 0 146 -22.5t80 -72t25 -130.5t-25 -130.5t-80 -72t-146 -22.5q-27 0 -52.5 2t-53.5 6l26 70q26 -4 47 -6t40 -2q60 0 95.5 15t51.5 49t16 90q0 57 -16 90.5t-51.5 48.5t-95.5 15q-20 0 -41.5 -1.5t-48.5 -6.5l24 28v-688h-80v728z
M376 0l-250 328h92l252 -328h-94z" />
    <glyph glyph-name="S" unicode="S" 
d="M224 -10q-39 0 -77.5 6.5t-76.5 19.5v77q37 -15 73 -23t74 -8q68 0 105.5 28t37.5 89q0 32 -12.5 57.5t-42 49.5t-82.5 53q-65 37 -102.5 69t-53 68.5t-15.5 83.5q0 93 54.5 136.5t171.5 43.5q35 0 70.5 -4t74.5 -13v-213h-80v182l32 -36q-27 6 -50.5 9t-48.5 3
q-72 0 -107 -26.5t-35 -82.5q0 -31 12.5 -56.5t43 -50t82.5 -53.5q64 -36 101 -68.5t53 -69t16 -84.5q0 -94 -54.5 -140.5t-163.5 -46.5z" />
    <glyph glyph-name="T" unicode="T" 
d="M209 0v658h-169v72h420v-72h-169v-658h-82z" />
    <glyph glyph-name="U" unicode="U" 
d="M250 -10q-100 0 -147.5 49.5t-47.5 155.5v535h80v-527q0 -75 27 -108t88 -33q62 0 88.5 33t26.5 108v527h80v-535q0 -106 -47 -155.5t-148 -49.5z" />
    <glyph glyph-name="V" unicode="V" 
d="M201 0l-181 730h82l146 -626h4l146 626h82l-181 -730h-98z" />
    <glyph glyph-name="W" unicode="W" 
d="M75 0l-65 730h82l40 -627h4l52 527h124l52 -527h4l40 627h82l-65 -730h-116l-57 538h-4l-57 -538h-116z" />
    <glyph glyph-name="X" unicode="X" 
d="M40 0l153 367l-153 363h85l123 -306h4l123 306h85l-153 -363l153 -367h-86l-122 310h-4l-122 -310h-86z" />
    <glyph glyph-name="Y" unicode="Y" 
d="M209 0v285l-194 445h83l150 -359h4l150 359h83l-194 -445v-285h-82z" />
    <glyph glyph-name="Z" unicode="Z" 
d="M70 0v70l270 586v4h-270v70h360v-70l-270 -586v-4h270v-70h-360z" />
    <glyph glyph-name="bracketleft" unicode="[" 
d="M130 -110v880h270v-70h-194v-740h194v-70h-270z" />
    <glyph glyph-name="backslash" unicode="\" 
d="M467 -40h-83l-351 810h83z" />
    <glyph glyph-name="bracketright" unicode="]" 
d="M370 -110h-270v70h194v740h-194v70h270v-880z" />
    <glyph glyph-name="asciicircum" unicode="^" 
d="M25 280l177 450h96l177 -450h-85l-138 371h-4l-138 -371h-85z" />
    <glyph glyph-name="underscore" unicode="_" 
d="M0 -147v64h500v-64h-500z" />
    <glyph glyph-name="grave" unicode="`" 
d="M207 570l-122 220h100l102 -220h-80z" />
    <glyph glyph-name="a" unicode="a" 
d="M261 -10q-100 0 -157 45.5t-57 124.5q0 83 63.5 125t187.5 42h90v-65h-89q-87 0 -129.5 -25t-42.5 -76q0 -48 35 -76t96 -28q32 0 62.5 8t51.5 21l-22 -46v298q0 51 -8 78t-31.5 36.5t-68.5 9.5q-29 0 -56 -3t-54 -9.5t-57 -17.5v69q35 14 80.5 21.5t94.5 7.5
q68 0 107 -17t55 -58.5t16 -114.5v-318q-31 -15 -77 -23.5t-90 -8.5z" />
    <glyph glyph-name="b" unicode="b" 
d="M236 -10q-49 0 -91 9t-73 23v708h78v-684l-18 43q23 -14 51.5 -21.5t60.5 -7.5q49 0 77.5 19.5t40.5 65.5t12 124q0 73 -10.5 114.5t-35 59t-68.5 17.5q-32 0 -62 -8t-62 -25l-25 66q33 19 72.5 28t82.5 9q69 0 109.5 -25t58.5 -82t18 -153q0 -101 -21.5 -163
t-68.5 -89.5t-126 -27.5z" />
    <glyph glyph-name="c" unicode="c" 
d="M292 -10q-231 0 -231 250v40q0 250 232 250q65 0 118 -16v-209h-78v197l38 -57q-22 8 -44 11.5t-44 3.5q-74 0 -108 -44t-34 -141v-30q0 -67 15.5 -108t50.5 -59t93 -18q28 0 55 4t56 13v-71q-27 -7 -57 -11.5t-62 -4.5z" />
    <glyph glyph-name="d" unicode="d" vert-adv-y="1235" 
d="M264 -10q-78 0 -125.5 27.5t-69 89.5t-21.5 163q0 96 18 153t59 82t109 25q43 0 82.5 -9t72.5 -28l-25 -66q-31 17 -61.5 25t-62.5 8q-43 0 -68 -17.5t-35.5 -59t-10.5 -114.5q0 -78 12 -124t40.5 -65.5t77.5 -19.5q32 0 60.5 7.5t51.5 21.5l-18 -43v684h78v-708
q-31 -14 -73 -23t-91 -9z" />
    <glyph glyph-name="e" unicode="e" 
d="M286 -10q-117 0 -174 61.5t-57 188.5v40q0 129 47.5 189.5t147.5 60.5q101 0 148 -60.5t47 -189.5v-54h-351v65h291l-18 -23v9q0 98 -27.5 141.5t-89.5 43.5t-89.5 -43.5t-27.5 -141.5v-34q0 -69 15 -109.5t50 -58t94 -17.5q29 0 59.5 4t65.5 13v-69q-30 -7 -64.5 -11.5
t-66.5 -4.5z" />
    <glyph glyph-name="f" unicode="f" 
d="M186 0v430h-151v70h151v97q0 87 42 130t127 43q26 0 54 -4t56 -12v-71q-28 10 -53 13.5t-45 3.5q-53 0 -77 -24.5t-24 -81.5v-94h199v-70h-199v-430h-80z" />
    <glyph glyph-name="g" unicode="g" 
d="M83 -150q137 0 202 45.5t65 142.5v442l20 -45q-29 14 -57 19.5t-59 5.5q-49 0 -77 -16t-39.5 -54.5t-11.5 -106.5q0 -74 12 -116.5t41 -60t80 -17.5q30 0 56.5 5.5t56.5 15.5l21 -70q-27 -9 -58 -14.5t-71 -5.5q-79 0 -126.5 26t-68.5 84t-21 154q0 91 20.5 145t68 77.5
t126.5 23.5q98 0 165 -32v-455q0 -133 -85.5 -198t-259.5 -65v70z" />
    <glyph glyph-name="h" unicode="h" 
d="M359 336q0 49 -10 76t-34.5 37.5t-70.5 10.5q-23 0 -42.5 -2.5t-39 -9t-43.5 -18.5l-16 70q34 17 68.5 23.5t81.5 6.5q71 0 111 -17t56.5 -58.5t16.5 -114.5v-340h-78v336zM63 0v730h78v-730h-78z" />
    <glyph glyph-name="i" unicode="i" 
d="M260 0v450h-180v70h260v-520h-80zM284 614q-32 0 -51.5 18.5t-19.5 49.5q0 32 19.5 50t51.5 18t51.5 -18t19.5 -50q0 -31 -19.5 -49.5t-51.5 -18.5z" />
    <glyph glyph-name="j" unicode="j" 
d="M80 -150q93 0 136.5 45t43.5 142v413h-180v70h260v-477q0 -133 -64.5 -198t-195.5 -65v70zM284 614q-32 0 -51.5 18.5t-19.5 49.5q0 32 19.5 50t51.5 18t51.5 -18t19.5 -50q0 -31 -19.5 -49.5t-51.5 -18.5z" />
    <glyph glyph-name="k" unicode="k" 
d="M68 0v730h78v-433h4l225 223h96l-248 -250l255 -270h-96l-232 242h-4v-242h-78z" />
    <glyph glyph-name="l" unicode="l" 
d="M353 -10q-82 0 -117.5 36t-35.5 121v513h-160v70h240v-566q0 -59 19.5 -81.5t71.5 -22.5q26 0 47.5 4.5t41.5 12.5v-70q-26 -9 -52.5 -13t-54.5 -4z" />
    <glyph glyph-name="m" unicode="m" 
d="M30 0v500q26 15 57 22.5t70 7.5q32 0 52 -6.5t41 -23.5q26 17 48.5 23.5t54.5 6.5q45 0 70.5 -13.5t36 -45.5t10.5 -88v-383h-76v384q0 31 -5 47t-17 22.5t-35 6.5q-15 0 -26.5 -4t-22.5 -12v-444h-76v433q0 9 -6 15t-17 9t-27 3q-34 0 -56 -16v-444h-76z" />
    <glyph glyph-name="n" unicode="n" 
d="M63 498q38 17 81 24.5t97 7.5q76 0 118.5 -17t60 -58.5t17.5 -114.5v-340h-78v336q0 49 -10 76t-35.5 37.5t-71.5 10.5q-23 0 -43 -3t-40 -9.5t-44 -19.5l26 50v-478h-78v498z" />
    <glyph glyph-name="o" unicode="o" 
d="M250 -10q-103 0 -151.5 60.5t-48.5 189.5v40q0 129 48.5 189.5t151.5 60.5q104 0 152 -60.5t48 -189.5v-40q0 -129 -48 -189.5t-152 -60.5zM250 60q65 0 92.5 43t27.5 142v30q0 99 -27.5 142t-92.5 43q-64 0 -92 -43t-28 -142v-30q0 -99 28 -142t92 -43z" />
    <glyph glyph-name="p" unicode="p" 
d="M72 498q69 32 165 32q80 0 127 -25t67.5 -81.5t20.5 -153.5q0 -101 -21.5 -162.5t-69 -89.5t-125.5 -28q-36 0 -69 5.5t-59 15.5l22 71q29 -12 57 -17.5t56 -5.5q50 0 78.5 19.5t40.5 65.5t12 125q0 74 -11.5 115.5t-39 58.5t-76.5 17q-30 0 -58.5 -5.5t-57.5 -19.5
l19 45v-690h-78v708z" />
    <glyph glyph-name="q" unicode="q" vert-adv-y="1235" 
d="M350 -210v690l19 -45q-29 14 -57.5 19.5t-58.5 5.5q-49 0 -76.5 -17t-39 -58.5t-11.5 -115.5q0 -79 12 -125t41 -65.5t78 -19.5q28 0 56 5.5t57 17.5l22 -71q-26 -10 -59 -15.5t-69 -5.5q-78 0 -125.5 28t-69 89.5t-21.5 162.5q0 97 20.5 153.5t68 81.5t126.5 25
q96 0 165 -32v-708h-78z" />
    <glyph glyph-name="r" unicode="r" 
d="M126 475q49 17 105.5 29t112 19t102.5 7v-70q-41 0 -87 -5.5t-91 -15.5t-82 -24l20 38v-453h-80v475z" />
    <glyph glyph-name="s" unicode="s" 
d="M232 -10q-43 0 -80.5 6.5t-74.5 20.5v71q39 -14 76.5 -21t75.5 -7q64 0 95 19t31 58q0 20 -12.5 36t-39 31t-70.5 30q-61 20 -98 42.5t-53.5 51.5t-16.5 68q0 69 48.5 101.5t151.5 32.5q35 0 70 -4.5t85 -17.5v-153h-78v140l36 -48q-37 8 -61 10.5t-47 2.5
q-63 0 -94 -16.5t-31 -50.5q0 -19 12 -35.5t39 -31.5t73 -31q61 -21 97.5 -43.5t52.5 -51t16 -67.5q0 -72 -50.5 -107.5t-152.5 -35.5z" />
    <glyph glyph-name="t" unicode="t" 
d="M322 -10q-88 0 -126.5 36t-38.5 121v303h-130v70h130v170h80v-170h200v-70h-200v-286q0 -59 21.5 -81.5t79.5 -22.5q28 0 52.5 4.5t46.5 12.5v-70q-28 -9 -56.5 -13t-58.5 -4z" />
    <glyph glyph-name="u" unicode="u" 
d="M259 -10q-74 0 -116.5 17t-60 58.5t-17.5 114.5v340h78v-336q0 -48 10 -75t35.5 -38t71.5 -11q24 0 43.5 3t39 10t42.5 19l-28 -50v478h78v-498q-37 -16 -80 -24t-96 -8z" />
    <glyph glyph-name="v" unicode="v" 
d="M202 0l-177 520h85l138 -429h4l138 429h85l-177 -520h-96z" />
    <glyph glyph-name="w" unicode="w" 
d="M83 0l-73 520h80l50 -460h4l45 460h122l45 -460h4l50 460h80l-73 -520h-120l-45 465h-4l-45 -465h-120z" />
    <glyph glyph-name="x" unicode="x" 
d="M45 0l147 260l-147 260h85l118 -208h4l118 208h85l-147 -260l147 -260h-86l-117 208h-4l-117 -208h-86z" />
    <glyph glyph-name="y" unicode="y" 
d="M55 -150q47 0 79.5 17.5t54.5 55.5t35 98l4 -40l-203 539h85l144 -410h4l132 410h85l-186 -549q-21 -61 -51.5 -104t-75 -65t-107.5 -22v70z" />
    <glyph glyph-name="z" unicode="z" 
d="M75 0v70l257 376v4h-257v70h350v-70l-257 -376v-4h257v-70h-350z" />
    <glyph glyph-name="braceleft" unicode="{" 
d="M322 -110q-72 0 -104.5 35.5t-32.5 114.5v130q0 60 -21 91.5t-62 31.5h-47v74h47q41 0 62 31.5t21 91.5v130q0 80 32.5 115t104.5 35h96v-70h-60q-38 0 -59 -9.5t-29.5 -33.5t-8.5 -67v-108q0 -58 -20 -95t-61 -55v-4q41 -18 61 -54.5t20 -95.5v-108q0 -43 8.5 -67
t29.5 -33.5t59 -9.5h60v-70h-96z" />
    <glyph glyph-name="bar" unicode="|" 
d="M212 -210v1020h76v-1020h-76z" />
    <glyph glyph-name="braceright" unicode="}" 
d="M178 -110h-96v70h60q38 0 59 9.5t29.5 33.5t8.5 67v108q0 59 20 95.5t61 54.5v4q-41 18 -61 55t-20 95v108q0 43 -8.5 67t-29.5 33.5t-59 9.5h-60v70h96q72 0 104.5 -35t32.5 -115v-130q0 -60 21.5 -91.5t61.5 -31.5h47v-74h-47q-40 0 -61.5 -31.5t-21.5 -91.5v-130
q0 -79 -32.5 -114.5t-104.5 -35.5z" />
    <glyph glyph-name="asciitilde" unicode="~" 
d="M367 210q-34 0 -67 14.5t-69 37.5q-26 17 -47.5 27.5t-41.5 10.5q-23 0 -35 -18.5t-12 -61.5h-75q0 73 29 111.5t84 38.5q34 0 67 -14.5t69 -37.5q26 -16 47.5 -27t41.5 -11q23 0 35 18.5t12 61.5h75q0 -73 -29 -111.5t-84 -38.5z" />
    <glyph glyph-name="uni00A0" unicode="&#xa0;" 
 />
    <glyph glyph-name="exclamdown" unicode="&#xa1;" 
d="M210 300h80l10 -510h-100zM250 530q32 0 51.5 -18t19.5 -50q0 -31 -19.5 -49.5t-51.5 -18.5t-51.5 18.5t-19.5 49.5q0 32 19.5 50t51.5 18z" />
    <glyph glyph-name="cent" unicode="&#xa2;" vert-adv-y="1235" 
d="M225 260v365h70v-365h-70zM225 -105v365h70v-365h-70zM292 -10q-231 0 -231 250v40q0 250 232 250q65 0 118 -16v-209h-78v197l38 -57q-22 8 -44 11.5t-44 3.5q-74 0 -108 -44t-34 -141v-30q0 -67 15.5 -108t50.5 -59t93 -18q28 0 55 4t56 13v-71q-27 -7 -57 -11.5
t-62 -4.5z" />
    <glyph glyph-name="sterling" unicode="&#xa3;" 
d="M60 70q26 3 45 23t29.5 55.5t10.5 81.5v336q0 88 41 131t124 43q27 0 54 -4t53 -12v-72q-27 10 -50.5 14t-43.5 4q-51 0 -74 -25t-23 -81v-334q0 -54 -12.5 -95t-35.5 -61v-4h262v-70h-380v70zM60 351v70h330v-70h-330z" />
    <glyph glyph-name="currency" unicode="&#xa4;" 
d="M250 80q-50 0 -91 24.5t-65 65.5t-24 90q0 50 24 90.5t65 65t91 24.5t90.5 -24.5t65 -65t24.5 -90.5q0 -49 -24.5 -90t-65 -65.5t-90.5 -24.5zM77 44l-43 43l90 90l43 -42zM423 44l-90 91l42 42l91 -90zM124 343l-90 90l43 43l90 -90zM250 145q32 0 58 15.5t41.5 42
t15.5 57.5q0 32 -15.5 58t-41.5 41.5t-58 15.5t-58 -15.5t-41.5 -41.5t-15.5 -58q0 -31 15.5 -57.5t41.5 -42t58 -15.5zM375 343l-42 43l90 90l43 -43z" />
    <glyph glyph-name="yen" unicode="&#xa5;" vert-adv-y="1235" 
d="M39 122v68h420v-68h-420zM39 270v68h420v-68h-420zM209 0v285l-194 445h83l150 -359h4l150 359h83l-194 -445v-285h-82z" />
    <glyph glyph-name="brokenbar" unicode="&#xa6;" 
d="M212 370v440h76v-440h-76zM212 -220v440h76v-440h-76z" />
    <glyph glyph-name="section" unicode="&#xa7;" 
d="M275 175q36 7 61.5 39t25.5 76t-27 73t-90 45q-67 16 -106.5 39t-56.5 54t-17 72q0 77 50 122t135 45t165 -34v-68q-44 20 -84.5 28.5t-80.5 8.5q-50 0 -79 -25.5t-29 -69.5q0 -37 24 -63t79 -40q100 -26 143.5 -71t43.5 -111q0 -70 -41.5 -116.5t-112.5 -58.5zM250 -150
q-87 0 -165 34v68q44 -19 84.5 -28t80.5 -9q50 0 78.5 26t28.5 69q0 38 -23.5 63.5t-78.5 39.5q-100 26 -144 71t-44 111q0 70 42.5 116.5t112.5 58.5l3 -55q-36 -7 -62 -39t-26 -76t27.5 -73t90.5 -44q67 -16 106.5 -39.5t56.5 -54t17 -71.5q0 -78 -49.5 -123t-135.5 -45z
" />
    <glyph glyph-name="dieresis" unicode="&#xa8;" 
d="M136 792q-32 0 -51.5 18.5t-19.5 49.5q0 32 19.5 50t51.5 18t51.5 -18t19.5 -50q0 -31 -19.5 -49.5t-51.5 -18.5zM364 792q-32 0 -51.5 18.5t-19.5 49.5q0 32 19.5 50t51.5 18t51.5 -18t19.5 -50q0 -31 -19.5 -49.5t-51.5 -18.5z" />
    <glyph glyph-name="copyright" unicode="&#xa9;" 
d="M250 260q-72 0 -126 30t-84 84t-30 126t30 126t84 84t126 30t126 -30t84 -84t30 -126t-30 -126t-84 -84t-126 -30zM268 352q-64 0 -97.5 35t-33.5 103v24q0 138 127 138q17 0 33.5 -2.5t29.5 -7.5v-108h-70v99l32 -49q-13 8 -27 8q-28 0 -41 -19t-13 -61v-20
q0 -44 14.5 -62t49.5 -18q13 0 28 2t27 5v-61q-12 -3 -28 -4.5t-31 -1.5zM250 310q58 0 100.5 23.5t66 66t23.5 100.5t-23.5 100.5t-66 66t-100.5 23.5t-100.5 -23.5t-66 -66t-23.5 -100.5t23.5 -100.5t66 -66t100.5 -23.5z" />
    <glyph glyph-name="ordfeminine" unicode="&#xaa;" 
d="M259 285q-94 0 -147 38t-53 105q0 69 59.5 104.5t174.5 35.5h85v-65h-84q-80 0 -118.5 -18.5t-38.5 -56.5q0 -37 31.5 -57t88.5 -20q29 0 54 5.5t46 15.5l-19 -43v248q0 39 -8.5 59t-32 27.5t-69.5 7.5q-26 0 -47.5 -2.5t-43 -7.5t-48.5 -15v68q30 12 66 18t81 6
q69 0 108 -14.5t55 -49t16 -95.5v-268q-29 -12 -72 -19t-84 -7z" />
    <glyph glyph-name="guillemotleft" unicode="&#xab;" 
d="M194 0l-150 260l150 260h75l-152 -260l152 -260h-75zM360 0l-150 260l150 260h75l-152 -260l152 -260h-75z" />
    <glyph glyph-name="logicalnot" unicode="&#xac;" 
d="M395 140v228h-370v72h450v-300h-80z" />
    <glyph glyph-name="uni00AD" unicode="&#xad;" 
d="M105 254v72h290v-72h-290z" />
    <glyph glyph-name="registered" unicode="&#xae;" 
d="M250 260q-72 0 -126 30t-84 84t-30 126t30 126t84 84t126 30t126 -30t84 -84t30 -126t-30 -126t-84 -84t-126 -30zM250 310q58 0 100.5 23.5t66 66t23.5 100.5t-23.5 100.5t-66 66t-100.5 23.5t-100.5 -23.5t-66 -66t-23.5 -100.5t23.5 -100.5t66 -66t100.5 -23.5z
M163 647q22 3 38 4t31 1q68 0 97 -22.5t29 -75.5t-29 -75.5t-97 -22.5q-13 0 -25.5 1t-26.5 2l15 59q15 -1 24 -2t17 -1q34 0 42.5 8t8.5 30q0 23 -8.5 31t-42.5 8q-10 0 -19.5 -1t-21.5 -3l38 43v-275h-70v291zM283 356l-57 133h74l63 -133h-80z" />
    <glyph glyph-name="macron" unicode="&#xaf;" 
d="M75 798v64h350v-64h-350z" />
    <glyph glyph-name="degree" unicode="&#xb0;" 
d="M250 404q-47 0 -85.5 22t-60.5 60.5t-22 85.5q0 48 22 86t60.5 60t85.5 22q48 0 86 -22t60 -60t22 -86q0 -47 -22 -85.5t-60 -60.5t-86 -22zM250 464q31 0 55.5 14t38.5 38.5t14 55.5t-14 55.5t-38.5 38.5t-55.5 14t-55.5 -14t-38.5 -38.5t-14 -55.5t14 -55.5t38.5 -38.5
t55.5 -14z" />
    <glyph glyph-name="plusminus" unicode="&#xb1;" 
d="M210 172v243h-185v72h185v243h80v-243h185v-72h-185v-243h-80zM25 0v72h450v-72h-450z" />
    <glyph glyph-name="uni00B2" unicode="&#xb2;" 
d="M112 470q67 50 103.5 80.5t51 50t14.5 34.5q0 19 -17.5 27t-56.5 8q-25 0 -46.5 -3t-48.5 -11v63q23 7 56.5 11.5t61.5 4.5q61 0 95.5 -23t34.5 -64q0 -19 -8 -39t-23.5 -41.5t-39 -45t-55.5 -48.5v-4h130v-60h-252v60z" />
    <glyph glyph-name="uni00B3" unicode="&#xb3;" 
d="M215 405q-26 0 -54 3t-52 7v61q35 -6 58.5 -8.5t42.5 -2.5q81 0 81 40q0 20 -20.5 29t-67.5 9h-50v55l95 68v4h-139v60h251v-60l-98 -71v-4v0q48 0 76.5 -24.5t28.5 -67.5q0 -98 -152 -98z" />
    <glyph glyph-name="acute" unicode="&#xb4;" 
d="M293 780h-80l102 220h100z" />
    <glyph glyph-name="uni00B5" unicode="&#xb5;" 
d="M65 -220v405l79 -80v-325h-79zM259 -10q-74 0 -116.5 17t-60 58.5t-17.5 114.5v340h78v-336q0 -48 10 -75t35.5 -38t71.5 -11q24 0 43.5 3t39 10t42.5 19l-28 -50v478h78v-498q-37 -16 -80 -24t-96 -8z" />
    <glyph glyph-name="paragraph" unicode="&#xb6;" 
d="M221 270q-50 0 -91 31t-65 83.5t-24 115.5q0 64 24 116t65 83t91 31h195v-870h-70v800h-55v-800h-70v410z" />
    <glyph glyph-name="periodcentered" unicode="&#xb7;" 
d="M250 215q-35 0 -56.5 21t-21.5 55q0 35 21.5 55.5t56.5 20.5t56.5 -20.5t21.5 -55.5q0 -34 -21.5 -55t-56.5 -21z" />
    <glyph glyph-name="cedilla" unicode="&#xb8;" 
d="M268 -218q-16 0 -30 1.5t-27 5.5v66q11 -4 24 -6t27 -2t24.5 3.5t16.5 11.5t6 21q0 27 -26.5 57.5t-76.5 59.5l70 21q52 -34 79.5 -72t27.5 -79q0 -28 -13.5 -47.5t-39 -30t-62.5 -10.5z" />
    <glyph glyph-name="uni00B9" unicode="&#xb9;" 
d="M230 410v239h-4l-137 -75v72l159 84h60v-320h-78z" />
    <glyph glyph-name="ordmasculine" unicode="&#xba;" 
d="M250 285q-99 0 -145.5 50.5t-46.5 159.5v33q0 109 46.5 159.5t145.5 50.5t145.5 -50.5t46.5 -159.5v-33q0 -109 -46.5 -159.5t-145.5 -50.5zM250 354q60 0 86 33t26 112v25q0 80 -26 112.5t-86 32.5t-86 -32.5t-26 -112.5v-25q0 -79 26 -112t86 -33z" />
    <glyph glyph-name="guillemotright" unicode="&#xbb;" 
d="M306 0h-75l152 260l-152 260h75l150 -260zM140 0h-75l152 260l-152 260h75l150 -260z" />
    <glyph glyph-name="onequarter" unicode="&#xbc;" 
d="M181 415v239h-4l-137 -75v72l159 84h60v-320h-78zM327 -5v51h-192v60l201 209h68v-209h51v-60h-51v-51h-77zM215 101h117v122h-4l-113 -118v-4zM40 217v76l420 220v-76z" />
    <glyph glyph-name="onehalf" unicode="&#xbd;" 
d="M181 415v239h-4l-137 -75v72l159 84h60v-320h-78zM198 55q67 50 103.5 80.5t51 50t14.5 34.5q0 19 -17.5 27t-56.5 8q-25 0 -46.5 -3t-48.5 -11v63q23 7 56.5 11.5t61.5 4.5q61 0 95.5 -23t34.5 -64q0 -19 -8 -39t-23.5 -41.5t-39 -45t-55.5 -48.5v-4h130v-60h-252v60z
M40 217v76l420 220v-76z" />
    <glyph glyph-name="threequarters" unicode="&#xbe;" 
d="M327 -5v51h-192v60l201 209h68v-209h51v-60h-51v-51h-77zM215 101h117v122h-4l-113 -118v-4zM162 410q-26 0 -54 3t-52 7v61q35 -6 58.5 -8.5t42.5 -2.5q81 0 81 40q0 20 -20.5 29t-67.5 9h-50v55l95 68v4h-139v60h251v-60l-98 -71v-4v0q48 0 76.5 -24.5t28.5 -67.5
q0 -98 -152 -98zM40 217v76l420 220v-76z" />
    <glyph glyph-name="questiondown" unicode="&#xbf;" 
d="M318 300q0 -39 -8.5 -73.5t-30.5 -67.5t-64 -69q-36 -31 -57 -54t-29.5 -43.5t-8.5 -43.5q0 -50 36 -73.5t115 -23.5q53 0 98 10t95 31v-75q-46 -19 -101 -28.5t-111 -9.5q-110 0 -164 39.5t-54 121.5q0 35 10.5 64t35.5 59.5t68 67.5q35 30 53.5 57t25.5 54.5t7 56.5h84
zM276 530q32 0 51.5 -18t19.5 -50q0 -31 -19.5 -49.5t-51.5 -18.5t-51.5 18.5t-19.5 49.5q0 32 19.5 50t51.5 18z" />
    <glyph glyph-name="Agrave" unicode="&#xc0;" vert-adv-y="1235" 
d="M20 0l181 730h98l181 -730h-82l-146 636h-4l-146 -636h-82zM112 200v70h276v-70h-276zM207 780l-122 220h100l102 -220h-80z" />
    <glyph glyph-name="Aacute" unicode="&#xc1;" vert-adv-y="1235" 
d="M20 0l181 730h98l181 -730h-82l-146 636h-4l-146 -636h-82zM112 200v70h276v-70h-276zM293 780h-80l102 220h100z" />
    <glyph glyph-name="Acircumflex" unicode="&#xc2;" vert-adv-y="1235" 
d="M20 0l181 730h98l181 -730h-82l-146 636h-4l-146 -636h-82zM112 200v70h276v-70h-276zM50 780l133 220h134l133 -220h-96l-102 177h-4l-102 -177h-96z" />
    <glyph glyph-name="Atilde" unicode="&#xc3;" vert-adv-y="1235" 
d="M20 0l181 730h98l181 -730h-82l-146 636h-4l-146 -636h-82zM112 200v70h276v-70h-276zM334 783q-28 0 -54 16t-63 53q-19 20 -29.5 27.5t-18.5 7.5q-15 0 -23 -24t-8 -70h-78q0 80 28 125t78 45q28 0 54 -15.5t63 -53.5q19 -19 29.5 -27t18.5 -8q15 0 23 24t8 70h78
q0 -80 -28 -125t-78 -45z" />
    <glyph glyph-name="Adieresis" unicode="&#xc4;" vert-adv-y="1235" 
d="M20 0l181 730h98l181 -730h-82l-146 636h-4l-146 -636h-82zM112 200v70h276v-70h-276zM136 792q-32 0 -51.5 18.5t-19.5 49.5q0 32 19.5 50t51.5 18t51.5 -18t19.5 -50q0 -31 -19.5 -49.5t-51.5 -18.5zM364 792q-32 0 -51.5 18.5t-19.5 49.5q0 32 19.5 50t51.5 18
t51.5 -18t19.5 -50q0 -31 -19.5 -49.5t-51.5 -18.5z" />
    <glyph glyph-name="Aring" unicode="&#xc5;" vert-adv-y="1235" 
d="M20 0l181 730h98l181 -730h-82l-146 636h-4l-146 -636h-82zM112 200v70h276v-70h-276zM250 684q-39 0 -71.5 19t-51.5 51.5t-19 71.5q0 40 19 72t51.5 51t71.5 19q40 0 72 -19t51 -51t19 -72q0 -39 -19 -71.5t-51 -51.5t-72 -19zM250 744q35 0 58.5 24t23.5 58
q0 35 -23.5 58.5t-58.5 23.5q-34 0 -58 -23.5t-24 -58.5q0 -34 24 -58t58 -24z" />
    <glyph glyph-name="AE" unicode="&#xc6;" 
d="M12 0l201 730h270v-70h-141v-239h131v-70h-131v-281h141v-70h-221v636h-4l-164 -636h-82zM112 200v70h186v-70h-186z" />
    <glyph glyph-name="Ccedilla" unicode="&#xc7;" vert-adv-y="1235" 
d="M238 -218q-16 0 -30 1.5t-27 5.5v66q11 -4 24 -6t27 -2t24.5 3.5t16.5 11.5t6 21q0 32 -26.5 68.5t-76.5 70.5l68 20q53 -38 81 -82t28 -90q0 -28 -13.5 -47.5t-39 -30t-62.5 -10.5zM310 -10q-130 0 -196.5 87t-66.5 258v60q0 171 64 258t189 87q35 0 68 -6.5t59 -19.5
v-244h-80v232l40 -62q-38 28 -89 28q-83 0 -126 -70t-43 -208v-50q0 -143 46.5 -210.5t142.5 -67.5q27 0 56 5t53 13v-75q-25 -7 -56.5 -11t-60.5 -4z" />
    <glyph glyph-name="Egrave" unicode="&#xc8;" vert-adv-y="1235" 
d="M81 0v730h350v-70h-269v-239h259v-70h-259v-281h269v-70h-350zM207 780l-122 220h100l102 -220h-80z" />
    <glyph glyph-name="Eacute" unicode="&#xc9;" vert-adv-y="1235" 
d="M81 0v730h350v-70h-269v-239h259v-70h-259v-281h269v-70h-350zM293 780h-80l102 220h100z" />
    <glyph glyph-name="Ecircumflex" unicode="&#xca;" vert-adv-y="1235" 
d="M81 0v730h350v-70h-269v-239h259v-70h-259v-281h269v-70h-350zM50 780l133 220h134l133 -220h-96l-102 177h-4l-102 -177h-96z" />
    <glyph glyph-name="Edieresis" unicode="&#xcb;" vert-adv-y="1235" 
d="M81 0v730h350v-70h-269v-239h259v-70h-259v-281h269v-70h-350zM136 792q-32 0 -51.5 18.5t-19.5 49.5q0 32 19.5 50t51.5 18t51.5 -18t19.5 -50q0 -31 -19.5 -49.5t-51.5 -18.5zM364 792q-32 0 -51.5 18.5t-19.5 49.5q0 32 19.5 50t51.5 18t51.5 -18t19.5 -50
q0 -31 -19.5 -49.5t-51.5 -18.5z" />
    <glyph glyph-name="Igrave" unicode="&#xcc;" vert-adv-y="1235" 
d="M75 0v70h134v590h-134v70h350v-70h-134v-590h134v-70h-350zM207 780l-122 220h100l102 -220h-80z" />
    <glyph glyph-name="Iacute" unicode="&#xcd;" vert-adv-y="1235" 
d="M75 0v70h134v590h-134v70h350v-70h-134v-590h134v-70h-350zM293 780h-80l102 220h100z" />
    <glyph glyph-name="Icircumflex" unicode="&#xce;" vert-adv-y="1235" 
d="M75 0v70h134v590h-134v70h350v-70h-134v-590h134v-70h-350zM50 780l133 220h134l133 -220h-96l-102 177h-4l-102 -177h-96z" />
    <glyph glyph-name="Idieresis" unicode="&#xcf;" vert-adv-y="1235" 
d="M75 0v70h134v590h-134v70h350v-70h-134v-590h134v-70h-350zM136 792q-32 0 -51.5 18.5t-19.5 49.5q0 32 19.5 50t51.5 18t51.5 -18t19.5 -50q0 -31 -19.5 -49.5t-51.5 -18.5zM364 792q-32 0 -51.5 18.5t-19.5 49.5q0 32 19.5 50t51.5 18t51.5 -18t19.5 -50
q0 -31 -19.5 -49.5t-51.5 -18.5z" />
    <glyph glyph-name="Eth" unicode="&#xd0;" 
d="M2 351v70h290v-70h-290zM194 -10q-55 0 -129 12v726q74 12 129 12q96 0 155.5 -35t87.5 -111t28 -199v-60q0 -122 -28 -198.5t-87.5 -111.5t-155.5 -35zM130 74q17 -6 36 -9t40 -3q63 0 102.5 28.5t57.5 89.5t18 160v50q0 99 -18 160t-57.5 89.5t-102.5 28.5
q-21 0 -40 -3t-36 -9l15 27v-636z" />
    <glyph glyph-name="Ntilde" unicode="&#xd1;" vert-adv-y="1235" 
d="M55 0v730h130l176 -630h4v630h80v-730h-130l-176 630h-4v-630h-80zM334 783q-28 0 -54 16t-63 53q-19 20 -29.5 27.5t-18.5 7.5q-15 0 -23 -24t-8 -70h-78q0 80 28 125t78 45q28 0 54 -15.5t63 -53.5q19 -19 29.5 -27t18.5 -8q15 0 23 24t8 70h78q0 -80 -28 -125t-78 -45
z" />
    <glyph glyph-name="Ograve" unicode="&#xd2;" vert-adv-y="1235" 
d="M250 -10q-77 0 -123 33.5t-66.5 109.5t-20.5 202v60q0 127 20.5 202.5t66.5 109t123 33.5t123 -33.5t66.5 -109t20.5 -202.5v-60q0 -126 -20.5 -202t-66.5 -109.5t-123 -33.5zM250 62q50 0 77.5 24.5t39 85t11.5 168.5v50q0 108 -11.5 168.5t-39 85t-77.5 24.5
q-49 0 -77 -24.5t-39.5 -85t-11.5 -168.5v-50q0 -108 11.5 -168.5t39.5 -85t77 -24.5zM207 780l-122 220h100l102 -220h-80z" />
    <glyph glyph-name="Oacute" unicode="&#xd3;" vert-adv-y="1235" 
d="M250 -10q-77 0 -123 33.5t-66.5 109.5t-20.5 202v60q0 127 20.5 202.5t66.5 109t123 33.5t123 -33.5t66.5 -109t20.5 -202.5v-60q0 -126 -20.5 -202t-66.5 -109.5t-123 -33.5zM250 62q50 0 77.5 24.5t39 85t11.5 168.5v50q0 108 -11.5 168.5t-39 85t-77.5 24.5
q-49 0 -77 -24.5t-39.5 -85t-11.5 -168.5v-50q0 -108 11.5 -168.5t39.5 -85t77 -24.5zM293 780h-80l102 220h100z" />
    <glyph glyph-name="Ocircumflex" unicode="&#xd4;" vert-adv-y="1235" 
d="M250 -10q-77 0 -123 33.5t-66.5 109.5t-20.5 202v60q0 127 20.5 202.5t66.5 109t123 33.5t123 -33.5t66.5 -109t20.5 -202.5v-60q0 -126 -20.5 -202t-66.5 -109.5t-123 -33.5zM250 62q50 0 77.5 24.5t39 85t11.5 168.5v50q0 108 -11.5 168.5t-39 85t-77.5 24.5
q-49 0 -77 -24.5t-39.5 -85t-11.5 -168.5v-50q0 -108 11.5 -168.5t39.5 -85t77 -24.5zM50 780l133 220h134l133 -220h-96l-102 177h-4l-102 -177h-96z" />
    <glyph glyph-name="Otilde" unicode="&#xd5;" vert-adv-y="1235" 
d="M250 -10q-77 0 -123 33.5t-66.5 109.5t-20.5 202v60q0 127 20.5 202.5t66.5 109t123 33.5t123 -33.5t66.5 -109t20.5 -202.5v-60q0 -126 -20.5 -202t-66.5 -109.5t-123 -33.5zM250 62q50 0 77.5 24.5t39 85t11.5 168.5v50q0 108 -11.5 168.5t-39 85t-77.5 24.5
q-49 0 -77 -24.5t-39.5 -85t-11.5 -168.5v-50q0 -108 11.5 -168.5t39.5 -85t77 -24.5zM334 783q-28 0 -54 16t-63 53q-19 20 -29.5 27.5t-18.5 7.5q-15 0 -23 -24t-8 -70h-78q0 80 28 125t78 45q28 0 54 -15.5t63 -53.5q19 -19 29.5 -27t18.5 -8q15 0 23 24t8 70h78
q0 -80 -28 -125t-78 -45z" />
    <glyph glyph-name="Odieresis" unicode="&#xd6;" vert-adv-y="1235" 
d="M250 -10q-77 0 -123 33.5t-66.5 109.5t-20.5 202v60q0 127 20.5 202.5t66.5 109t123 33.5t123 -33.5t66.5 -109t20.5 -202.5v-60q0 -126 -20.5 -202t-66.5 -109.5t-123 -33.5zM250 62q50 0 77.5 24.5t39 85t11.5 168.5v50q0 108 -11.5 168.5t-39 85t-77.5 24.5
q-49 0 -77 -24.5t-39.5 -85t-11.5 -168.5v-50q0 -108 11.5 -168.5t39.5 -85t77 -24.5zM136 792q-32 0 -51.5 18.5t-19.5 49.5q0 32 19.5 50t51.5 18t51.5 -18t19.5 -50q0 -31 -19.5 -49.5t-51.5 -18.5zM364 792q-32 0 -51.5 18.5t-19.5 49.5q0 32 19.5 50t51.5 18t51.5 -18
t19.5 -50q0 -31 -19.5 -49.5t-51.5 -18.5z" />
    <glyph glyph-name="multiply" unicode="&#xd7;" 
d="M108 15l343 508l-59 42l-343 -508zM392 15l59 42l-343 508l-59 -42z" />
    <glyph glyph-name="Oslash" unicode="&#xd8;" 
d="M38 -10l350 750h74l-350 -750h-74zM250 -10q-77 0 -123 33.5t-66.5 109.5t-20.5 202v60q0 127 20.5 202.5t66.5 109t123 33.5t123 -33.5t66.5 -109t20.5 -202.5v-60q0 -126 -20.5 -202t-66.5 -109.5t-123 -33.5zM250 62q50 0 77.5 24.5t39 85t11.5 168.5v50
q0 108 -11.5 168.5t-39 85t-77.5 24.5q-49 0 -77 -24.5t-39.5 -85t-11.5 -168.5v-50q0 -108 11.5 -168.5t39.5 -85t77 -24.5z" />
    <glyph glyph-name="Ugrave" unicode="&#xd9;" vert-adv-y="1235" 
d="M250 -10q-100 0 -147.5 49.5t-47.5 155.5v535h80v-527q0 -75 27 -108t88 -33q62 0 88.5 33t26.5 108v527h80v-535q0 -106 -47 -155.5t-148 -49.5zM207 780l-122 220h100l102 -220h-80z" />
    <glyph glyph-name="Uacute" unicode="&#xda;" vert-adv-y="1235" 
d="M250 -10q-100 0 -147.5 49.5t-47.5 155.5v535h80v-527q0 -75 27 -108t88 -33q62 0 88.5 33t26.5 108v527h80v-535q0 -106 -47 -155.5t-148 -49.5zM293 780h-80l102 220h100z" />
    <glyph glyph-name="Ucircumflex" unicode="&#xdb;" vert-adv-y="1235" 
d="M250 -10q-100 0 -147.5 49.5t-47.5 155.5v535h80v-527q0 -75 27 -108t88 -33q62 0 88.5 33t26.5 108v527h80v-535q0 -106 -47 -155.5t-148 -49.5zM50 780l133 220h134l133 -220h-96l-102 177h-4l-102 -177h-96z" />
    <glyph glyph-name="Udieresis" unicode="&#xdc;" vert-adv-y="1235" 
d="M250 -10q-100 0 -147.5 49.5t-47.5 155.5v535h80v-527q0 -75 27 -108t88 -33q62 0 88.5 33t26.5 108v527h80v-535q0 -106 -47 -155.5t-148 -49.5zM136 792q-32 0 -51.5 18.5t-19.5 49.5q0 32 19.5 50t51.5 18t51.5 -18t19.5 -50q0 -31 -19.5 -49.5t-51.5 -18.5zM364 792
q-32 0 -51.5 18.5t-19.5 49.5q0 32 19.5 50t51.5 18t51.5 -18t19.5 -50q0 -31 -19.5 -49.5t-51.5 -18.5z" />
    <glyph glyph-name="Yacute" unicode="&#xdd;" vert-adv-y="1235" 
d="M209 0v285l-194 445h83l150 -359h4l150 359h83l-194 -445v-285h-82zM293 780h-80l102 220h100z" />
    <glyph glyph-name="Thorn" unicode="&#xde;" 
d="M214 140q-28 0 -53 2t-53 6l26 72q24 -4 44 -6t43 -2q60 0 95.5 17t51.5 55t16 101q0 64 -16 101.5t-51.5 54.5t-95.5 17q-23 0 -43 -2t-44 -6l-26 72q28 4 53 6t53 2q91 0 146 -24.5t80 -78t25 -142.5q0 -88 -25 -142t-80 -78.5t-146 -24.5zM75 0v730h82v-730h-82z" />
    <glyph glyph-name="germandbls" unicode="&#xdf;" 
d="M295 -10q-22 0 -49 3.5t-51 11.5v73q21 -8 41.5 -12t42.5 -4q62 0 92 32.5t30 100.5q0 70 -33 100.5t-108 30.5h-30v83h25q46 0 68 31.5t22 95.5q0 68 -27 100t-84 32t-84 -35.5t-27 -109.5v-523h-80v533q0 107 46.5 157t144.5 50t144.5 -48.5t46.5 -150.5q0 -58 -17 -97
t-52 -62v-4q66 -13 96.5 -57.5t30.5 -124.5q0 -206 -188 -206z" />
    <glyph glyph-name="agrave" unicode="&#xe0;" vert-adv-y="1235" 
d="M261 -10q-100 0 -157 45.5t-57 124.5q0 83 63.5 125t187.5 42h90v-65h-89q-87 0 -129.5 -25t-42.5 -76q0 -48 35 -76t96 -28q32 0 62.5 8t51.5 21l-22 -46v298q0 51 -8 78t-31.5 36.5t-68.5 9.5q-29 0 -56 -3t-54 -9.5t-57 -17.5v69q35 14 80.5 21.5t94.5 7.5
q68 0 107 -17t55 -58.5t16 -114.5v-318q-31 -15 -77 -23.5t-90 -8.5zM207 570l-122 220h100l102 -220h-80z" />
    <glyph glyph-name="aacute" unicode="&#xe1;" vert-adv-y="1235" 
d="M261 -10q-100 0 -157 45.5t-57 124.5q0 83 63.5 125t187.5 42h90v-65h-89q-87 0 -129.5 -25t-42.5 -76q0 -48 35 -76t96 -28q32 0 62.5 8t51.5 21l-22 -46v298q0 51 -8 78t-31.5 36.5t-68.5 9.5q-29 0 -56 -3t-54 -9.5t-57 -17.5v69q35 14 80.5 21.5t94.5 7.5
q68 0 107 -17t55 -58.5t16 -114.5v-318q-31 -15 -77 -23.5t-90 -8.5zM293 570h-80l102 220h100z" />
    <glyph glyph-name="acircumflex" unicode="&#xe2;" vert-adv-y="1235" 
d="M261 -10q-100 0 -157 45.5t-57 124.5q0 83 63.5 125t187.5 42h90v-65h-89q-87 0 -129.5 -25t-42.5 -76q0 -48 35 -76t96 -28q32 0 62.5 8t51.5 21l-22 -46v298q0 51 -8 78t-31.5 36.5t-68.5 9.5q-29 0 -56 -3t-54 -9.5t-57 -17.5v69q35 14 80.5 21.5t94.5 7.5
q68 0 107 -17t55 -58.5t16 -114.5v-318q-31 -15 -77 -23.5t-90 -8.5zM50 570l133 220h134l133 -220h-96l-102 177h-4l-102 -177h-96z" />
    <glyph glyph-name="atilde" unicode="&#xe3;" vert-adv-y="1235" 
d="M261 -10q-100 0 -157 45.5t-57 124.5q0 83 63.5 125t187.5 42h90v-65h-89q-87 0 -129.5 -25t-42.5 -76q0 -48 35 -76t96 -28q32 0 62.5 8t51.5 21l-22 -46v298q0 51 -8 78t-31.5 36.5t-68.5 9.5q-29 0 -56 -3t-54 -9.5t-57 -17.5v69q35 14 80.5 21.5t94.5 7.5
q68 0 107 -17t55 -58.5t16 -114.5v-318q-31 -15 -77 -23.5t-90 -8.5zM334 573q-28 0 -54 16t-63 53q-19 20 -29.5 27.5t-18.5 7.5q-15 0 -23 -24t-8 -70h-78q0 80 28 125t78 45q28 0 54 -15.5t63 -53.5q19 -19 29.5 -27t18.5 -8q15 0 23 24t8 70h78q0 -80 -28 -125t-78 -45z
" />
    <glyph glyph-name="adieresis" unicode="&#xe4;" vert-adv-y="1235" 
d="M261 -10q-100 0 -157 45.5t-57 124.5q0 83 63.5 125t187.5 42h90v-65h-89q-87 0 -129.5 -25t-42.5 -76q0 -48 35 -76t96 -28q32 0 62.5 8t51.5 21l-22 -46v298q0 51 -8 78t-31.5 36.5t-68.5 9.5q-29 0 -56 -3t-54 -9.5t-57 -17.5v69q35 14 80.5 21.5t94.5 7.5
q68 0 107 -17t55 -58.5t16 -114.5v-318q-31 -15 -77 -23.5t-90 -8.5zM136 582q-32 0 -51.5 18.5t-19.5 49.5q0 32 19.5 50t51.5 18t51.5 -18t19.5 -50q0 -31 -19.5 -49.5t-51.5 -18.5zM364 582q-32 0 -51.5 18.5t-19.5 49.5q0 32 19.5 50t51.5 18t51.5 -18t19.5 -50
q0 -31 -19.5 -49.5t-51.5 -18.5z" />
    <glyph glyph-name="aring" unicode="&#xe5;" vert-adv-y="1235" 
d="M261 -10q-100 0 -157 45.5t-57 124.5q0 83 63.5 125t187.5 42h90v-65h-89q-87 0 -129.5 -25t-42.5 -76q0 -48 35 -76t96 -28q32 0 62.5 8t51.5 21l-22 -46v298q0 51 -8 78t-31.5 36.5t-68.5 9.5q-29 0 -56 -3t-54 -9.5t-57 -17.5v69q35 14 80.5 21.5t94.5 7.5
q68 0 107 -17t55 -58.5t16 -114.5v-318q-31 -15 -77 -23.5t-90 -8.5zM250 574q-39 0 -71.5 19t-51.5 51.5t-19 71.5q0 40 19 72t51.5 51t71.5 19q40 0 72 -19t51 -51t19 -72q0 -39 -19 -71.5t-51 -51.5t-72 -19zM250 634q35 0 58.5 24t23.5 58q0 35 -23.5 58.5t-58.5 23.5
q-34 0 -58 -23.5t-24 -58.5q0 -34 24 -58t58 -24z" />
    <glyph glyph-name="ae" unicode="&#xe6;" 
d="M161 -10q-70 0 -108 44.5t-38 125.5q0 83 42.5 125.5t127.5 42.5h52v-67h-46q-55 0 -80.5 -24t-25.5 -76q0 -49 21.5 -76.5t58.5 -27.5q18 0 31 7t21 20v254q0 51 -6.5 77.5t-24 36.5t-51.5 10q-24 0 -43 -4.5t-43 -16.5v71q20 9 43 13.5t51 4.5q48 0 75 -14.5t41 -47.5
h4q14 32 37 47t57 15q45 0 73 -25.5t41 -80.5t13 -144v-54h-216v65h162l-11 -23v9q0 69 -6.5 109.5t-20.5 58t-39 17.5q-24 0 -38.5 -17.5t-21 -58t-6.5 -109.5v-34q0 -73 8.5 -113t30 -56t60.5 -16q21 0 40.5 4t40.5 13v-69q-20 -7 -43 -11.5t-44 -4.5q-38 0 -63 14.5
t-41 44.5h-4q-16 -30 -44.5 -44.5t-66.5 -14.5z" />
    <glyph glyph-name="ccedilla" unicode="&#xe7;" vert-adv-y="1235" 
d="M226 -218q-16 0 -30 1.5t-27 5.5v66q11 -4 24 -6t27 -2t24.5 3.5t16.5 11.5t6 21q0 32 -26.5 66.5t-76.5 68.5l70 21q52 -36 79.5 -80t27.5 -89q0 -28 -13.5 -47.5t-39 -30t-62.5 -10.5zM292 -10q-231 0 -231 250v40q0 250 232 250q65 0 118 -16v-209h-78v197l38 -57
q-22 8 -44 11.5t-44 3.5q-74 0 -108 -44t-34 -141v-30q0 -67 15.5 -108t50.5 -59t93 -18q28 0 55 4t56 13v-71q-27 -7 -57 -11.5t-62 -4.5z" />
    <glyph glyph-name="egrave" unicode="&#xe8;" vert-adv-y="1235" 
d="M286 -10q-117 0 -174 61.5t-57 188.5v40q0 129 47.5 189.5t147.5 60.5q101 0 148 -60.5t47 -189.5v-54h-351v65h291l-18 -23v9q0 98 -27.5 141.5t-89.5 43.5t-89.5 -43.5t-27.5 -141.5v-34q0 -69 15 -109.5t50 -58t94 -17.5q29 0 59.5 4t65.5 13v-69q-30 -7 -64.5 -11.5
t-66.5 -4.5zM207 570l-122 220h100l102 -220h-80z" />
    <glyph glyph-name="eacute" unicode="&#xe9;" vert-adv-y="1235" 
d="M286 -10q-117 0 -174 61.5t-57 188.5v40q0 129 47.5 189.5t147.5 60.5q101 0 148 -60.5t47 -189.5v-54h-351v65h291l-18 -23v9q0 98 -27.5 141.5t-89.5 43.5t-89.5 -43.5t-27.5 -141.5v-34q0 -69 15 -109.5t50 -58t94 -17.5q29 0 59.5 4t65.5 13v-69q-30 -7 -64.5 -11.5
t-66.5 -4.5zM293 570h-80l102 220h100z" />
    <glyph glyph-name="ecircumflex" unicode="&#xea;" vert-adv-y="1235" 
d="M286 -10q-117 0 -174 61.5t-57 188.5v40q0 129 47.5 189.5t147.5 60.5q101 0 148 -60.5t47 -189.5v-54h-351v65h291l-18 -23v9q0 98 -27.5 141.5t-89.5 43.5t-89.5 -43.5t-27.5 -141.5v-34q0 -69 15 -109.5t50 -58t94 -17.5q29 0 59.5 4t65.5 13v-69q-30 -7 -64.5 -11.5
t-66.5 -4.5zM50 570l133 220h134l133 -220h-96l-102 177h-4l-102 -177h-96z" />
    <glyph glyph-name="edieresis" unicode="&#xeb;" vert-adv-y="1235" 
d="M286 -10q-117 0 -174 61.5t-57 188.5v40q0 129 47.5 189.5t147.5 60.5q101 0 148 -60.5t47 -189.5v-54h-351v65h291l-18 -23v9q0 98 -27.5 141.5t-89.5 43.5t-89.5 -43.5t-27.5 -141.5v-34q0 -69 15 -109.5t50 -58t94 -17.5q29 0 59.5 4t65.5 13v-69q-30 -7 -64.5 -11.5
t-66.5 -4.5zM136 582q-32 0 -51.5 18.5t-19.5 49.5q0 32 19.5 50t51.5 18t51.5 -18t19.5 -50q0 -31 -19.5 -49.5t-51.5 -18.5zM364 582q-32 0 -51.5 18.5t-19.5 49.5q0 32 19.5 50t51.5 18t51.5 -18t19.5 -50q0 -31 -19.5 -49.5t-51.5 -18.5z" />
    <glyph glyph-name="igrave" unicode="&#xec;" vert-adv-y="1235" 
d="M260 0v450h-180v70h260v-520h-80zM257 570l-122 220h100l102 -220h-80z" />
    <glyph glyph-name="iacute" unicode="&#xed;" vert-adv-y="1235" 
d="M260 0v450h-180v70h260v-520h-80zM343 570h-80l102 220h100z" />
    <glyph glyph-name="icircumflex" unicode="&#xee;" vert-adv-y="1235" 
d="M260 0v450h-180v70h260v-520h-80zM100 570l133 220h134l133 -220h-96l-102 177h-4l-102 -177h-96z" />
    <glyph glyph-name="idieresis" unicode="&#xef;" vert-adv-y="1235" 
d="M260 0v450h-180v70h260v-520h-80zM186 582q-32 0 -51.5 18.5t-19.5 49.5q0 32 19.5 50t51.5 18t51.5 -18t19.5 -50q0 -31 -19.5 -49.5t-51.5 -18.5zM414 582q-32 0 -51.5 18.5t-19.5 49.5q0 32 19.5 50t51.5 18t51.5 -18t19.5 -50q0 -31 -19.5 -49.5t-51.5 -18.5z" />
    <glyph glyph-name="eth" unicode="&#xf0;" 
d="M254 -10q-71 0 -114 25t-62.5 81.5t-19.5 148.5q0 87 18 138.5t59 74t109 22.5q43 0 82.5 -9t72.5 -28l-25 -66q-31 17 -61.5 25t-62.5 8q-43 0 -68 -15t-35.5 -51t-10.5 -100q0 -69 11.5 -109t37.5 -57.5t71 -17.5q36 0 58.5 22t33.5 68.5t11 117.5q0 194 -60.5 299.5
t-190.5 134.5v68q170 -32 251 -156t80 -354q0 -92 -20 -152t-61 -89t-104 -29zM65 500v72l370 169v-72z" />
    <glyph glyph-name="ntilde" unicode="&#xf1;" vert-adv-y="1235" 
d="M63 498q38 17 81 24.5t97 7.5q76 0 118.5 -17t60 -58.5t17.5 -114.5v-340h-78v336q0 49 -10 76t-35.5 37.5t-71.5 10.5q-23 0 -43 -3t-40 -9.5t-44 -19.5l26 50v-478h-78v498zM334 573q-28 0 -54 16t-63 53q-19 20 -29.5 27.5t-18.5 7.5q-15 0 -23 -24t-8 -70h-78
q0 80 28 125t78 45q28 0 54 -15.5t63 -53.5q19 -19 29.5 -27t18.5 -8q15 0 23 24t8 70h78q0 -80 -28 -125t-78 -45z" />
    <glyph glyph-name="ograve" unicode="&#xf2;" vert-adv-y="1235" 
d="M250 -10q-103 0 -151.5 60.5t-48.5 189.5v40q0 129 48.5 189.5t151.5 60.5q104 0 152 -60.5t48 -189.5v-40q0 -129 -48 -189.5t-152 -60.5zM250 60q65 0 92.5 43t27.5 142v30q0 99 -27.5 142t-92.5 43q-64 0 -92 -43t-28 -142v-30q0 -99 28 -142t92 -43zM207 570
l-122 220h100l102 -220h-80z" />
    <glyph glyph-name="oacute" unicode="&#xf3;" vert-adv-y="1235" 
d="M250 -10q-103 0 -151.5 60.5t-48.5 189.5v40q0 129 48.5 189.5t151.5 60.5q104 0 152 -60.5t48 -189.5v-40q0 -129 -48 -189.5t-152 -60.5zM250 60q65 0 92.5 43t27.5 142v30q0 99 -27.5 142t-92.5 43q-64 0 -92 -43t-28 -142v-30q0 -99 28 -142t92 -43zM293 570h-80
l102 220h100z" />
    <glyph glyph-name="ocircumflex" unicode="&#xf4;" vert-adv-y="1235" 
d="M250 -10q-103 0 -151.5 60.5t-48.5 189.5v40q0 129 48.5 189.5t151.5 60.5q104 0 152 -60.5t48 -189.5v-40q0 -129 -48 -189.5t-152 -60.5zM250 60q65 0 92.5 43t27.5 142v30q0 99 -27.5 142t-92.5 43q-64 0 -92 -43t-28 -142v-30q0 -99 28 -142t92 -43zM50 570l133 220
h134l133 -220h-96l-102 177h-4l-102 -177h-96z" />
    <glyph glyph-name="otilde" unicode="&#xf5;" vert-adv-y="1235" 
d="M250 -10q-103 0 -151.5 60.5t-48.5 189.5v40q0 129 48.5 189.5t151.5 60.5q104 0 152 -60.5t48 -189.5v-40q0 -129 -48 -189.5t-152 -60.5zM250 60q65 0 92.5 43t27.5 142v30q0 99 -27.5 142t-92.5 43q-64 0 -92 -43t-28 -142v-30q0 -99 28 -142t92 -43zM334 573
q-28 0 -54 16t-63 53q-19 20 -29.5 27.5t-18.5 7.5q-15 0 -23 -24t-8 -70h-78q0 80 28 125t78 45q28 0 54 -15.5t63 -53.5q19 -19 29.5 -27t18.5 -8q15 0 23 24t8 70h78q0 -80 -28 -125t-78 -45z" />
    <glyph glyph-name="odieresis" unicode="&#xf6;" vert-adv-y="1235" 
d="M250 -10q-103 0 -151.5 60.5t-48.5 189.5v40q0 129 48.5 189.5t151.5 60.5q104 0 152 -60.5t48 -189.5v-40q0 -129 -48 -189.5t-152 -60.5zM250 60q65 0 92.5 43t27.5 142v30q0 99 -27.5 142t-92.5 43q-64 0 -92 -43t-28 -142v-30q0 -99 28 -142t92 -43zM136 582
q-32 0 -51.5 18.5t-19.5 49.5q0 32 19.5 50t51.5 18t51.5 -18t19.5 -50q0 -31 -19.5 -49.5t-51.5 -18.5zM364 582q-32 0 -51.5 18.5t-19.5 49.5q0 32 19.5 50t51.5 18t51.5 -18t19.5 -50q0 -31 -19.5 -49.5t-51.5 -18.5z" />
    <glyph glyph-name="divide" unicode="&#xf7;" 
d="M250 -1q-34 0 -54.5 20t-20.5 53t20.5 53t54.5 20t54.5 -20t20.5 -53t-20.5 -53t-54.5 -20zM250 440q-34 0 -54.5 20t-20.5 53t20.5 53t54.5 20t54.5 -20t20.5 -53t-20.5 -53t-54.5 -20zM25 253v74h450v-74h-450z" />
    <glyph glyph-name="oslash" unicode="&#xf8;" 
d="M38 -10l350 540h74l-350 -540h-74zM250 -10q-103 0 -151.5 60.5t-48.5 189.5v40q0 129 48.5 189.5t151.5 60.5q104 0 152 -60.5t48 -189.5v-40q0 -129 -48 -189.5t-152 -60.5zM250 60q65 0 92.5 43t27.5 142v30q0 99 -27.5 142t-92.5 43q-64 0 -92 -43t-28 -142v-30
q0 -99 28 -142t92 -43z" />
    <glyph glyph-name="ugrave" unicode="&#xf9;" vert-adv-y="1235" 
d="M259 -10q-74 0 -116.5 17t-60 58.5t-17.5 114.5v340h78v-336q0 -48 10 -75t35.5 -38t71.5 -11q24 0 43.5 3t39 10t42.5 19l-28 -50v478h78v-498q-37 -16 -80 -24t-96 -8zM207 570l-122 220h100l102 -220h-80z" />
    <glyph glyph-name="uacute" unicode="&#xfa;" vert-adv-y="1235" 
d="M259 -10q-74 0 -116.5 17t-60 58.5t-17.5 114.5v340h78v-336q0 -48 10 -75t35.5 -38t71.5 -11q24 0 43.5 3t39 10t42.5 19l-28 -50v478h78v-498q-37 -16 -80 -24t-96 -8zM293 570h-80l102 220h100z" />
    <glyph glyph-name="ucircumflex" unicode="&#xfb;" vert-adv-y="1235" 
d="M259 -10q-74 0 -116.5 17t-60 58.5t-17.5 114.5v340h78v-336q0 -48 10 -75t35.5 -38t71.5 -11q24 0 43.5 3t39 10t42.5 19l-28 -50v478h78v-498q-37 -16 -80 -24t-96 -8zM50 570l133 220h134l133 -220h-96l-102 177h-4l-102 -177h-96z" />
    <glyph glyph-name="udieresis" unicode="&#xfc;" vert-adv-y="1235" 
d="M259 -10q-74 0 -116.5 17t-60 58.5t-17.5 114.5v340h78v-336q0 -48 10 -75t35.5 -38t71.5 -11q24 0 43.5 3t39 10t42.5 19l-28 -50v478h78v-498q-37 -16 -80 -24t-96 -8zM136 582q-32 0 -51.5 18.5t-19.5 49.5q0 32 19.5 50t51.5 18t51.5 -18t19.5 -50q0 -31 -19.5 -49.5
t-51.5 -18.5zM364 582q-32 0 -51.5 18.5t-19.5 49.5q0 32 19.5 50t51.5 18t51.5 -18t19.5 -50q0 -31 -19.5 -49.5t-51.5 -18.5z" />
    <glyph glyph-name="yacute" unicode="&#xfd;" vert-adv-y="1235" 
d="M55 -150q47 0 79.5 17.5t54.5 55.5t35 98l4 -40l-203 539h85l144 -410h4l132 410h85l-186 -549q-21 -61 -51.5 -104t-75 -65t-107.5 -22v70zM293 570h-80l102 220h100z" />
    <glyph glyph-name="thorn" unicode="&#xfe;" 
d="M236 -10q-35 0 -67.5 5.5t-60.5 15.5l22 71q29 -11 56 -17t57 -6q50 0 78.5 18.5t40.5 62.5t12 120t-12 120t-40.5 62.5t-78.5 18.5q-30 0 -57 -6t-56 -17l-22 71q28 11 60.5 16t67.5 5q78 0 125.5 -27t69 -86.5t21.5 -156.5t-21.5 -156.5t-69 -86.5t-125.5 -27zM72 -210
v940h78v-940h-78z" />
    <glyph glyph-name="ydieresis" unicode="&#xff;" vert-adv-y="1235" 
d="M55 -150q47 0 79.5 17.5t54.5 55.5t35 98l4 -40l-203 539h85l144 -410h4l132 410h85l-186 -549q-21 -61 -51.5 -104t-75 -65t-107.5 -22v70zM136 582q-32 0 -51.5 18.5t-19.5 49.5q0 32 19.5 50t51.5 18t51.5 -18t19.5 -50q0 -31 -19.5 -49.5t-51.5 -18.5zM364 582
q-32 0 -51.5 18.5t-19.5 49.5q0 32 19.5 50t51.5 18t51.5 -18t19.5 -50q0 -31 -19.5 -49.5t-51.5 -18.5z" />
    <glyph glyph-name="Amacron" unicode="&#x100;" vert-adv-y="1235" 
d="M20 0l181 730h98l181 -730h-82l-146 636h-4l-146 -636h-82zM112 200v70h276v-70h-276zM75 798v64h350v-64h-350z" />
    <glyph glyph-name="amacron" unicode="&#x101;" vert-adv-y="1235" 
d="M261 -10q-100 0 -157 45.5t-57 124.5q0 83 63.5 125t187.5 42h90v-65h-89q-87 0 -129.5 -25t-42.5 -76q0 -48 35 -76t96 -28q32 0 62.5 8t51.5 21l-22 -46v298q0 51 -8 78t-31.5 36.5t-68.5 9.5q-29 0 -56 -3t-54 -9.5t-57 -17.5v69q35 14 80.5 21.5t94.5 7.5
q68 0 107 -17t55 -58.5t16 -114.5v-318q-31 -15 -77 -23.5t-90 -8.5zM75 588v64h350v-64h-350z" />
    <glyph glyph-name="Abreve" unicode="&#x102;" vert-adv-y="1235" 
d="M20 0l181 730h98l181 -730h-82l-146 636h-4l-146 -636h-82zM112 200v70h276v-70h-276zM250 784q-84 0 -138.5 49t-61.5 131h84q8 -52 39 -82t77 -30q47 0 77.5 30t38.5 82h84q-7 -82 -61.5 -131t-138.5 -49z" />
    <glyph glyph-name="abreve" unicode="&#x103;" vert-adv-y="1235" 
d="M261 -10q-100 0 -157 45.5t-57 124.5q0 83 63.5 125t187.5 42h90v-65h-89q-87 0 -129.5 -25t-42.5 -76q0 -48 35 -76t96 -28q32 0 62.5 8t51.5 21l-22 -46v298q0 51 -8 78t-31.5 36.5t-68.5 9.5q-29 0 -56 -3t-54 -9.5t-57 -17.5v69q35 14 80.5 21.5t94.5 7.5
q68 0 107 -17t55 -58.5t16 -114.5v-318q-31 -15 -77 -23.5t-90 -8.5zM250 574q-84 0 -138.5 49t-61.5 131h84q8 -52 39 -82t77 -30q47 0 77.5 30t38.5 82h84q-7 -82 -61.5 -131t-138.5 -49z" />
    <glyph glyph-name="Aogonek" unicode="&#x104;" vert-adv-y="1235" 
d="M20 0l181 730h98l181 -730h-82l-146 636h-4l-146 -636h-82zM112 200v70h276v-70h-276zM418 -218q-36 0 -62 10.5t-39.5 30t-13.5 47.5q0 40 27.5 78.5t79.5 72.5l70 -21q-49 -29 -76 -59.5t-27 -57.5q0 -13 6 -21t17 -11.5t24 -3.5q14 0 27 2t24 6v-66q-13 -4 -27 -5.5
t-30 -1.5z" />
    <glyph glyph-name="aogonek" unicode="&#x105;" vert-adv-y="1235" 
d="M261 -10q-100 0 -157 45.5t-57 124.5q0 83 63.5 125t187.5 42h90v-65h-89q-87 0 -129.5 -25t-42.5 -76q0 -48 35 -76t96 -28q32 0 62.5 8t51.5 21l-22 -46v298q0 51 -8 78t-31.5 36.5t-68.5 9.5q-29 0 -56 -3t-54 -9.5t-57 -17.5v69q35 14 80.5 21.5t94.5 7.5
q68 0 107 -17t55 -58.5t16 -114.5v-318q-31 -15 -77 -23.5t-90 -8.5zM366 -196q-36 0 -62 10.5t-39.5 30t-13.5 47.5q0 40 27.5 78.5t79.5 72.5l70 -21q-49 -29 -76 -59.5t-27 -57.5q0 -13 6 -21t17 -11.5t24 -3.5q14 0 27 2t24 6v-66q-13 -4 -27 -5.5t-30 -1.5z" />
    <glyph glyph-name="Cacute" unicode="&#x106;" vert-adv-y="1235" 
d="M310 -10q-130 0 -196.5 87t-66.5 258v60q0 171 64 258t189 87q35 0 68 -6.5t59 -19.5v-244h-80v232l40 -62q-38 28 -89 28q-83 0 -126 -70t-43 -208v-50q0 -143 46.5 -210.5t142.5 -67.5q27 0 56 5t53 13v-75q-25 -7 -56.5 -11t-60.5 -4zM313 780h-80l102 220h100z" />
    <glyph glyph-name="cacute" unicode="&#x107;" vert-adv-y="1235" 
d="M292 -10q-231 0 -231 250v40q0 250 232 250q65 0 118 -16v-209h-78v197l38 -57q-22 8 -44 11.5t-44 3.5q-74 0 -108 -44t-34 -141v-30q0 -67 15.5 -108t50.5 -59t93 -18q28 0 55 4t56 13v-71q-27 -7 -57 -11.5t-62 -4.5zM303 570h-80l102 220h100z" />
    <glyph glyph-name="Ccircumflex" unicode="&#x108;" vert-adv-y="1235" 
d="M310 -10q-130 0 -196.5 87t-66.5 258v60q0 171 64 258t189 87q35 0 68 -6.5t59 -19.5v-244h-80v232l40 -62q-38 28 -89 28q-83 0 -126 -70t-43 -208v-50q0 -143 46.5 -210.5t142.5 -67.5q27 0 56 5t53 13v-75q-25 -7 -56.5 -11t-60.5 -4zM70 780l133 220h134l133 -220
h-96l-102 177h-4l-102 -177h-96z" />
    <glyph glyph-name="ccircumflex" unicode="&#x109;" vert-adv-y="1235" 
d="M292 -10q-231 0 -231 250v40q0 250 232 250q65 0 118 -16v-209h-78v197l38 -57q-22 8 -44 11.5t-44 3.5q-74 0 -108 -44t-34 -141v-30q0 -67 15.5 -108t50.5 -59t93 -18q28 0 55 4t56 13v-71q-27 -7 -57 -11.5t-62 -4.5zM60 570l133 220h134l133 -220h-96l-102 177h-4
l-102 -177h-96z" />
    <glyph glyph-name="Cdotaccent" unicode="&#x10a;" vert-adv-y="1235" 
d="M310 -10q-130 0 -196.5 87t-66.5 258v60q0 171 64 258t189 87q35 0 68 -6.5t59 -19.5v-244h-80v232l40 -62q-38 28 -89 28q-83 0 -126 -70t-43 -208v-50q0 -143 46.5 -210.5t142.5 -67.5q27 0 56 5t53 13v-75q-25 -7 -56.5 -11t-60.5 -4zM270 792q-32 0 -51.5 18.5
t-19.5 49.5q0 32 19.5 50t51.5 18t51.5 -18t19.5 -50q0 -31 -19.5 -49.5t-51.5 -18.5z" />
    <glyph glyph-name="cdotaccent" unicode="&#x10b;" vert-adv-y="1235" 
d="M292 -10q-231 0 -231 250v40q0 250 232 250q65 0 118 -16v-209h-78v197l38 -57q-22 8 -44 11.5t-44 3.5q-74 0 -108 -44t-34 -141v-30q0 -67 15.5 -108t50.5 -59t93 -18q28 0 55 4t56 13v-71q-27 -7 -57 -11.5t-62 -4.5zM260 582q-32 0 -51.5 18.5t-19.5 49.5
q0 32 19.5 50t51.5 18t51.5 -18t19.5 -50q0 -31 -19.5 -49.5t-51.5 -18.5z" />
    <glyph glyph-name="Ccaron" unicode="&#x10c;" vert-adv-y="1235" 
d="M70 1000h96l102 -177h4l102 177h96l-133 -220h-134zM310 -10q-130 0 -196.5 87t-66.5 258v60q0 171 64 258t189 87q35 0 68 -6.5t59 -19.5v-244h-80v232l40 -62q-38 28 -89 28q-83 0 -126 -70t-43 -208v-50q0 -143 46.5 -210.5t142.5 -67.5q27 0 56 5t53 13v-75
q-25 -7 -56.5 -11t-60.5 -4z" />
    <glyph glyph-name="ccaron" unicode="&#x10d;" vert-adv-y="1235" 
d="M60 790h96l102 -177h4l102 177h96l-133 -220h-134zM292 -10q-231 0 -231 250v40q0 250 232 250q65 0 118 -16v-209h-78v197l38 -57q-22 8 -44 11.5t-44 3.5q-74 0 -108 -44t-34 -141v-30q0 -67 15.5 -108t50.5 -59t93 -18q28 0 55 4t56 13v-71q-27 -7 -57 -11.5t-62 -4.5
z" />
    <glyph glyph-name="Dcaron" unicode="&#x10e;" vert-adv-y="1235" 
d="M30 1000h96l102 -177h4l102 177h96l-133 -220h-134zM190 -10q-55 0 -129 12v726q74 12 129 12q96 0 155.5 -35t87.5 -111t28 -199v-60q0 -122 -28 -198.5t-87.5 -111.5t-155.5 -35zM126 74q17 -6 36 -9t40 -3q63 0 102.5 28.5t57.5 89.5t18 160v50q0 99 -18 160
t-57.5 89.5t-102.5 28.5q-21 0 -40 -3t-36 -9l15 27v-636z" />
    <glyph glyph-name="dcaron" unicode="&#x10f;" 
d="M196 -10q-66 0 -105.5 27.5t-57.5 89t-18 163.5q0 95 15.5 152t49.5 82.5t91 25.5q35 0 69 -9t62 -28l-18 -66q-25 17 -48.5 25t-48.5 8q-34 0 -54.5 -18t-29 -59.5t-8.5 -114.5q0 -78 9.5 -123.5t32.5 -65t62 -19.5q27 0 49.5 7.5t39.5 20.5l-34 -42v684h80v-708
q-25 -14 -61 -23t-77 -9zM352 510l58 220h90l-78 -220h-70z" />
    <glyph glyph-name="Dcroat" unicode="&#x110;" vert-adv-y="1235" 
d="M2 351v70h290v-70h-290zM194 -10q-55 0 -129 12v726q74 12 129 12q96 0 155.5 -35t87.5 -111t28 -199v-60q0 -122 -28 -198.5t-87.5 -111.5t-155.5 -35zM130 74q17 -6 36 -9t40 -3q63 0 102.5 28.5t57.5 89.5t18 160v50q0 99 -18 160t-57.5 89.5t-102.5 28.5
q-21 0 -40 -3t-36 -9l15 27v-636z" />
    <glyph glyph-name="dcroat" unicode="&#x111;" 
d="M95 589v66h400v-66h-400zM254 -10q-78 0 -125.5 27.5t-69 89.5t-21.5 163q0 96 18 153t59 82t109 25q43 0 82.5 -9t72.5 -28l-25 -66q-31 17 -61.5 25t-62.5 8q-43 0 -68 -17.5t-35.5 -59t-10.5 -114.5q0 -78 12 -124t40.5 -65.5t77.5 -19.5q32 0 60.5 7.5t51.5 21.5
l-18 -43v684h78v-708q-31 -14 -73 -23t-91 -9z" />
    <glyph glyph-name="Emacron" unicode="&#x112;" vert-adv-y="1235" 
d="M81 0v730h350v-70h-269v-239h259v-70h-259v-281h269v-70h-350zM75 798v64h350v-64h-350z" />
    <glyph glyph-name="emacron" unicode="&#x113;" vert-adv-y="1235" 
d="M286 -10q-117 0 -174 61.5t-57 188.5v40q0 129 47.5 189.5t147.5 60.5q101 0 148 -60.5t47 -189.5v-54h-351v65h291l-18 -23v9q0 98 -27.5 141.5t-89.5 43.5t-89.5 -43.5t-27.5 -141.5v-34q0 -69 15 -109.5t50 -58t94 -17.5q29 0 59.5 4t65.5 13v-69q-30 -7 -64.5 -11.5
t-66.5 -4.5zM75 588v64h350v-64h-350z" />
    <glyph glyph-name="Ebreve" unicode="&#x114;" vert-adv-y="1235" 
d="M81 0v730h350v-70h-269v-239h259v-70h-259v-281h269v-70h-350zM250 784q-84 0 -138.5 49t-61.5 131h84q8 -52 39 -82t77 -30q47 0 77.5 30t38.5 82h84q-7 -82 -61.5 -131t-138.5 -49z" />
    <glyph glyph-name="ebreve" unicode="&#x115;" vert-adv-y="1235" 
d="M286 -10q-117 0 -174 61.5t-57 188.5v40q0 129 47.5 189.5t147.5 60.5q101 0 148 -60.5t47 -189.5v-54h-351v65h291l-18 -23v9q0 98 -27.5 141.5t-89.5 43.5t-89.5 -43.5t-27.5 -141.5v-34q0 -69 15 -109.5t50 -58t94 -17.5q29 0 59.5 4t65.5 13v-69q-30 -7 -64.5 -11.5
t-66.5 -4.5zM250 574q-84 0 -138.5 49t-61.5 131h84q8 -52 39 -82t77 -30q47 0 77.5 30t38.5 82h84q-7 -82 -61.5 -131t-138.5 -49z" />
    <glyph glyph-name="Edotaccent" unicode="&#x116;" vert-adv-y="1235" 
d="M81 0v730h350v-70h-269v-239h259v-70h-259v-281h269v-70h-350zM250 792q-32 0 -51.5 18.5t-19.5 49.5q0 32 19.5 50t51.5 18t51.5 -18t19.5 -50q0 -31 -19.5 -49.5t-51.5 -18.5z" />
    <glyph glyph-name="edotaccent" unicode="&#x117;" vert-adv-y="1235" 
d="M286 -10q-117 0 -174 61.5t-57 188.5v40q0 129 47.5 189.5t147.5 60.5q101 0 148 -60.5t47 -189.5v-54h-351v65h291l-18 -23v9q0 98 -27.5 141.5t-89.5 43.5t-89.5 -43.5t-27.5 -141.5v-34q0 -69 15 -109.5t50 -58t94 -17.5q29 0 59.5 4t65.5 13v-69q-30 -7 -64.5 -11.5
t-66.5 -4.5zM250 582q-32 0 -51.5 18.5t-19.5 49.5q0 32 19.5 50t51.5 18t51.5 -18t19.5 -50q0 -31 -19.5 -49.5t-51.5 -18.5z" />
    <glyph glyph-name="Eogonek" unicode="&#x118;" vert-adv-y="1235" 
d="M81 0v730h350v-70h-269v-239h259v-70h-259v-281h269v-70h-350zM369 -218q-36 0 -62 10.5t-39.5 30t-13.5 47.5q0 40 27.5 78.5t79.5 72.5l70 -21q-49 -29 -76 -59.5t-27 -57.5q0 -13 6 -21t17 -11.5t24 -3.5q14 0 27 2t24 6v-66q-13 -4 -27 -5.5t-30 -1.5z" />
    <glyph glyph-name="eogonek" unicode="&#x119;" vert-adv-y="1235" 
d="M286 -10q-117 0 -174 61.5t-57 188.5v40q0 129 47.5 189.5t147.5 60.5q101 0 148 -60.5t47 -189.5v-54h-351v65h291l-18 -23v9q0 98 -27.5 141.5t-89.5 43.5t-89.5 -43.5t-27.5 -141.5v-34q0 -69 15 -109.5t50 -58t94 -17.5q29 0 59.5 4t65.5 13v-69q-30 -7 -64.5 -11.5
t-66.5 -4.5zM355 -212q-36 0 -62 10.5t-39.5 30t-13.5 47.5q0 40 27.5 78.5t79.5 72.5l70 -21q-49 -29 -76 -59.5t-27 -57.5q0 -13 6 -21t17 -11.5t24 -3.5q14 0 27 2t24 6v-66q-13 -4 -27 -5.5t-30 -1.5z" />
    <glyph glyph-name="Ecaron" unicode="&#x11a;" vert-adv-y="1235" 
d="M50 1000h96l102 -177h4l102 177h96l-133 -220h-134zM81 0v730h350v-70h-269v-239h259v-70h-259v-281h269v-70h-350z" />
    <glyph glyph-name="ecaron" unicode="&#x11b;" vert-adv-y="1235" 
d="M50 790h96l102 -177h4l102 177h96l-133 -220h-134zM286 -10q-117 0 -174 61.5t-57 188.5v40q0 129 47.5 189.5t147.5 60.5q101 0 148 -60.5t47 -189.5v-54h-351v65h291l-18 -23v9q0 98 -27.5 141.5t-89.5 43.5t-89.5 -43.5t-27.5 -141.5v-34q0 -69 15 -109.5t50 -58
t94 -17.5q29 0 59.5 4t65.5 13v-69q-30 -7 -64.5 -11.5t-66.5 -4.5z" />
    <glyph glyph-name="Gcircumflex" unicode="&#x11c;" vert-adv-y="1235" 
d="M302 -10q-265 0 -265 345v60q0 174 67.5 259.5t204.5 85.5q29 0 60 -3.5t59 -9.5v-74q-28 7 -57.5 11t-56.5 4q-102 0 -148.5 -66t-46.5 -212v-50q0 -139 44.5 -208.5t133.5 -69.5q23 0 49.5 5t51.5 15l-31 -38v308h-150v68h230v-410q-32 -10 -72 -15t-73 -5zM70 780
l133 220h134l133 -220h-96l-102 177h-4l-102 -177h-96z" />
    <glyph glyph-name="gcircumflex" unicode="&#x11d;" vert-adv-y="1235" 
d="M83 -150q137 0 202 45.5t65 142.5v442l20 -45q-29 14 -57 19.5t-59 5.5q-49 0 -77 -16t-39.5 -54.5t-11.5 -106.5q0 -74 12 -116.5t41 -60t80 -17.5q30 0 56.5 5.5t56.5 15.5l21 -70q-27 -9 -58 -14.5t-71 -5.5q-79 0 -126.5 26t-68.5 84t-21 154q0 91 20.5 145t68 77.5
t126.5 23.5q98 0 165 -32v-455q0 -133 -85.5 -198t-259.5 -65v70zM50 570l133 220h134l133 -220h-96l-102 177h-4l-102 -177h-96z" />
    <glyph glyph-name="Gbreve" unicode="&#x11e;" vert-adv-y="1235" 
d="M302 -10q-265 0 -265 345v60q0 174 67.5 259.5t204.5 85.5q29 0 60 -3.5t59 -9.5v-74q-28 7 -57.5 11t-56.5 4q-102 0 -148.5 -66t-46.5 -212v-50q0 -139 44.5 -208.5t133.5 -69.5q23 0 49.5 5t51.5 15l-31 -38v308h-150v68h230v-410q-32 -10 -72 -15t-73 -5zM270 784
q-84 0 -138.5 49t-61.5 131h84q8 -52 39 -82t77 -30q47 0 77.5 30t38.5 82h84q-7 -82 -61.5 -131t-138.5 -49z" />
    <glyph glyph-name="gbreve" unicode="&#x11f;" vert-adv-y="1235" 
d="M83 -150q137 0 202 45.5t65 142.5v442l20 -45q-29 14 -57 19.5t-59 5.5q-49 0 -77 -16t-39.5 -54.5t-11.5 -106.5q0 -74 12 -116.5t41 -60t80 -17.5q30 0 56.5 5.5t56.5 15.5l21 -70q-27 -9 -58 -14.5t-71 -5.5q-79 0 -126.5 26t-68.5 84t-21 154q0 91 20.5 145t68 77.5
t126.5 23.5q98 0 165 -32v-455q0 -133 -85.5 -198t-259.5 -65v70zM250 574q-84 0 -138.5 49t-61.5 131h84q8 -52 39 -82t77 -30q47 0 77.5 30t38.5 82h84q-7 -82 -61.5 -131t-138.5 -49z" />
    <glyph glyph-name="Gdotaccent" unicode="&#x120;" vert-adv-y="1235" 
d="M302 -10q-265 0 -265 345v60q0 174 67.5 259.5t204.5 85.5q29 0 60 -3.5t59 -9.5v-74q-28 7 -57.5 11t-56.5 4q-102 0 -148.5 -66t-46.5 -212v-50q0 -139 44.5 -208.5t133.5 -69.5q23 0 49.5 5t51.5 15l-31 -38v308h-150v68h230v-410q-32 -10 -72 -15t-73 -5zM270 792
q-32 0 -51.5 18.5t-19.5 49.5q0 32 19.5 50t51.5 18t51.5 -18t19.5 -50q0 -31 -19.5 -49.5t-51.5 -18.5z" />
    <glyph glyph-name="gdotaccent" unicode="&#x121;" vert-adv-y="1235" 
d="M83 -150q137 0 202 45.5t65 142.5v442l20 -45q-29 14 -57 19.5t-59 5.5q-49 0 -77 -16t-39.5 -54.5t-11.5 -106.5q0 -74 12 -116.5t41 -60t80 -17.5q30 0 56.5 5.5t56.5 15.5l21 -70q-27 -9 -58 -14.5t-71 -5.5q-79 0 -126.5 26t-68.5 84t-21 154q0 91 20.5 145t68 77.5
t126.5 23.5q98 0 165 -32v-455q0 -133 -85.5 -198t-259.5 -65v70zM250 582q-32 0 -51.5 18.5t-19.5 49.5q0 32 19.5 50t51.5 18t51.5 -18t19.5 -50q0 -31 -19.5 -49.5t-51.5 -18.5z" />
    <glyph glyph-name="uni0122" unicode="&#x122;" vert-adv-y="1235" 
d="M199 -270h-80l102 220h100zM302 -10q-265 0 -265 345v60q0 174 67.5 259.5t204.5 85.5q29 0 60 -3.5t59 -9.5v-74q-28 7 -57.5 11t-56.5 4q-102 0 -148.5 -66t-46.5 -212v-50q0 -139 44.5 -208.5t133.5 -69.5q23 0 49.5 5t51.5 15l-31 -38v308h-150v68h230v-410
q-32 -10 -72 -15t-73 -5z" />
    <glyph glyph-name="uni0123" unicode="&#x123;" vert-adv-y="1235" 
d="M326 790h80l-102 -220h-100zM83 -150q137 0 202 45.5t65 142.5v442l20 -45q-29 14 -57 19.5t-59 5.5q-49 0 -77 -16t-39.5 -54.5t-11.5 -106.5q0 -74 12 -116.5t41 -60t80 -17.5q30 0 56.5 5.5t56.5 15.5l21 -70q-27 -9 -58 -14.5t-71 -5.5q-79 0 -126.5 26t-68.5 84
t-21 154q0 91 20.5 145t68 77.5t126.5 23.5q98 0 165 -32v-455q0 -133 -85.5 -198t-259.5 -65v70z" />
    <glyph glyph-name="Hcircumflex" unicode="&#x124;" vert-adv-y="1235" 
d="M55 0v730h80v-308h230v308h80v-730h-80v350h-230v-350h-80zM50 780l133 220h134l133 -220h-96l-102 177h-4l-102 -177h-96z" />
    <glyph glyph-name="hcircumflex" unicode="&#x125;" vert-adv-y="1235" 
d="M359 336q0 49 -10 76t-34.5 37.5t-70.5 10.5q-23 0 -42.5 -2.5t-39 -9t-43.5 -18.5l-16 70q34 17 68.5 23.5t81.5 6.5q71 0 111 -17t56.5 -58.5t16.5 -114.5v-340h-78v336zM63 0v730h78v-730h-78zM20 780l133 220h134l133 -220h-96l-102 177h-4l-102 -177h-96z" />
    <glyph glyph-name="Hbar" unicode="&#x126;" 
d="M5 561v70h490v-70h-490zM55 0v730h80v-308h230v308h80v-730h-80v350h-230v-350h-80z" />
    <glyph glyph-name="hbar" unicode="&#x127;" vert-adv-y="1235" 
d="M5 589v66h410v-66h-410zM359 336q0 49 -10 76t-34.5 37.5t-70.5 10.5q-23 0 -42.5 -2.5t-39 -9t-43.5 -18.5l-16 70q34 17 68.5 23.5t81.5 6.5q71 0 111 -17t56.5 -58.5t16.5 -114.5v-340h-78v336zM63 0v730h78v-730h-78z" />
    <glyph glyph-name="Itilde" unicode="&#x128;" vert-adv-y="1235" 
d="M75 0v70h134v590h-134v70h350v-70h-134v-590h134v-70h-350zM334 783q-28 0 -54 16t-63 53q-19 20 -29.5 27.5t-18.5 7.5q-15 0 -23 -24t-8 -70h-78q0 80 28 125t78 45q28 0 54 -15.5t63 -53.5q19 -19 29.5 -27t18.5 -8q15 0 23 24t8 70h78q0 -80 -28 -125t-78 -45z" />
    <glyph glyph-name="itilde" unicode="&#x129;" vert-adv-y="1235" 
d="M260 0v450h-180v70h260v-520h-80zM384 573q-28 0 -54 16t-63 53q-19 20 -29.5 27.5t-18.5 7.5q-15 0 -23 -24t-8 -70h-78q0 80 28 125t78 45q28 0 54 -15.5t63 -53.5q19 -19 29.5 -27t18.5 -8q15 0 23 24t8 70h78q0 -80 -28 -125t-78 -45z" />
    <glyph glyph-name="Imacron" unicode="&#x12a;" vert-adv-y="1235" 
d="M75 0v70h134v590h-134v70h350v-70h-134v-590h134v-70h-350zM75 798v64h350v-64h-350z" />
    <glyph glyph-name="imacron" unicode="&#x12b;" vert-adv-y="1235" 
d="M260 0v450h-180v70h260v-520h-80zM125 588v64h350v-64h-350z" />
    <glyph glyph-name="Ibreve" unicode="&#x12c;" vert-adv-y="1235" 
d="M75 0v70h134v590h-134v70h350v-70h-134v-590h134v-70h-350zM250 784q-84 0 -138.5 49t-61.5 131h84q8 -52 39 -82t77 -30q47 0 77.5 30t38.5 82h84q-7 -82 -61.5 -131t-138.5 -49z" />
    <glyph glyph-name="ibreve" unicode="&#x12d;" vert-adv-y="1235" 
d="M260 0v450h-180v70h260v-520h-80zM300 574q-84 0 -138.5 49t-61.5 131h84q8 -52 39 -82t77 -30q47 0 77.5 30t38.5 82h84q-7 -82 -61.5 -131t-138.5 -49z" />
    <glyph glyph-name="Iogonek" unicode="&#x12e;" vert-adv-y="1235" 
d="M75 0v70h134v590h-134v70h350v-70h-134v-590h134v-70h-350zM363 -218q-36 0 -62 10.5t-39.5 30t-13.5 47.5q0 40 27.5 78.5t79.5 72.5l70 -21q-49 -29 -76 -59.5t-27 -57.5q0 -13 6 -21t17 -11.5t24 -3.5q14 0 27 2t24 6v-66q-13 -4 -27 -5.5t-30 -1.5z" />
    <glyph glyph-name="iogonek" unicode="&#x12f;" vert-adv-y="1235" 
d="M260 0v450h-180v70h260v-520h-80zM300 582q-32 0 -51.5 18.5t-19.5 49.5q0 32 19.5 50t51.5 18t51.5 -18t19.5 -50q0 -31 -19.5 -49.5t-51.5 -18.5zM278 -218q-36 0 -62 10.5t-39.5 30t-13.5 47.5q0 40 27.5 78.5t79.5 72.5l70 -21q-49 -29 -76 -59.5t-27 -57.5
q0 -13 6 -21t17 -11.5t24 -3.5q14 0 27 2t24 6v-66q-13 -4 -27 -5.5t-30 -1.5z" />
    <glyph glyph-name="Idotaccent" unicode="&#x130;" vert-adv-y="1235" 
d="M75 0v70h134v590h-134v70h350v-70h-134v-590h134v-70h-350zM250 792q-32 0 -51.5 18.5t-19.5 49.5q0 32 19.5 50t51.5 18t51.5 -18t19.5 -50q0 -31 -19.5 -49.5t-51.5 -18.5z" />
    <glyph glyph-name="dotlessi" unicode="&#x131;" 
d="M260 0v450h-180v70h260v-520h-80z" />
    <glyph glyph-name="Jcircumflex" unicode="&#x134;" vert-adv-y="1235" 
d="M192 -10q-43 0 -79 7.5t-68 21.5v75q31 -15 65.5 -23.5t71.5 -8.5q70 0 100.5 33t30.5 107v458h-228v70h310v-535q0 -107 -48 -156t-155 -49zM35 780l133 220h134l133 -220h-96l-102 177h-4l-102 -177h-96z" />
    <glyph glyph-name="jcircumflex" unicode="&#x135;" vert-adv-y="1235" 
d="M80 -150q93 0 136.5 45t43.5 142v413h-180v70h260v-477q0 -133 -64.5 -198t-195.5 -65v70zM100 570l133 220h134l133 -220h-96l-102 177h-4l-102 -177h-96z" />
    <glyph glyph-name="uni0136" unicode="&#x136;" vert-adv-y="1235" 
d="M164 -270h-80l102 220h100zM75 0v730h80v-316h4l225 316h91l-245 -344l245 -386h-90l-226 358h-4v-358h-80z" />
    <glyph glyph-name="uni0137" unicode="&#x137;" vert-adv-y="1235" 
d="M149 -270h-80l102 220h100zM68 0v730h78v-433h4l225 223h96l-248 -250l255 -270h-96l-232 242h-4v-242h-78z" />
    <glyph glyph-name="kgreenlandic" unicode="&#x138;" 
d="M68 0v520h78v-223h4l225 223h96l-248 -250l255 -270h-96l-232 242h-4v-242h-78z" />
    <glyph glyph-name="Lacute" unicode="&#x139;" vert-adv-y="1235" 
d="M80 0v730h82v-658h288v-72h-370zM293 780h-80l102 220h100z" />
    <glyph glyph-name="lacute" unicode="&#x13a;" vert-adv-y="1235" 
d="M353 -10q-82 0 -117.5 36t-35.5 121v513h-160v70h240v-566q0 -59 19.5 -81.5t71.5 -22.5q26 0 47.5 4.5t41.5 12.5v-70q-26 -9 -52.5 -13t-54.5 -4zM283 780h-80l102 220h100z" />
    <glyph glyph-name="uni013B" unicode="&#x13b;" vert-adv-y="1235" 
d="M179 -270h-80l102 220h100zM80 0v730h82v-658h288v-72h-370z" />
    <glyph glyph-name="uni013C" unicode="&#x13c;" vert-adv-y="1235" 
d="M194 -270h-80l102 220h100zM353 -10q-82 0 -117.5 36t-35.5 121v513h-160v70h240v-566q0 -59 19.5 -81.5t71.5 -22.5q26 0 47.5 4.5t41.5 12.5v-70q-26 -9 -52.5 -13t-54.5 -4z" />
    <glyph glyph-name="Lcaron" unicode="&#x13d;" vert-adv-y="1235" 
d="M80 0v730h82v-658h288v-72h-370zM363 510h-80l102 220h100z" />
    <glyph glyph-name="lcaron" unicode="&#x13e;" vert-adv-y="1235" 
d="M333 -10q-82 0 -117.5 36t-35.5 121v513h-160v70h240v-566q0 -59 19.5 -81.5t71.5 -22.5q26 0 47.5 4.5t41.5 12.5v-70q-26 -9 -52.5 -13t-54.5 -4zM398 510h-80l102 220h100z" />
    <glyph glyph-name="Ldot" unicode="&#x13f;" vert-adv-y="1235" 
d="M70 0v730h82v-658h288v-72h-370zM340 309q-35 0 -56.5 21t-21.5 55q0 35 21.5 55.5t56.5 20.5t56.5 -20.5t21.5 -55.5q0 -34 -21.5 -55t-56.5 -21z" />
    <glyph glyph-name="ldot" unicode="&#x140;" vert-adv-y="1235" 
d="M328 -10q-82 0 -117.5 36t-35.5 121v513h-160v70h240v-566q0 -59 19.5 -81.5t71.5 -22.5q26 0 47.5 4.5t41.5 12.5v-70q-26 -9 -52.5 -13t-54.5 -4zM380 309q-35 0 -56.5 21t-21.5 55q0 35 21.5 55.5t56.5 20.5t56.5 -20.5t21.5 -55.5q0 -34 -21.5 -55t-56.5 -21z" />
    <glyph glyph-name="Lslash" unicode="&#x141;" vert-adv-y="1235" 
d="M10 273v76l340 150v-76zM100 0v730h82v-658h288v-72h-370z" />
    <glyph glyph-name="lslash" unicode="&#x142;" vert-adv-y="1235" 
d="M70 272v77l340 149v-77zM353 -10q-82 0 -117.5 36t-35.5 121v513h-160v70h240v-566q0 -59 19.5 -81.5t71.5 -22.5q26 0 47.5 4.5t41.5 12.5v-70q-26 -9 -52.5 -13t-54.5 -4z" />
    <glyph glyph-name="Nacute" unicode="&#x143;" vert-adv-y="1235" 
d="M55 0v730h130l176 -630h4v630h80v-730h-130l-176 630h-4v-630h-80zM293 780h-80l102 220h100z" />
    <glyph glyph-name="nacute" unicode="&#x144;" vert-adv-y="1235" 
d="M63 498q38 17 81 24.5t97 7.5q76 0 118.5 -17t60 -58.5t17.5 -114.5v-340h-78v336q0 49 -10 76t-35.5 37.5t-71.5 10.5q-23 0 -43 -3t-40 -9.5t-44 -19.5l26 50v-478h-78v498zM293 570h-80l102 220h100z" />
    <glyph glyph-name="uni0145" unicode="&#x145;" vert-adv-y="1235" 
d="M179 -270h-80l102 220h100zM55 0v730h130l176 -630h4v630h80v-730h-130l-176 630h-4v-630h-80z" />
    <glyph glyph-name="uni0146" unicode="&#x146;" vert-adv-y="1235" 
d="M179 -270h-80l102 220h100zM63 498q38 17 81 24.5t97 7.5q76 0 118.5 -17t60 -58.5t17.5 -114.5v-340h-78v336q0 49 -10 76t-35.5 37.5t-71.5 10.5q-23 0 -43 -3t-40 -9.5t-44 -19.5l26 50v-478h-78v498z" />
    <glyph glyph-name="Ncaron" unicode="&#x147;" vert-adv-y="1235" 
d="M50 1000h96l102 -177h4l102 177h96l-133 -220h-134zM55 0v730h130l176 -630h4v630h80v-730h-130l-176 630h-4v-630h-80z" />
    <glyph glyph-name="ncaron" unicode="&#x148;" vert-adv-y="1235" 
d="M50 790h96l102 -177h4l102 177h96l-133 -220h-134zM63 498q38 17 81 24.5t97 7.5q76 0 118.5 -17t60 -58.5t17.5 -114.5v-340h-78v336q0 49 -10 76t-35.5 37.5t-71.5 10.5q-23 0 -43 -3t-40 -9.5t-44 -19.5l26 50v-478h-78v498z" />
    <glyph glyph-name="Eng" unicode="&#x14a;" 
d="M286 -218q-26 0 -49 3.5t-46 9.5v69q19 -6 39.5 -9.5t40.5 -3.5q51 0 72.5 25.5t21.5 84.5v92l28 -123l-254 640h-4v-570h-80v730h101l205 -516h4v516h80v-769q0 -95 -37.5 -137t-121.5 -42z" />
    <glyph glyph-name="eng" unicode="&#x14b;" 
d="M271 -218q-22 0 -45 3t-45 9v71q18 -6 37 -9.5t38 -3.5q53 0 77 26t24 85v373q0 49 -10 76t-35 37.5t-70 10.5q-23 0 -42.5 -3t-39 -9.5t-43.5 -19.5l26 50v-478h-78v498q38 17 80.5 24.5t95.5 7.5q75 0 117 -17t59.5 -58.5t17.5 -114.5v-377q0 -94 -39 -137.5
t-125 -43.5z" />
    <glyph glyph-name="Omacron" unicode="&#x14c;" vert-adv-y="1235" 
d="M250 -10q-77 0 -123 33.5t-66.5 109.5t-20.5 202v60q0 127 20.5 202.5t66.5 109t123 33.5t123 -33.5t66.5 -109t20.5 -202.5v-60q0 -126 -20.5 -202t-66.5 -109.5t-123 -33.5zM250 62q50 0 77.5 24.5t39 85t11.5 168.5v50q0 108 -11.5 168.5t-39 85t-77.5 24.5
q-49 0 -77 -24.5t-39.5 -85t-11.5 -168.5v-50q0 -108 11.5 -168.5t39.5 -85t77 -24.5zM75 798v64h350v-64h-350z" />
    <glyph glyph-name="omacron" unicode="&#x14d;" vert-adv-y="1235" 
d="M250 -10q-103 0 -151.5 60.5t-48.5 189.5v40q0 129 48.5 189.5t151.5 60.5q104 0 152 -60.5t48 -189.5v-40q0 -129 -48 -189.5t-152 -60.5zM250 60q65 0 92.5 43t27.5 142v30q0 99 -27.5 142t-92.5 43q-64 0 -92 -43t-28 -142v-30q0 -99 28 -142t92 -43zM75 588v64h350
v-64h-350z" />
    <glyph glyph-name="Obreve" unicode="&#x14e;" vert-adv-y="1235" 
d="M250 -10q-77 0 -123 33.5t-66.5 109.5t-20.5 202v60q0 127 20.5 202.5t66.5 109t123 33.5t123 -33.5t66.5 -109t20.5 -202.5v-60q0 -126 -20.5 -202t-66.5 -109.5t-123 -33.5zM250 62q50 0 77.5 24.5t39 85t11.5 168.5v50q0 108 -11.5 168.5t-39 85t-77.5 24.5
q-49 0 -77 -24.5t-39.5 -85t-11.5 -168.5v-50q0 -108 11.5 -168.5t39.5 -85t77 -24.5zM250 784q-84 0 -138.5 49t-61.5 131h84q8 -52 39 -82t77 -30q47 0 77.5 30t38.5 82h84q-7 -82 -61.5 -131t-138.5 -49z" />
    <glyph glyph-name="obreve" unicode="&#x14f;" vert-adv-y="1235" 
d="M250 -10q-103 0 -151.5 60.5t-48.5 189.5v40q0 129 48.5 189.5t151.5 60.5q104 0 152 -60.5t48 -189.5v-40q0 -129 -48 -189.5t-152 -60.5zM250 60q65 0 92.5 43t27.5 142v30q0 99 -27.5 142t-92.5 43q-64 0 -92 -43t-28 -142v-30q0 -99 28 -142t92 -43zM250 574
q-84 0 -138.5 49t-61.5 131h84q8 -52 39 -82t77 -30q47 0 77.5 30t38.5 82h84q-7 -82 -61.5 -131t-138.5 -49z" />
    <glyph glyph-name="Ohungarumlaut" unicode="&#x150;" vert-adv-y="1235" 
d="M393 780h-76l97 220h96zM194 780h-76l97 220h96zM250 -10q-77 0 -123 33.5t-66.5 109.5t-20.5 202v60q0 127 20.5 202.5t66.5 109t123 33.5t123 -33.5t66.5 -109t20.5 -202.5v-60q0 -126 -20.5 -202t-66.5 -109.5t-123 -33.5zM250 62q50 0 77.5 24.5t39 85t11.5 168.5v50
q0 108 -11.5 168.5t-39 85t-77.5 24.5q-49 0 -77 -24.5t-39.5 -85t-11.5 -168.5v-50q0 -108 11.5 -168.5t39.5 -85t77 -24.5z" />
    <glyph glyph-name="ohungarumlaut" unicode="&#x151;" vert-adv-y="1235" 
d="M393 570h-76l97 220h96zM194 570h-76l97 220h96zM250 -10q-103 0 -151.5 60.5t-48.5 189.5v40q0 129 48.5 189.5t151.5 60.5q104 0 152 -60.5t48 -189.5v-40q0 -129 -48 -189.5t-152 -60.5zM250 60q65 0 92.5 43t27.5 142v30q0 99 -27.5 142t-92.5 43q-64 0 -92 -43
t-28 -142v-30q0 -99 28 -142t92 -43z" />
    <glyph glyph-name="OE" unicode="&#x152;" 
d="M185 -10q-62 0 -99.5 33.5t-54 109.5t-16.5 202v60q0 127 16.5 202.5t54 109t99.5 33.5q44 0 68.5 -16.5t41.5 -57.5l-50 -24q-12 14 -23.5 20t-27.5 6q-28 0 -46.5 -13.5t-29.5 -45.5t-16 -85.5t-5 -133.5v-50q0 -80 5 -133.5t16 -85.5t29.5 -45.5t46.5 -13.5
q18 0 29.5 6t21.5 20l50 -24q-17 -40 -41.5 -57t-68.5 -17zM241 0v730h244v-70h-164v-239h156v-70h-156v-281h164v-70h-244z" />
    <glyph glyph-name="oe" unicode="&#x153;" 
d="M151 -10q-73 0 -104.5 57.5t-31.5 192.5v40q0 135 31.5 192.5t104.5 57.5q41 0 66 -16.5t39 -53.5h4q14 37 37.5 53.5t59.5 16.5q45 0 73 -25.5t41 -80.5t13 -144v-54h-216v65h162l-11 -23v9q0 69 -6.5 109.5t-20.5 58t-39 17.5q-24 0 -38.5 -17.5t-21 -58t-6.5 -109.5
v-34q0 -73 8.5 -113t30 -56t60.5 -16q21 0 40.5 4t40.5 13v-69q-20 -7 -43 -11.5t-44 -4.5q-42 0 -71 18.5t-46 58.5h-4q-14 -40 -40 -58.5t-68 -18.5zM151 62q26 0 40.5 16t20 56t5.5 111v30q0 72 -5.5 111.5t-20 55.5t-40.5 16t-40.5 -16t-20 -55.5t-5.5 -111.5v-30
q0 -71 5.5 -111t20 -56t40.5 -16z" />
    <glyph glyph-name="Racute" unicode="&#x154;" vert-adv-y="1235" 
d="M70 728q44 7 76.5 9.5t62.5 2.5q91 0 146 -22.5t80 -72t25 -130.5t-25 -130.5t-80 -72t-146 -22.5q-27 0 -52.5 2t-53.5 6l26 70q26 -4 47 -6t40 -2q60 0 95.5 15t51.5 49t16 90q0 57 -16 90.5t-51.5 48.5t-95.5 15q-20 0 -41.5 -1.5t-48.5 -6.5l24 28v-688h-80v728z
M376 0l-250 328h92l252 -328h-94zM283 780h-80l102 220h100z" />
    <glyph glyph-name="racute" unicode="&#x155;" vert-adv-y="1235" 
d="M126 475q49 17 105.5 29t112 19t102.5 7v-70q-41 0 -87 -5.5t-91 -15.5t-82 -24l20 38v-453h-80v475zM323 570h-80l102 220h100z" />
    <glyph glyph-name="uni0156" unicode="&#x156;" vert-adv-y="1235" 
d="M169 -270h-80l102 220h100zM70 728q44 7 76.5 9.5t62.5 2.5q91 0 146 -22.5t80 -72t25 -130.5t-25 -130.5t-80 -72t-146 -22.5q-27 0 -52.5 2t-53.5 6l26 70q26 -4 47 -6t40 -2q60 0 95.5 15t51.5 49t16 90q0 57 -16 90.5t-51.5 48.5t-95.5 15q-20 0 -41.5 -1.5
t-48.5 -6.5l24 28v-688h-80v728zM376 0l-250 328h92l252 -328h-94z" />
    <glyph glyph-name="uni0157" unicode="&#x157;" vert-adv-y="1235" 
d="M95 -270h-80l102 220h100zM126 475q49 17 105.5 29t112 19t102.5 7v-70q-41 0 -87 -5.5t-91 -15.5t-82 -24l20 38v-453h-80v475z" />
    <glyph glyph-name="Rcaron" unicode="&#x158;" vert-adv-y="1235" 
d="M40 1000h96l102 -177h4l102 177h96l-133 -220h-134zM70 728q44 7 76.5 9.5t62.5 2.5q91 0 146 -22.5t80 -72t25 -130.5t-25 -130.5t-80 -72t-146 -22.5q-27 0 -52.5 2t-53.5 6l26 70q26 -4 47 -6t40 -2q60 0 95.5 15t51.5 49t16 90q0 57 -16 90.5t-51.5 48.5t-95.5 15
q-20 0 -41.5 -1.5t-48.5 -6.5l24 28v-688h-80v728zM376 0l-250 328h92l252 -328h-94z" />
    <glyph glyph-name="rcaron" unicode="&#x159;" vert-adv-y="1235" 
d="M80 790h96l102 -177h4l102 177h96l-133 -220h-134zM126 475q49 17 105.5 29t112 19t102.5 7v-70q-41 0 -87 -5.5t-91 -15.5t-82 -24l20 38v-453h-80v475z" />
    <glyph glyph-name="Sacute" unicode="&#x15a;" vert-adv-y="1235" 
d="M224 -10q-39 0 -77.5 6.5t-76.5 19.5v77q37 -15 73 -23t74 -8q68 0 105.5 28t37.5 89q0 32 -12.5 57.5t-42 49.5t-82.5 53q-65 37 -102.5 69t-53 68.5t-15.5 83.5q0 93 54.5 136.5t171.5 43.5q35 0 70.5 -4t74.5 -13v-213h-80v182l32 -36q-27 6 -50.5 9t-48.5 3
q-72 0 -107 -26.5t-35 -82.5q0 -31 12.5 -56.5t43 -50t82.5 -53.5q64 -36 101 -68.5t53 -69t16 -84.5q0 -94 -54.5 -140.5t-163.5 -46.5zM293 780h-80l102 220h100z" />
    <glyph glyph-name="sacute" unicode="&#x15b;" vert-adv-y="1235" 
d="M232 -10q-43 0 -80.5 6.5t-74.5 20.5v71q39 -14 76.5 -21t75.5 -7q64 0 95 19t31 58q0 20 -12.5 36t-39 31t-70.5 30q-61 20 -98 42.5t-53.5 51.5t-16.5 68q0 69 48.5 101.5t151.5 32.5q35 0 70 -4.5t85 -17.5v-153h-78v140l36 -48q-37 8 -61 10.5t-47 2.5
q-63 0 -94 -16.5t-31 -50.5q0 -19 12 -35.5t39 -31.5t73 -31q61 -21 97.5 -43.5t52.5 -51t16 -67.5q0 -72 -50.5 -107.5t-152.5 -35.5zM293 570h-80l102 220h100z" />
    <glyph glyph-name="Scircumflex" unicode="&#x15c;" vert-adv-y="1235" 
d="M224 -10q-39 0 -77.5 6.5t-76.5 19.5v77q37 -15 73 -23t74 -8q68 0 105.5 28t37.5 89q0 32 -12.5 57.5t-42 49.5t-82.5 53q-65 37 -102.5 69t-53 68.5t-15.5 83.5q0 93 54.5 136.5t171.5 43.5q35 0 70.5 -4t74.5 -13v-213h-80v182l32 -36q-27 6 -50.5 9t-48.5 3
q-72 0 -107 -26.5t-35 -82.5q0 -31 12.5 -56.5t43 -50t82.5 -53.5q64 -36 101 -68.5t53 -69t16 -84.5q0 -94 -54.5 -140.5t-163.5 -46.5zM50 780l133 220h134l133 -220h-96l-102 177h-4l-102 -177h-96z" />
    <glyph glyph-name="scircumflex" unicode="&#x15d;" vert-adv-y="1235" 
d="M232 -10q-43 0 -80.5 6.5t-74.5 20.5v71q39 -14 76.5 -21t75.5 -7q64 0 95 19t31 58q0 20 -12.5 36t-39 31t-70.5 30q-61 20 -98 42.5t-53.5 51.5t-16.5 68q0 69 48.5 101.5t151.5 32.5q35 0 70 -4.5t85 -17.5v-153h-78v140l36 -48q-37 8 -61 10.5t-47 2.5
q-63 0 -94 -16.5t-31 -50.5q0 -19 12 -35.5t39 -31.5t73 -31q61 -21 97.5 -43.5t52.5 -51t16 -67.5q0 -72 -50.5 -107.5t-152.5 -35.5zM50 570l133 220h134l133 -220h-96l-102 177h-4l-102 -177h-96z" />
    <glyph glyph-name="Scedilla" unicode="&#x15e;" vert-adv-y="1235" 
d="M224 -10q-39 0 -77.5 6.5t-76.5 19.5v77q37 -15 73 -23t74 -8q68 0 105.5 28t37.5 89q0 32 -12.5 57.5t-42 49.5t-82.5 53q-65 37 -102.5 69t-53 68.5t-15.5 83.5q0 93 54.5 136.5t171.5 43.5q35 0 70.5 -4t74.5 -13v-213h-80v182l32 -36q-27 6 -50.5 9t-48.5 3
q-72 0 -107 -26.5t-35 -82.5q0 -31 12.5 -56.5t43 -50t82.5 -53.5q64 -36 101 -68.5t53 -69t16 -84.5q0 -94 -54.5 -140.5t-163.5 -46.5zM233 -218q-16 0 -30 1.5t-27 5.5v66q11 -4 24 -6t27 -2t24.5 3.5t16.5 11.5t6 21q0 27 -26.5 57.5t-76.5 59.5l70 21q52 -34 79.5 -72
t27.5 -79q0 -28 -13.5 -47.5t-39 -30t-62.5 -10.5z" />
    <glyph glyph-name="scedilla" unicode="&#x15f;" vert-adv-y="1235" 
d="M232 -10q-43 0 -80.5 6.5t-74.5 20.5v71q39 -14 76.5 -21t75.5 -7q64 0 95 19t31 58q0 20 -12.5 36t-39 31t-70.5 30q-61 20 -98 42.5t-53.5 51.5t-16.5 68q0 69 48.5 101.5t151.5 32.5q35 0 70 -4.5t85 -17.5v-153h-78v140l36 -48q-37 8 -61 10.5t-47 2.5
q-63 0 -94 -16.5t-31 -50.5q0 -19 12 -35.5t39 -31.5t73 -31q61 -21 97.5 -43.5t52.5 -51t16 -67.5q0 -72 -50.5 -107.5t-152.5 -35.5zM238 -218q-16 0 -30 1.5t-27 5.5v66q11 -4 24 -6t27 -2t24.5 3.5t16.5 11.5t6 21q0 27 -26.5 57.5t-76.5 59.5l70 21q52 -34 79.5 -72
t27.5 -79q0 -28 -13.5 -47.5t-39 -30t-62.5 -10.5z" />
    <glyph glyph-name="Scaron" unicode="&#x160;" vert-adv-y="1235" 
d="M50 1000h96l102 -177h4l102 177h96l-133 -220h-134zM224 -10q-39 0 -77.5 6.5t-76.5 19.5v77q37 -15 73 -23t74 -8q68 0 105.5 28t37.5 89q0 32 -12.5 57.5t-42 49.5t-82.5 53q-65 37 -102.5 69t-53 68.5t-15.5 83.5q0 93 54.5 136.5t171.5 43.5q35 0 70.5 -4t74.5 -13
v-213h-80v182l32 -36q-27 6 -50.5 9t-48.5 3q-72 0 -107 -26.5t-35 -82.5q0 -31 12.5 -56.5t43 -50t82.5 -53.5q64 -36 101 -68.5t53 -69t16 -84.5q0 -94 -54.5 -140.5t-163.5 -46.5z" />
    <glyph glyph-name="scaron" unicode="&#x161;" vert-adv-y="1235" 
d="M50 790h96l102 -177h4l102 177h96l-133 -220h-134zM232 -10q-43 0 -80.5 6.5t-74.5 20.5v71q39 -14 76.5 -21t75.5 -7q64 0 95 19t31 58q0 20 -12.5 36t-39 31t-70.5 30q-61 20 -98 42.5t-53.5 51.5t-16.5 68q0 69 48.5 101.5t151.5 32.5q35 0 70 -4.5t85 -17.5v-153h-78
v140l36 -48q-37 8 -61 10.5t-47 2.5q-63 0 -94 -16.5t-31 -50.5q0 -19 12 -35.5t39 -31.5t73 -31q61 -21 97.5 -43.5t52.5 -51t16 -67.5q0 -72 -50.5 -107.5t-152.5 -35.5z" />
    <glyph glyph-name="uni0162" unicode="&#x162;" vert-adv-y="1235" 
d="M209 0v658h-169v72h420v-72h-169v-658h-82zM271 -218q-16 0 -30 1.5t-27 5.5v66q11 -4 24 -6t27 -2t24.5 3.5t16.5 11.5t6 21q0 27 -26.5 57.5t-76.5 59.5l70 21q52 -34 79.5 -72t27.5 -79q0 -28 -13.5 -47.5t-39 -30t-62.5 -10.5z" />
    <glyph glyph-name="uni0163" unicode="&#x163;" vert-adv-y="1235" 
d="M284 -218q-16 0 -30 1.5t-27 5.5v66q11 -4 24 -6t27 -2t24.5 3.5t16.5 11.5t6 21q0 29 -26.5 61.5t-76.5 63.5l70 21q52 -35 79.5 -76t27.5 -83q0 -28 -13.5 -47.5t-39 -30t-62.5 -10.5zM322 -10q-88 0 -126.5 36t-38.5 121v303h-130v70h130v170h80v-170h200v-70h-200
v-286q0 -59 21.5 -81.5t79.5 -22.5q28 0 52.5 4.5t46.5 12.5v-70q-28 -9 -56.5 -13t-58.5 -4z" />
    <glyph glyph-name="Tcaron" unicode="&#x164;" vert-adv-y="1235" 
d="M50 1000h96l102 -177h4l102 177h96l-133 -220h-134zM209 0v658h-169v72h420v-72h-169v-658h-82z" />
    <glyph glyph-name="tcaron" unicode="&#x165;" vert-adv-y="1235" 
d="M322 -10q-88 0 -126.5 36t-38.5 121v303h-130v70h130v170h80v-170h200v-70h-200v-286q0 -59 21.5 -81.5t79.5 -22.5q28 0 52.5 4.5t46.5 12.5v-70q-28 -9 -56.5 -13t-58.5 -4zM393 570h-80l102 220h100z" />
    <glyph glyph-name="Tbar" unicode="&#x166;" 
d="M60 351v70h380v-70h-380zM209 0v658h-169v72h420v-72h-169v-658h-82z" />
    <glyph glyph-name="tbar" unicode="&#x167;" 
d="M27 235v70h410v-70h-410zM322 -10q-88 0 -126.5 36t-38.5 121v303h-130v70h130v170h80v-170h200v-70h-200v-286q0 -59 21.5 -81.5t79.5 -22.5q28 0 52.5 4.5t46.5 12.5v-70q-28 -9 -56.5 -13t-58.5 -4z" />
    <glyph glyph-name="Utilde" unicode="&#x168;" vert-adv-y="1235" 
d="M250 -10q-100 0 -147.5 49.5t-47.5 155.5v535h80v-527q0 -75 27 -108t88 -33q62 0 88.5 33t26.5 108v527h80v-535q0 -106 -47 -155.5t-148 -49.5zM334 783q-28 0 -54 16t-63 53q-19 20 -29.5 27.5t-18.5 7.5q-15 0 -23 -24t-8 -70h-78q0 80 28 125t78 45q28 0 54 -15.5
t63 -53.5q19 -19 29.5 -27t18.5 -8q15 0 23 24t8 70h78q0 -80 -28 -125t-78 -45z" />
    <glyph glyph-name="utilde" unicode="&#x169;" vert-adv-y="1235" 
d="M259 -10q-74 0 -116.5 17t-60 58.5t-17.5 114.5v340h78v-336q0 -48 10 -75t35.5 -38t71.5 -11q24 0 43.5 3t39 10t42.5 19l-28 -50v478h78v-498q-37 -16 -80 -24t-96 -8zM334 573q-28 0 -54 16t-63 53q-19 20 -29.5 27.5t-18.5 7.5q-15 0 -23 -24t-8 -70h-78q0 80 28 125
t78 45q28 0 54 -15.5t63 -53.5q19 -19 29.5 -27t18.5 -8q15 0 23 24t8 70h78q0 -80 -28 -125t-78 -45z" />
    <glyph glyph-name="Umacron" unicode="&#x16a;" vert-adv-y="1235" 
d="M250 -10q-100 0 -147.5 49.5t-47.5 155.5v535h80v-527q0 -75 27 -108t88 -33q62 0 88.5 33t26.5 108v527h80v-535q0 -106 -47 -155.5t-148 -49.5zM75 798v64h350v-64h-350z" />
    <glyph glyph-name="umacron" unicode="&#x16b;" vert-adv-y="1235" 
d="M259 -10q-74 0 -116.5 17t-60 58.5t-17.5 114.5v340h78v-336q0 -48 10 -75t35.5 -38t71.5 -11q24 0 43.5 3t39 10t42.5 19l-28 -50v478h78v-498q-37 -16 -80 -24t-96 -8zM75 588v64h350v-64h-350z" />
    <glyph glyph-name="Ubreve" unicode="&#x16c;" vert-adv-y="1235" 
d="M250 -10q-100 0 -147.5 49.5t-47.5 155.5v535h80v-527q0 -75 27 -108t88 -33q62 0 88.5 33t26.5 108v527h80v-535q0 -106 -47 -155.5t-148 -49.5zM250 784q-84 0 -138.5 49t-61.5 131h84q8 -52 39 -82t77 -30q47 0 77.5 30t38.5 82h84q-7 -82 -61.5 -131t-138.5 -49z" />
    <glyph glyph-name="ubreve" unicode="&#x16d;" vert-adv-y="1235" 
d="M259 -10q-74 0 -116.5 17t-60 58.5t-17.5 114.5v340h78v-336q0 -48 10 -75t35.5 -38t71.5 -11q24 0 43.5 3t39 10t42.5 19l-28 -50v478h78v-498q-37 -16 -80 -24t-96 -8zM250 574q-84 0 -138.5 49t-61.5 131h84q8 -52 39 -82t77 -30q47 0 77.5 30t38.5 82h84
q-7 -82 -61.5 -131t-138.5 -49z" />
    <glyph glyph-name="Uring" unicode="&#x16e;" vert-adv-y="1235" 
d="M250 -10q-100 0 -147.5 49.5t-47.5 155.5v535h80v-527q0 -75 27 -108t88 -33q62 0 88.5 33t26.5 108v527h80v-535q0 -106 -47 -155.5t-148 -49.5zM250 784q-39 0 -71.5 19t-51.5 51.5t-19 71.5q0 40 19 72t51.5 51t71.5 19q40 0 72 -19t51 -51t19 -72q0 -39 -19 -71.5
t-51 -51.5t-72 -19zM250 844q35 0 58.5 24t23.5 58q0 35 -23.5 58.5t-58.5 23.5q-34 0 -58 -23.5t-24 -58.5q0 -34 24 -58t58 -24z" />
    <glyph glyph-name="uring" unicode="&#x16f;" vert-adv-y="1235" 
d="M259 -10q-74 0 -116.5 17t-60 58.5t-17.5 114.5v340h78v-336q0 -48 10 -75t35.5 -38t71.5 -11q24 0 43.5 3t39 10t42.5 19l-28 -50v478h78v-498q-37 -16 -80 -24t-96 -8zM250 574q-39 0 -71.5 19t-51.5 51.5t-19 71.5q0 40 19 72t51.5 51t71.5 19q40 0 72 -19t51 -51
t19 -72q0 -39 -19 -71.5t-51 -51.5t-72 -19zM250 634q35 0 58.5 24t23.5 58q0 35 -23.5 58.5t-58.5 23.5q-34 0 -58 -23.5t-24 -58.5q0 -34 24 -58t58 -24z" />
    <glyph glyph-name="Uhungarumlaut" unicode="&#x170;" vert-adv-y="1235" 
d="M393 780h-76l97 220h96zM194 780h-76l97 220h96zM250 -10q-100 0 -147.5 49.5t-47.5 155.5v535h80v-527q0 -75 27 -108t88 -33q62 0 88.5 33t26.5 108v527h80v-535q0 -106 -47 -155.5t-148 -49.5z" />
    <glyph glyph-name="uhungarumlaut" unicode="&#x171;" vert-adv-y="1235" 
d="M393 570h-76l97 220h96zM194 570h-76l97 220h96zM259 -10q-74 0 -116.5 17t-60 58.5t-17.5 114.5v340h78v-336q0 -48 10 -75t35.5 -38t71.5 -11q24 0 43.5 3t39 10t42.5 19l-28 -50v478h78v-498q-37 -16 -80 -24t-96 -8z" />
    <glyph glyph-name="Uogonek" unicode="&#x172;" vert-adv-y="1235" 
d="M267 -218q-36 0 -62 10.5t-39.5 30t-13.5 47.5q0 40 27.5 78.5t79.5 72.5l70 -21q-49 -29 -76 -59.5t-27 -57.5q0 -13 6 -21t17 -11.5t24 -3.5q14 0 27 2t24 6v-66q-13 -4 -27 -5.5t-30 -1.5zM250 -10q-100 0 -147.5 49.5t-47.5 155.5v535h80v-527q0 -75 27 -108t88 -33
q62 0 88.5 33t26.5 108v527h80v-535q0 -106 -47 -155.5t-148 -49.5z" />
    <glyph glyph-name="uogonek" unicode="&#x173;" vert-adv-y="1235" 
d="M259 -10q-74 0 -116.5 17t-60 58.5t-17.5 114.5v340h78v-336q0 -48 10 -75t35.5 -38t71.5 -11q24 0 43.5 3t39 10t42.5 19l-28 -50v478h78v-498q-37 -16 -80 -24t-96 -8zM373 -197q-36 0 -62 10.5t-39.5 30t-13.5 47.5q0 40 27.5 78.5t79.5 72.5l70 -21
q-49 -29 -76 -59.5t-27 -57.5q0 -13 6 -21t17 -11.5t24 -3.5q14 0 27 2t24 6v-66q-13 -4 -27 -5.5t-30 -1.5z" />
    <glyph glyph-name="Wcircumflex" unicode="&#x174;" vert-adv-y="1235" 
d="M75 0l-65 730h82l40 -627h4l52 527h124l52 -527h4l40 627h82l-65 -730h-116l-57 538h-4l-57 -538h-116zM50 780l133 220h134l133 -220h-96l-102 177h-4l-102 -177h-96z" />
    <glyph glyph-name="wcircumflex" unicode="&#x175;" vert-adv-y="1235" 
d="M83 0l-73 520h80l50 -460h4l45 460h122l45 -460h4l50 460h80l-73 -520h-120l-45 465h-4l-45 -465h-120zM50 570l133 220h134l133 -220h-96l-102 177h-4l-102 -177h-96z" />
    <glyph glyph-name="Ycircumflex" unicode="&#x176;" vert-adv-y="1235" 
d="M209 0v285l-194 445h83l150 -359h4l150 359h83l-194 -445v-285h-82zM50 780l133 220h134l133 -220h-96l-102 177h-4l-102 -177h-96z" />
    <glyph glyph-name="ycircumflex" unicode="&#x177;" vert-adv-y="1235" 
d="M55 -150q47 0 79.5 17.5t54.5 55.5t35 98l4 -40l-203 539h85l144 -410h4l132 410h85l-186 -549q-21 -61 -51.5 -104t-75 -65t-107.5 -22v70zM50 570l133 220h134l133 -220h-96l-102 177h-4l-102 -177h-96z" />
    <glyph glyph-name="Ydieresis" unicode="&#x178;" vert-adv-y="1235" 
d="M209 0v285l-194 445h83l150 -359h4l150 359h83l-194 -445v-285h-82zM136 792q-32 0 -51.5 18.5t-19.5 49.5q0 32 19.5 50t51.5 18t51.5 -18t19.5 -50q0 -31 -19.5 -49.5t-51.5 -18.5zM364 792q-32 0 -51.5 18.5t-19.5 49.5q0 32 19.5 50t51.5 18t51.5 -18t19.5 -50
q0 -31 -19.5 -49.5t-51.5 -18.5z" />
    <glyph glyph-name="Zacute" unicode="&#x179;" vert-adv-y="1235" 
d="M70 0v70l270 586v4h-270v70h360v-70l-270 -586v-4h270v-70h-360zM293 780h-80l102 220h100z" />
    <glyph glyph-name="zacute" unicode="&#x17a;" vert-adv-y="1235" 
d="M75 0v70l257 376v4h-257v70h350v-70l-257 -376v-4h257v-70h-350zM293 570h-80l102 220h100z" />
    <glyph glyph-name="Zdotaccent" unicode="&#x17b;" vert-adv-y="1235" 
d="M70 0v70l270 586v4h-270v70h360v-70l-270 -586v-4h270v-70h-360zM250 792q-32 0 -51.5 18.5t-19.5 49.5q0 32 19.5 50t51.5 18t51.5 -18t19.5 -50q0 -31 -19.5 -49.5t-51.5 -18.5z" />
    <glyph glyph-name="zdotaccent" unicode="&#x17c;" vert-adv-y="1235" 
d="M75 0v70l257 376v4h-257v70h350v-70l-257 -376v-4h257v-70h-350zM250 582q-32 0 -51.5 18.5t-19.5 49.5q0 32 19.5 50t51.5 18t51.5 -18t19.5 -50q0 -31 -19.5 -49.5t-51.5 -18.5z" />
    <glyph glyph-name="Zcaron" unicode="&#x17d;" vert-adv-y="1235" 
d="M50 1000h96l102 -177h4l102 177h96l-133 -220h-134zM70 0v70l270 586v4h-270v70h360v-70l-270 -586v-4h270v-70h-360z" />
    <glyph glyph-name="zcaron" unicode="&#x17e;" vert-adv-y="1235" 
d="M50 790h96l102 -177h4l102 177h96l-133 -220h-134zM75 0v70l257 376v4h-257v70h350v-70l-257 -376v-4h257v-70h-350z" />
    <glyph glyph-name="uni018F" unicode="&#x18f;" 
d="M250 -10q-73 0 -118.5 35t-66 111.5t-20.5 200.5v65h369v-68h-306l17 20v-14q0 -105 11.5 -165.5t39 -86.5t74.5 -26t74.5 26t39 86.5t11.5 165.5v50q0 79 -8.5 132.5t-28 85.5t-52 46t-80.5 14q-34 0 -67 -6t-65 -19v75q32 11 68 16.5t70 5.5q127 0 185 -83t58 -264v-56
q0 -124 -20.5 -200.5t-65.5 -111.5t-119 -35z" />
    <glyph glyph-name="florin" unicode="&#x192;" 
d="M134 -120q-25 0 -50.5 4.5t-48.5 11.5v71q26 -9 47 -13t40 -4q47 0 67.5 25t20.5 81v295h-175v70h175v175q0 88 38.5 131t117.5 43q25 0 51 -4t48 -12v-71q-25 9 -46.5 13t-40.5 4q-46 0 -67 -25t-21 -81v-173h175v-70h-175v-297q0 -88 -38.5 -131t-117.5 -43z" />
    <glyph glyph-name="Ohorn" unicode="&#x1a0;" vert-adv-y="1235" 
d="M363 657q-17 0 -33.5 1.5t-34.5 4.5l13 63h57q27 0 42.5 15t15.5 41q0 8 -2.5 21t-5.5 20h75q5 -13 7.5 -27.5t2.5 -28.5q0 -52 -35.5 -81t-101.5 -29zM250 -10q-77 0 -123 33.5t-66.5 109.5t-20.5 202v60q0 127 20.5 202.5t66.5 109t123 33.5t123 -33.5t66.5 -109
t20.5 -202.5v-60q0 -126 -20.5 -202t-66.5 -109.5t-123 -33.5zM250 62q50 0 77.5 24.5t39 85t11.5 168.5v50q0 108 -11.5 168.5t-39 85t-77.5 24.5q-49 0 -77 -24.5t-39.5 -85t-11.5 -168.5v-50q0 -108 11.5 -168.5t39.5 -85t77 -24.5z" />
    <glyph glyph-name="ohorn" unicode="&#x1a1;" vert-adv-y="1235" 
d="M248 -10q-103 0 -151.5 60.5t-48.5 189.5v40q0 129 48.5 189.5t151.5 60.5q104 0 152 -60.5t48 -189.5v-40q0 -129 -48 -189.5t-152 -60.5zM248 60q65 0 92.5 43t27.5 142v30q0 99 -27.5 142t-92.5 43q-64 0 -92 -43t-28 -142v-30q0 -99 28 -142t92 -43zM381 421
q-13 0 -28 6l-7 63h37q23 0 35.5 12t12.5 34q0 8 -2.5 21t-5.5 20h75q5 -13 7.5 -27.5t2.5 -28.5q0 -48 -32.5 -74t-94.5 -26z" />
    <glyph glyph-name="Uhorn" unicode="&#x1af;" vert-adv-y="1235" 
d="M250 -10q-100 0 -147.5 49.5t-47.5 155.5v535h80v-527q0 -75 27 -108t88 -33q62 0 88.5 33t26.5 108v527h80v-535q0 -106 -47 -155.5t-148 -49.5zM413 661q-13 0 -28 6l-7 63h37q23 0 35.5 12t12.5 34q0 8 -2.5 21t-5.5 20h75q5 -13 7.5 -27.5t2.5 -28.5q0 -48 -32.5 -74
t-94.5 -26z" />
    <glyph glyph-name="uhorn" unicode="&#x1b0;" vert-adv-y="1235" 
d="M257 -10q-74 0 -116.5 17t-60 58.5t-17.5 114.5v340h78v-336q0 -48 10 -75t35.5 -38t71.5 -11q24 0 43.5 3t39 10t42.5 19l-28 -50v478h78v-498q-37 -16 -80 -24t-96 -8zM394 451q-13 0 -28 6l-7 63h37q23 0 35.5 12t12.5 34q0 8 -2.5 21t-5.5 20h75q5 -13 7.5 -27.5
t2.5 -28.5q0 -48 -32.5 -74t-94.5 -26z" />
    <glyph glyph-name="uni01C4" unicode="&#x1c4;" 
d="M107 -10q-33 0 -77 12v726q44 12 77 12q87 0 125 -80.5t38 -264.5v-60q0 -184 -38 -264.5t-125 -80.5zM82 74q8 -6 16 -9t18 -3q41 0 58.5 65t17.5 213v50q0 148 -17.5 213t-58.5 65q-10 0 -18 -3t-16 -9l26 27v-636zM265 0v70l144 586v4h-144v70h225v-70l-144 -586v-4
h144v-70h-225zM315 780l-95 220h84l54 -154h4l54 154h84l-95 -220h-90z" />
    <glyph glyph-name="uni01C5" unicode="&#x1c5;" 
d="M107 -10q-33 0 -77 12v726q44 12 77 12q87 0 125 -80.5t38 -264.5v-60q0 -184 -38 -264.5t-125 -80.5zM82 74q8 -6 16 -9t18 -3q41 0 58.5 65t17.5 213v50q0 148 -17.5 213t-58.5 65q-10 0 -18 -3t-16 -9l26 27v-636zM290 0v70l118 376v4h-118v70h200v-70l-118 -376v-4
h118v-70h-200zM322 570l-88 220h84l47 -154h4l47 154h84l-88 -220h-90z" />
    <glyph glyph-name="uni01C6" unicode="&#x1c6;" 
d="M151 -10q-50 0 -80.5 27.5t-44 89t-13.5 163.5q0 95 11.5 152t38 82.5t70.5 25.5q27 0 54 -9t49 -28l-10 -66q-18 17 -35.5 25t-34.5 8q-24 0 -38.5 -18t-20.5 -60t-6 -114q0 -78 7 -123.5t23.5 -65.5t43.5 -20q19 0 33 7l-18 -20v430v0v254h78v-708q-19 -14 -47 -23
t-60 -9zM288 0v70l124 376v4h-124v70h204v-70l-124 -376v-4h124v-70h-204zM337 570l-71 220h76l39 -160h4l39 160h76l-71 -220h-92z" />
    <glyph glyph-name="uni01C7" unicode="&#x1c7;" 
d="M55 0v730h82v-658h158v-72h-240zM242 -220q-43 0 -79 7.5t-68 21.5v75q31 -15 65.5 -23.5t71.5 -8.5q70 0 100.5 33t30.5 107v668h-158v70h240v-745q0 -107 -48 -156t-155 -49z" />
    <glyph glyph-name="uni01C8" unicode="&#x1c8;" 
d="M55 0v730h82v-658h158v-72h-240zM185 -150q93 0 136.5 45t43.5 142v413h-130v70h210v-477q0 -133 -64.5 -198t-195.5 -65v70zM389 614q-32 0 -51.5 18.5t-19.5 49.5q0 32 19.5 50t51.5 18t51.5 -18t19.5 -50q0 -31 -19.5 -49.5t-51.5 -18.5z" />
    <glyph glyph-name="uni01C9" unicode="&#x1c9;" vert-adv-y="1235" 
d="M240 -10q-76 0 -111.5 37.5t-35.5 119.5v513h-88v70h168v-566q0 -59 17 -81.5t62 -22.5q9 0 20.5 1t30.5 5v-69q-19 -4 -33 -5.5t-30 -1.5zM190 -150q93 0 136.5 45t43.5 142v413h-116v70h196v-477q0 -133 -64.5 -198t-195.5 -65v70zM394 614q-32 0 -51.5 18.5
t-19.5 49.5q0 32 19.5 50t51.5 18t51.5 -18t19.5 -50q0 -31 -19.5 -49.5t-51.5 -18.5z" />
    <glyph glyph-name="uni01CA" unicode="&#x1ca;" 
d="M305 -220q-34 0 -63.5 7.5t-55.5 21.5v75q25 -15 54.5 -23.5t56.5 -8.5q50 0 71.5 33t21.5 108v667h-94v-660h-78v250l-104 276h-4v-526h-80v730h80l104 -276h4v276h252v-745q0 -107 -39.5 -156t-125.5 -49z" />
    <glyph glyph-name="uni01CB" unicode="&#x1cb;" 
d="M231 -149q83 0 122 45t39 141v414h-96v-451h-78v250l-104 276h-4v-526h-80v730h80l104 -276h4v276h78v-210h174v-477q0 -133 -59 -198t-180 -65v71zM414 614q-32 0 -51.5 18.5t-19.5 49.5q0 32 19.5 50t51.5 18t51.5 -18t19.5 -50q0 -31 -19.5 -49.5t-51.5 -18.5z" />
    <glyph glyph-name="uni01CC" unicode="&#x1cc;" vert-adv-y="1235" 
d="M23 498q52 32 126 32q53 0 83 -17t42.5 -58.5t12.5 -114.5v-340h-78v336q0 47 -6 74t-19.5 38.5t-37.5 11.5q-19 0 -34.5 -7t-32.5 -24l22 49v-478h-78v498zM272 -149q62 0 92.5 46t30.5 140v414h-107v69h185v-477q0 -133 -50 -198t-151 -65v71zM412 614
q-32 0 -51.5 18.5t-19.5 49.5q0 32 19.5 50t51.5 18t51.5 -18t19.5 -50q0 -31 -19.5 -49.5t-51.5 -18.5z" />
    <glyph glyph-name="Gcaron" unicode="&#x1e6;" vert-adv-y="1235" 
d="M70 1000h96l102 -177h4l102 177h96l-133 -220h-134zM302 -10q-265 0 -265 345v60q0 174 67.5 259.5t204.5 85.5q29 0 60 -3.5t59 -9.5v-74q-28 7 -57.5 11t-56.5 4q-102 0 -148.5 -66t-46.5 -212v-50q0 -139 44.5 -208.5t133.5 -69.5q23 0 49.5 5t51.5 15l-31 -38v308
h-150v68h230v-410q-32 -10 -72 -15t-73 -5z" />
    <glyph glyph-name="gcaron" unicode="&#x1e7;" vert-adv-y="1235" 
d="M50 790h96l102 -177h4l102 177h96l-133 -220h-134zM83 -150q137 0 202 45.5t65 142.5v442l20 -45q-29 14 -57 19.5t-59 5.5q-49 0 -77 -16t-39.5 -54.5t-11.5 -106.5q0 -74 12 -116.5t41 -60t80 -17.5q30 0 56.5 5.5t56.5 15.5l21 -70q-27 -9 -58 -14.5t-71 -5.5
q-79 0 -126.5 26t-68.5 84t-21 154q0 91 20.5 145t68 77.5t126.5 23.5q98 0 165 -32v-455q0 -133 -85.5 -198t-259.5 -65v70z" />
    <glyph glyph-name="uni01EA" unicode="&#x1ea;" vert-adv-y="1235" 
d="M265 -218q-36 0 -62 10.5t-39.5 30t-13.5 47.5q0 40 27.5 78.5t79.5 72.5l70 -21q-49 -29 -76 -59.5t-27 -57.5q0 -13 6 -21t17 -11.5t24 -3.5q14 0 27 2t24 6v-66q-13 -4 -27 -5.5t-30 -1.5zM250 -10q-77 0 -123 33.5t-66.5 109.5t-20.5 202v60q0 127 20.5 202.5
t66.5 109t123 33.5t123 -33.5t66.5 -109t20.5 -202.5v-60q0 -126 -20.5 -202t-66.5 -109.5t-123 -33.5zM250 62q50 0 77.5 24.5t39 85t11.5 168.5v50q0 108 -11.5 168.5t-39 85t-77.5 24.5q-49 0 -77 -24.5t-39.5 -85t-11.5 -168.5v-50q0 -108 11.5 -168.5t39.5 -85
t77 -24.5z" />
    <glyph glyph-name="uni01EB" unicode="&#x1eb;" vert-adv-y="1235" 
d="M267 -218q-36 0 -62 10.5t-39.5 30t-13.5 47.5q0 40 27.5 79t80.5 72l69 -19q-49 -30 -76 -60.5t-27 -58.5q0 -13 6 -21t17 -11.5t24 -3.5q14 0 27 2t24 6v-66q-13 -4 -27 -5.5t-30 -1.5zM250 -10q-103 0 -151.5 60.5t-48.5 189.5v40q0 129 48.5 189.5t151.5 60.5
q104 0 152 -60.5t48 -189.5v-40q0 -129 -48 -189.5t-152 -60.5zM250 60q65 0 92.5 43t27.5 142v30q0 99 -27.5 142t-92.5 43q-64 0 -92 -43t-28 -142v-30q0 -99 28 -142t92 -43z" />
    <glyph glyph-name="Aringacute" unicode="&#x1fa;" vert-adv-y="1235" 
d="M20 0l181 730h98l181 -730h-82l-146 636h-4l-146 -636h-82zM112 200v70h276v-70h-276zM250 684q-39 0 -71.5 19t-51.5 51.5t-19 71.5q0 40 19 72t51.5 51t71.5 19q40 0 72 -19t51 -51t19 -72q0 -39 -19 -71.5t-51 -51.5t-72 -19zM250 744q35 0 58.5 24t23.5 58
q0 35 -23.5 58.5t-58.5 23.5q-34 0 -58 -23.5t-24 -58.5q0 -34 24 -58t58 -24zM293 930h-80l102 220h100z" />
    <glyph glyph-name="aringacute" unicode="&#x1fb;" vert-adv-y="1235" 
d="M261 -10q-100 0 -157 45.5t-57 124.5q0 83 63.5 125t187.5 42h90v-65h-89q-87 0 -129.5 -25t-42.5 -76q0 -48 35 -76t96 -28q32 0 62.5 8t51.5 21l-22 -46v298q0 51 -8 78t-31.5 36.5t-68.5 9.5q-29 0 -56 -3t-54 -9.5t-57 -17.5v69q35 14 80.5 21.5t94.5 7.5
q68 0 107 -17t55 -58.5t16 -114.5v-318q-31 -15 -77 -23.5t-90 -8.5zM250 574q-39 0 -71.5 19t-51.5 51.5t-19 71.5q0 40 19 72t51.5 51t71.5 19q40 0 72 -19t51 -51t19 -72q0 -39 -19 -71.5t-51 -51.5t-72 -19zM250 634q35 0 58.5 24t23.5 58q0 35 -23.5 58.5t-58.5 23.5
q-34 0 -58 -23.5t-24 -58.5q0 -34 24 -58t58 -24zM293 820h-80l102 220h100z" />
    <glyph glyph-name="AEacute" unicode="&#x1fc;" vert-adv-y="1235" 
d="M12 0l201 730h270v-70h-141v-239h131v-70h-131v-281h141v-70h-221v636h-4l-164 -636h-82zM112 200v70h186v-70h-186zM343 780h-80l102 220h100z" />
    <glyph glyph-name="aeacute" unicode="&#x1fd;" vert-adv-y="1235" 
d="M161 -10q-70 0 -108 44.5t-38 125.5q0 83 42.5 125.5t127.5 42.5h52v-67h-46q-55 0 -80.5 -24t-25.5 -76q0 -49 21.5 -76.5t58.5 -27.5q18 0 31 7t21 20v254q0 51 -6.5 77.5t-24 36.5t-51.5 10q-24 0 -43 -4.5t-43 -16.5v71q20 9 43 13.5t51 4.5q48 0 75 -14.5t41 -47.5
h4q14 32 37 47t57 15q45 0 73 -25.5t41 -80.5t13 -144v-54h-216v65h162l-11 -23v9q0 69 -6.5 109.5t-20.5 58t-39 17.5q-24 0 -38.5 -17.5t-21 -58t-6.5 -109.5v-34q0 -73 8.5 -113t30 -56t60.5 -16q21 0 40.5 4t40.5 13v-69q-20 -7 -43 -11.5t-44 -4.5q-38 0 -63 14.5
t-41 44.5h-4q-16 -30 -44.5 -44.5t-66.5 -14.5zM293 570h-80l102 220h100z" />
    <glyph glyph-name="Oslashacute" unicode="&#x1fe;" vert-adv-y="1235" 
d="M38 -10l350 750h74l-350 -750h-74zM250 -10q-77 0 -123 33.5t-66.5 109.5t-20.5 202v60q0 127 20.5 202.5t66.5 109t123 33.5t123 -33.5t66.5 -109t20.5 -202.5v-60q0 -126 -20.5 -202t-66.5 -109.5t-123 -33.5zM250 62q50 0 77.5 24.5t39 85t11.5 168.5v50
q0 108 -11.5 168.5t-39 85t-77.5 24.5q-49 0 -77 -24.5t-39.5 -85t-11.5 -168.5v-50q0 -108 11.5 -168.5t39.5 -85t77 -24.5zM293 780h-80l102 220h100z" />
    <glyph glyph-name="oslashacute" unicode="&#x1ff;" vert-adv-y="1235" 
d="M38 -10l350 540h74l-350 -540h-74zM250 -10q-103 0 -151.5 60.5t-48.5 189.5v40q0 129 48.5 189.5t151.5 60.5q104 0 152 -60.5t48 -189.5v-40q0 -129 -48 -189.5t-152 -60.5zM250 60q65 0 92.5 43t27.5 142v30q0 99 -27.5 142t-92.5 43q-64 0 -92 -43t-28 -142v-30
q0 -99 28 -142t92 -43zM293 570h-80l102 220h100z" />
    <glyph glyph-name="uni0200" unicode="&#x200;" vert-adv-y="1235" 
d="M107 780l-117 220h96l97 -220h-76zM306 780l-117 220h96l97 -220h-76zM20 0l181 730h98l181 -730h-82l-146 636h-4l-146 -636h-82zM112 200v70h276v-70h-276z" />
    <glyph glyph-name="uni0201" unicode="&#x201;" vert-adv-y="1235" 
d="M107 570l-117 220h96l97 -220h-76zM306 570l-117 220h96l97 -220h-76zM261 -10q-100 0 -157 45.5t-57 124.5q0 83 63.5 125t187.5 42h90v-65h-89q-87 0 -129.5 -25t-42.5 -76q0 -48 35 -76t96 -28q32 0 62.5 8t51.5 21l-22 -46v298q0 51 -8 78t-31.5 36.5t-68.5 9.5
q-29 0 -56 -3t-54 -9.5t-57 -17.5v69q35 14 80.5 21.5t94.5 7.5q68 0 107 -17t55 -58.5t16 -114.5v-318q-31 -15 -77 -23.5t-90 -8.5z" />
    <glyph glyph-name="uni0202" unicode="&#x202;" vert-adv-y="1235" 
d="M250 974q84 0 138.5 -49t61.5 -131h-84q-8 53 -38.5 82.5t-77.5 29.5q-46 0 -77 -29.5t-39 -82.5h-84q7 82 61.5 131t138.5 49zM20 0l181 730h98l181 -730h-82l-146 636h-4l-146 -636h-82zM112 200v70h276v-70h-276z" />
    <glyph glyph-name="uni0203" unicode="&#x203;" vert-adv-y="1235" 
d="M250 764q84 0 138.5 -49t61.5 -131h-84q-8 53 -38.5 82.5t-77.5 29.5q-46 0 -77 -29.5t-39 -82.5h-84q7 82 61.5 131t138.5 49zM261 -10q-100 0 -157 45.5t-57 124.5q0 83 63.5 125t187.5 42h90v-65h-89q-87 0 -129.5 -25t-42.5 -76q0 -48 35 -76t96 -28q32 0 62.5 8
t51.5 21l-22 -46v298q0 51 -8 78t-31.5 36.5t-68.5 9.5q-29 0 -56 -3t-54 -9.5t-57 -17.5v69q35 14 80.5 21.5t94.5 7.5q68 0 107 -17t55 -58.5t16 -114.5v-318q-31 -15 -77 -23.5t-90 -8.5z" />
    <glyph glyph-name="uni0204" unicode="&#x204;" vert-adv-y="1235" 
d="M107 780l-117 220h96l97 -220h-76zM306 780l-117 220h96l97 -220h-76zM81 0v730h350v-70h-269v-239h259v-70h-259v-281h269v-70h-350z" />
    <glyph glyph-name="uni0205" unicode="&#x205;" vert-adv-y="1235" 
d="M107 570l-117 220h96l97 -220h-76zM306 570l-117 220h96l97 -220h-76zM286 -10q-117 0 -174 61.5t-57 188.5v40q0 129 47.5 189.5t147.5 60.5q101 0 148 -60.5t47 -189.5v-54h-351v65h291l-18 -23v9q0 98 -27.5 141.5t-89.5 43.5t-89.5 -43.5t-27.5 -141.5v-34
q0 -69 15 -109.5t50 -58t94 -17.5q29 0 59.5 4t65.5 13v-69q-30 -7 -64.5 -11.5t-66.5 -4.5z" />
    <glyph glyph-name="uni0206" unicode="&#x206;" vert-adv-y="1235" 
d="M250 974q84 0 138.5 -49t61.5 -131h-84q-8 53 -38.5 82.5t-77.5 29.5q-46 0 -77 -29.5t-39 -82.5h-84q7 82 61.5 131t138.5 49zM81 0v730h350v-70h-269v-239h259v-70h-259v-281h269v-70h-350z" />
    <glyph glyph-name="uni0207" unicode="&#x207;" vert-adv-y="1235" 
d="M250 764q84 0 138.5 -49t61.5 -131h-84q-8 53 -38.5 82.5t-77.5 29.5q-46 0 -77 -29.5t-39 -82.5h-84q7 82 61.5 131t138.5 49zM286 -10q-117 0 -174 61.5t-57 188.5v40q0 129 47.5 189.5t147.5 60.5q101 0 148 -60.5t47 -189.5v-54h-351v65h291l-18 -23v9
q0 98 -27.5 141.5t-89.5 43.5t-89.5 -43.5t-27.5 -141.5v-34q0 -69 15 -109.5t50 -58t94 -17.5q29 0 59.5 4t65.5 13v-69q-30 -7 -64.5 -11.5t-66.5 -4.5z" />
    <glyph glyph-name="uni0208" unicode="&#x208;" vert-adv-y="1235" 
d="M107 780l-117 220h96l97 -220h-76zM306 780l-117 220h96l97 -220h-76zM75 0v70h134v590h-134v70h350v-70h-134v-590h134v-70h-350z" />
    <glyph glyph-name="uni0209" unicode="&#x209;" vert-adv-y="1235" 
d="M157 570l-117 220h96l97 -220h-76zM356 570l-117 220h96l97 -220h-76zM260 0v450h-180v70h260v-520h-80z" />
    <glyph glyph-name="uni020A" unicode="&#x20a;" vert-adv-y="1235" 
d="M250 974q84 0 138.5 -49t61.5 -131h-84q-8 53 -38.5 82.5t-77.5 29.5q-46 0 -77 -29.5t-39 -82.5h-84q7 82 61.5 131t138.5 49zM75 0v70h134v590h-134v70h350v-70h-134v-590h134v-70h-350z" />
    <glyph glyph-name="uni020B" unicode="&#x20b;" vert-adv-y="1235" 
d="M300 764q84 0 138.5 -49t61.5 -131h-84q-8 53 -38.5 82.5t-77.5 29.5q-46 0 -77 -29.5t-39 -82.5h-84q7 82 61.5 131t138.5 49zM260 0v450h-180v70h260v-520h-80z" />
    <glyph glyph-name="uni020C" unicode="&#x20c;" vert-adv-y="1235" 
d="M107 780l-117 220h96l97 -220h-76zM306 780l-117 220h96l97 -220h-76zM250 -10q-77 0 -123 33.5t-66.5 109.5t-20.5 202v60q0 127 20.5 202.5t66.5 109t123 33.5t123 -33.5t66.5 -109t20.5 -202.5v-60q0 -126 -20.5 -202t-66.5 -109.5t-123 -33.5zM250 62q50 0 77.5 24.5
t39 85t11.5 168.5v50q0 108 -11.5 168.5t-39 85t-77.5 24.5q-49 0 -77 -24.5t-39.5 -85t-11.5 -168.5v-50q0 -108 11.5 -168.5t39.5 -85t77 -24.5z" />
    <glyph glyph-name="uni020D" unicode="&#x20d;" vert-adv-y="1235" 
d="M107 570l-117 220h96l97 -220h-76zM306 570l-117 220h96l97 -220h-76zM250 -10q-103 0 -151.5 60.5t-48.5 189.5v40q0 129 48.5 189.5t151.5 60.5q104 0 152 -60.5t48 -189.5v-40q0 -129 -48 -189.5t-152 -60.5zM250 60q65 0 92.5 43t27.5 142v30q0 99 -27.5 142
t-92.5 43q-64 0 -92 -43t-28 -142v-30q0 -99 28 -142t92 -43z" />
    <glyph glyph-name="uni020E" unicode="&#x20e;" vert-adv-y="1235" 
d="M250 974q84 0 138.5 -49t61.5 -131h-84q-8 53 -38.5 82.5t-77.5 29.5q-46 0 -77 -29.5t-39 -82.5h-84q7 82 61.5 131t138.5 49zM250 -10q-77 0 -123 33.5t-66.5 109.5t-20.5 202v60q0 127 20.5 202.5t66.5 109t123 33.5t123 -33.5t66.5 -109t20.5 -202.5v-60
q0 -126 -20.5 -202t-66.5 -109.5t-123 -33.5zM250 62q50 0 77.5 24.5t39 85t11.5 168.5v50q0 108 -11.5 168.5t-39 85t-77.5 24.5q-49 0 -77 -24.5t-39.5 -85t-11.5 -168.5v-50q0 -108 11.5 -168.5t39.5 -85t77 -24.5z" />
    <glyph glyph-name="uni020F" unicode="&#x20f;" vert-adv-y="1235" 
d="M250 764q84 0 138.5 -49t61.5 -131h-84q-8 53 -38.5 82.5t-77.5 29.5q-46 0 -77 -29.5t-39 -82.5h-84q7 82 61.5 131t138.5 49zM250 -10q-103 0 -151.5 60.5t-48.5 189.5v40q0 129 48.5 189.5t151.5 60.5q104 0 152 -60.5t48 -189.5v-40q0 -129 -48 -189.5t-152 -60.5z
M250 60q65 0 92.5 43t27.5 142v30q0 99 -27.5 142t-92.5 43q-64 0 -92 -43t-28 -142v-30q0 -99 28 -142t92 -43z" />
    <glyph glyph-name="uni0210" unicode="&#x210;" vert-adv-y="1235" 
d="M97 780l-117 220h96l97 -220h-76zM296 780l-117 220h96l97 -220h-76zM70 728q44 7 76.5 9.5t62.5 2.5q91 0 146 -22.5t80 -72t25 -130.5t-25 -130.5t-80 -72t-146 -22.5q-27 0 -52.5 2t-53.5 6l26 70q26 -4 47 -6t40 -2q60 0 95.5 15t51.5 49t16 90q0 57 -16 90.5
t-51.5 48.5t-95.5 15q-20 0 -41.5 -1.5t-48.5 -6.5l24 28v-688h-80v728zM376 0l-250 328h92l252 -328h-94z" />
    <glyph glyph-name="uni0211" unicode="&#x211;" vert-adv-y="1235" 
d="M137 570l-117 220h96l97 -220h-76zM336 570l-117 220h96l97 -220h-76zM126 475q49 17 105.5 29t112 19t102.5 7v-70q-41 0 -87 -5.5t-91 -15.5t-82 -24l20 38v-453h-80v475z" />
    <glyph glyph-name="uni0212" unicode="&#x212;" vert-adv-y="1235" 
d="M240 974q84 0 138.5 -49t61.5 -131h-84q-8 53 -38.5 82.5t-77.5 29.5q-46 0 -77 -29.5t-39 -82.5h-84q7 82 61.5 131t138.5 49zM70 728q44 7 76.5 9.5t62.5 2.5q91 0 146 -22.5t80 -72t25 -130.5t-25 -130.5t-80 -72t-146 -22.5q-27 0 -52.5 2t-53.5 6l26 70q26 -4 47 -6
t40 -2q60 0 95.5 15t51.5 49t16 90q0 57 -16 90.5t-51.5 48.5t-95.5 15q-20 0 -41.5 -1.5t-48.5 -6.5l24 28v-688h-80v728zM376 0l-250 328h92l252 -328h-94z" />
    <glyph glyph-name="uni0213" unicode="&#x213;" vert-adv-y="1235" 
d="M280 764q84 0 138.5 -49t61.5 -131h-84q-8 53 -38.5 82.5t-77.5 29.5q-46 0 -77 -29.5t-39 -82.5h-84q7 82 61.5 131t138.5 49zM126 475q49 17 105.5 29t112 19t102.5 7v-70q-41 0 -87 -5.5t-91 -15.5t-82 -24l20 38v-453h-80v475z" />
    <glyph glyph-name="uni0214" unicode="&#x214;" vert-adv-y="1235" 
d="M107 780l-117 220h96l97 -220h-76zM306 780l-117 220h96l97 -220h-76zM250 -10q-100 0 -147.5 49.5t-47.5 155.5v535h80v-527q0 -75 27 -108t88 -33q62 0 88.5 33t26.5 108v527h80v-535q0 -106 -47 -155.5t-148 -49.5z" />
    <glyph glyph-name="uni0215" unicode="&#x215;" vert-adv-y="1235" 
d="M107 570l-117 220h96l97 -220h-76zM306 570l-117 220h96l97 -220h-76zM259 -10q-74 0 -116.5 17t-60 58.5t-17.5 114.5v340h78v-336q0 -48 10 -75t35.5 -38t71.5 -11q24 0 43.5 3t39 10t42.5 19l-28 -50v478h78v-498q-37 -16 -80 -24t-96 -8z" />
    <glyph glyph-name="uni0216" unicode="&#x216;" vert-adv-y="1235" 
d="M250 974q84 0 138.5 -49t61.5 -131h-84q-8 53 -38.5 82.5t-77.5 29.5q-46 0 -77 -29.5t-39 -82.5h-84q7 82 61.5 131t138.5 49zM250 -10q-100 0 -147.5 49.5t-47.5 155.5v535h80v-527q0 -75 27 -108t88 -33q62 0 88.5 33t26.5 108v527h80v-535q0 -106 -47 -155.5
t-148 -49.5z" />
    <glyph glyph-name="uni0217" unicode="&#x217;" vert-adv-y="1235" 
d="M250 764q84 0 138.5 -49t61.5 -131h-84q-8 53 -38.5 82.5t-77.5 29.5q-46 0 -77 -29.5t-39 -82.5h-84q7 82 61.5 131t138.5 49zM259 -10q-74 0 -116.5 17t-60 58.5t-17.5 114.5v340h78v-336q0 -48 10 -75t35.5 -38t71.5 -11q24 0 43.5 3t39 10t42.5 19l-28 -50v478h78
v-498q-37 -16 -80 -24t-96 -8z" />
    <glyph glyph-name="uni0218" unicode="&#x218;" vert-adv-y="1235" 
d="M179 -270h-80l102 220h100zM224 -10q-39 0 -77.5 6.5t-76.5 19.5v77q37 -15 73 -23t74 -8q68 0 105.5 28t37.5 89q0 32 -12.5 57.5t-42 49.5t-82.5 53q-65 37 -102.5 69t-53 68.5t-15.5 83.5q0 93 54.5 136.5t171.5 43.5q35 0 70.5 -4t74.5 -13v-213h-80v182l32 -36
q-27 6 -50.5 9t-48.5 3q-72 0 -107 -26.5t-35 -82.5q0 -31 12.5 -56.5t43 -50t82.5 -53.5q64 -36 101 -68.5t53 -69t16 -84.5q0 -94 -54.5 -140.5t-163.5 -46.5z" />
    <glyph glyph-name="uni0219" unicode="&#x219;" vert-adv-y="1235" 
d="M179 -270h-80l102 220h100zM232 -10q-43 0 -80.5 6.5t-74.5 20.5v71q39 -14 76.5 -21t75.5 -7q64 0 95 19t31 58q0 20 -12.5 36t-39 31t-70.5 30q-61 20 -98 42.5t-53.5 51.5t-16.5 68q0 69 48.5 101.5t151.5 32.5q35 0 70 -4.5t85 -17.5v-153h-78v140l36 -48
q-37 8 -61 10.5t-47 2.5q-63 0 -94 -16.5t-31 -50.5q0 -19 12 -35.5t39 -31.5t73 -31q61 -21 97.5 -43.5t52.5 -51t16 -67.5q0 -72 -50.5 -107.5t-152.5 -35.5z" />
    <glyph glyph-name="uni021A" unicode="&#x21a;" vert-adv-y="1235" 
d="M179 -270h-80l102 220h100zM209 0v658h-169v72h420v-72h-169v-658h-82z" />
    <glyph glyph-name="uni021B" unicode="&#x21b;" vert-adv-y="1235" 
d="M239 -270h-80l102 220h100zM322 -10q-88 0 -126.5 36t-38.5 121v303h-130v70h130v170h80v-170h200v-70h-200v-286q0 -59 21.5 -81.5t79.5 -22.5q28 0 52.5 4.5t46.5 12.5v-70q-28 -9 -56.5 -13t-58.5 -4z" />
    <glyph glyph-name="uni0226" unicode="&#x226;" vert-adv-y="1235" 
d="M20 0l181 730h98l181 -730h-82l-146 636h-4l-146 -636h-82zM112 200v70h276v-70h-276zM250 792q-32 0 -51.5 18.5t-19.5 49.5q0 32 19.5 50t51.5 18t51.5 -18t19.5 -50q0 -31 -19.5 -49.5t-51.5 -18.5z" />
    <glyph glyph-name="uni0227" unicode="&#x227;" vert-adv-y="1235" 
d="M261 -10q-100 0 -157 45.5t-57 124.5q0 83 63.5 125t187.5 42h90v-65h-89q-87 0 -129.5 -25t-42.5 -76q0 -48 35 -76t96 -28q32 0 62.5 8t51.5 21l-22 -46v298q0 51 -8 78t-31.5 36.5t-68.5 9.5q-29 0 -56 -3t-54 -9.5t-57 -17.5v69q35 14 80.5 21.5t94.5 7.5
q68 0 107 -17t55 -58.5t16 -114.5v-318q-31 -15 -77 -23.5t-90 -8.5zM250 582q-32 0 -51.5 18.5t-19.5 49.5q0 32 19.5 50t51.5 18t51.5 -18t19.5 -50q0 -31 -19.5 -49.5t-51.5 -18.5z" />
    <glyph glyph-name="uni022A" unicode="&#x22a;" vert-adv-y="1235" 
d="M250 -10q-77 0 -123 33.5t-66.5 109.5t-20.5 202v60q0 127 20.5 202.5t66.5 109t123 33.5t123 -33.5t66.5 -109t20.5 -202.5v-60q0 -126 -20.5 -202t-66.5 -109.5t-123 -33.5zM250 62q50 0 77.5 24.5t39 85t11.5 168.5v50q0 108 -11.5 168.5t-39 85t-77.5 24.5
q-49 0 -77 -24.5t-39.5 -85t-11.5 -168.5v-50q0 -108 11.5 -168.5t39.5 -85t77 -24.5zM136 792q-32 0 -51.5 18.5t-19.5 49.5q0 32 19.5 50t51.5 18t51.5 -18t19.5 -50q0 -31 -19.5 -49.5t-51.5 -18.5zM364 792q-32 0 -51.5 18.5t-19.5 49.5q0 32 19.5 50t51.5 18t51.5 -18
t19.5 -50q0 -31 -19.5 -49.5t-51.5 -18.5zM75 994v64h350v-64h-350z" />
    <glyph glyph-name="uni022B" unicode="&#x22b;" vert-adv-y="1235" 
d="M250 -10q-103 0 -151.5 60.5t-48.5 189.5v40q0 129 48.5 189.5t151.5 60.5q104 0 152 -60.5t48 -189.5v-40q0 -129 -48 -189.5t-152 -60.5zM250 60q65 0 92.5 43t27.5 142v30q0 99 -27.5 142t-92.5 43q-64 0 -92 -43t-28 -142v-30q0 -99 28 -142t92 -43zM136 582
q-32 0 -51.5 18.5t-19.5 49.5q0 32 19.5 50t51.5 18t51.5 -18t19.5 -50q0 -31 -19.5 -49.5t-51.5 -18.5zM364 582q-32 0 -51.5 18.5t-19.5 49.5q0 32 19.5 50t51.5 18t51.5 -18t19.5 -50q0 -31 -19.5 -49.5t-51.5 -18.5zM75 784v64h350v-64h-350z" />
    <glyph glyph-name="uni022C" unicode="&#x22c;" vert-adv-y="1235" 
d="M250 -10q-77 0 -123 33.5t-66.5 109.5t-20.5 202v60q0 127 20.5 202.5t66.5 109t123 33.5t123 -33.5t66.5 -109t20.5 -202.5v-60q0 -126 -20.5 -202t-66.5 -109.5t-123 -33.5zM250 62q50 0 77.5 24.5t39 85t11.5 168.5v50q0 108 -11.5 168.5t-39 85t-77.5 24.5
q-49 0 -77 -24.5t-39.5 -85t-11.5 -168.5v-50q0 -108 11.5 -168.5t39.5 -85t77 -24.5zM334 783q-28 0 -54 16t-63 53q-19 20 -29.5 27.5t-18.5 7.5q-15 0 -23 -24t-8 -70h-78q0 80 28 125t78 45q28 0 54 -15.5t63 -53.5q19 -19 29.5 -27t18.5 -8q15 0 23 24t8 70h78
q0 -80 -28 -125t-78 -45zM75 1021v64h350v-64h-350z" />
    <glyph glyph-name="uni022D" unicode="&#x22d;" vert-adv-y="1235" 
d="M250 -10q-103 0 -151.5 60.5t-48.5 189.5v40q0 129 48.5 189.5t151.5 60.5q104 0 152 -60.5t48 -189.5v-40q0 -129 -48 -189.5t-152 -60.5zM250 60q65 0 92.5 43t27.5 142v30q0 99 -27.5 142t-92.5 43q-64 0 -92 -43t-28 -142v-30q0 -99 28 -142t92 -43zM334 573
q-28 0 -54 16t-63 53q-19 20 -29.5 27.5t-18.5 7.5q-15 0 -23 -24t-8 -70h-78q0 80 28 125t78 45q28 0 54 -15.5t63 -53.5q19 -19 29.5 -27t18.5 -8q15 0 23 24t8 70h78q0 -80 -28 -125t-78 -45zM75 811v64h350v-64h-350z" />
    <glyph glyph-name="uni022E" unicode="&#x22e;" vert-adv-y="1235" 
d="M250 -10q-77 0 -123 33.5t-66.5 109.5t-20.5 202v60q0 127 20.5 202.5t66.5 109t123 33.5t123 -33.5t66.5 -109t20.5 -202.5v-60q0 -126 -20.5 -202t-66.5 -109.5t-123 -33.5zM250 62q50 0 77.5 24.5t39 85t11.5 168.5v50q0 108 -11.5 168.5t-39 85t-77.5 24.5
q-49 0 -77 -24.5t-39.5 -85t-11.5 -168.5v-50q0 -108 11.5 -168.5t39.5 -85t77 -24.5zM250 792q-32 0 -51.5 18.5t-19.5 49.5q0 32 19.5 50t51.5 18t51.5 -18t19.5 -50q0 -31 -19.5 -49.5t-51.5 -18.5z" />
    <glyph glyph-name="uni022F" unicode="&#x22f;" vert-adv-y="1235" 
d="M250 -10q-103 0 -151.5 60.5t-48.5 189.5v40q0 129 48.5 189.5t151.5 60.5q104 0 152 -60.5t48 -189.5v-40q0 -129 -48 -189.5t-152 -60.5zM250 60q65 0 92.5 43t27.5 142v30q0 99 -27.5 142t-92.5 43q-64 0 -92 -43t-28 -142v-30q0 -99 28 -142t92 -43zM250 582
q-32 0 -51.5 18.5t-19.5 49.5q0 32 19.5 50t51.5 18t51.5 -18t19.5 -50q0 -31 -19.5 -49.5t-51.5 -18.5z" />
    <glyph glyph-name="uni0230" unicode="&#x230;" vert-adv-y="1235" 
d="M250 -10q-77 0 -123 33.5t-66.5 109.5t-20.5 202v60q0 127 20.5 202.5t66.5 109t123 33.5t123 -33.5t66.5 -109t20.5 -202.5v-60q0 -126 -20.5 -202t-66.5 -109.5t-123 -33.5zM250 62q50 0 77.5 24.5t39 85t11.5 168.5v50q0 108 -11.5 168.5t-39 85t-77.5 24.5
q-49 0 -77 -24.5t-39.5 -85t-11.5 -168.5v-50q0 -108 11.5 -168.5t39.5 -85t77 -24.5zM250 792q-32 0 -51.5 18.5t-19.5 49.5q0 32 19.5 50t51.5 18t51.5 -18t19.5 -50q0 -31 -19.5 -49.5t-51.5 -18.5zM75 986v64h350v-64h-350z" />
    <glyph glyph-name="uni0231" unicode="&#x231;" vert-adv-y="1235" 
d="M250 -10q-103 0 -151.5 60.5t-48.5 189.5v40q0 129 48.5 189.5t151.5 60.5q104 0 152 -60.5t48 -189.5v-40q0 -129 -48 -189.5t-152 -60.5zM250 60q65 0 92.5 43t27.5 142v30q0 99 -27.5 142t-92.5 43q-64 0 -92 -43t-28 -142v-30q0 -99 28 -142t92 -43zM250 582
q-32 0 -51.5 18.5t-19.5 49.5q0 32 19.5 50t51.5 18t51.5 -18t19.5 -50q0 -31 -19.5 -49.5t-51.5 -18.5zM75 776v64h350v-64h-350z" />
    <glyph glyph-name="uni0232" unicode="&#x232;" vert-adv-y="1235" 
d="M209 0v285l-194 445h83l150 -359h4l150 359h83l-194 -445v-285h-82zM75 798v64h350v-64h-350z" />
    <glyph glyph-name="uni0233" unicode="&#x233;" vert-adv-y="1235" 
d="M55 -150q47 0 79.5 17.5t54.5 55.5t35 98l4 -40l-203 539h85l144 -410h4l132 410h85l-186 -549q-21 -61 -51.5 -104t-75 -65t-107.5 -22v70zM75 588v64h350v-64h-350z" />
    <glyph glyph-name="uni0237" unicode="&#x237;" 
d="M80 -150q93 0 136.5 45t43.5 142v413h-180v70h260v-477q0 -133 -64.5 -198t-195.5 -65v70z" />
    <glyph glyph-name="uni0259" unicode="&#x259;" vert-adv-y="1235" 
d="M214 530q117 0 174 -61t57 -189v-40q0 -129 -47 -189.5t-148 -60.5q-100 0 -147.5 60.5t-47.5 189.5v54h351v-65h-291l18 23v-9q0 -98 27.5 -141.5t89.5 -43.5t89.5 43.5t27.5 141.5v34q0 69 -15 109.5t-49.5 58t-94.5 17.5q-29 0 -59.5 -4t-65.5 -13v69q30 8 64.5 12
t66.5 4z" />
    <glyph glyph-name="uni02BC" unicode="&#x2bc;" 
d="M149 470l102 300h100l-122 -300h-80z" />
    <glyph glyph-name="circumflex" unicode="&#x2c6;" 
d="M50 780l133 220h134l133 -220h-96l-102 177h-4l-102 -177h-96z" />
    <glyph glyph-name="caron" unicode="&#x2c7;" 
d="M50 1000h96l102 -177h4l102 177h96l-133 -220h-134z" />
    <glyph glyph-name="uni02C9" unicode="&#x2c9;" 
d="M75 798v64h350v-64h-350z" />
    <glyph glyph-name="breve" unicode="&#x2d8;" 
d="M250 784q-84 0 -138.5 49t-61.5 131h84q8 -52 39 -82t77 -30q47 0 77.5 30t38.5 82h84q-7 -82 -61.5 -131t-138.5 -49z" />
    <glyph glyph-name="dotaccent" unicode="&#x2d9;" 
d="M250 792q-32 0 -51.5 18.5t-19.5 49.5q0 32 19.5 50t51.5 18t51.5 -18t19.5 -50q0 -31 -19.5 -49.5t-51.5 -18.5z" />
    <glyph glyph-name="ring" unicode="&#x2da;" 
d="M250 784q-39 0 -71.5 19t-51.5 51.5t-19 71.5q0 40 19 72t51.5 51t71.5 19q40 0 72 -19t51 -51t19 -72q0 -39 -19 -71.5t-51 -51.5t-72 -19zM250 844q35 0 58.5 24t23.5 58q0 35 -23.5 58.5t-58.5 23.5q-34 0 -58 -23.5t-24 -58.5q0 -34 24 -58t58 -24z" />
    <glyph glyph-name="ogonek" unicode="&#x2db;" 
d="M232 -218q-36 0 -62 10.5t-39.5 30t-13.5 47.5q0 40 27.5 78.5t79.5 72.5l70 -21q-49 -29 -76 -59.5t-27 -57.5q0 -13 6 -21t17 -11.5t24 -3.5q14 0 27 2t24 6v-66q-13 -4 -27 -5.5t-30 -1.5z" />
    <glyph glyph-name="tilde" unicode="&#x2dc;" 
d="M334 783q-28 0 -54 16t-63 53q-19 20 -29.5 27.5t-18.5 7.5q-15 0 -23 -24t-8 -70h-78q0 80 28 125t78 45q28 0 54 -15.5t63 -53.5q19 -19 29.5 -27t18.5 -8q15 0 23 24t8 70h78q0 -80 -28 -125t-78 -45z" />
    <glyph glyph-name="hungarumlaut" unicode="&#x2dd;" 
d="M337 780h-76l97 220h96zM138 780h-76l97 220h96z" />
    <glyph glyph-name="gravecomb" unicode="&#x300;" horiz-adv-x="0" 
d="M207 780l-122 220h100l102 -220h-80z" />
    <glyph glyph-name="acutecomb" unicode="&#x301;" horiz-adv-x="0" 
d="M293 780h-80l102 220h100z" />
    <glyph glyph-name="uni0302" unicode="&#x302;" horiz-adv-x="0" 
d="M50 780l133 220h134l133 -220h-96l-102 177h-4l-102 -177h-96z" />
    <glyph glyph-name="tildecomb" unicode="&#x303;" horiz-adv-x="0" 
d="M334 783q-28 0 -54 16t-63 53q-19 20 -29.5 27.5t-18.5 7.5q-15 0 -23 -24t-8 -70h-78q0 80 28 125t78 45q28 0 54 -15.5t63 -53.5q19 -19 29.5 -27t18.5 -8q15 0 23 24t8 70h78q0 -80 -28 -125t-78 -45z" />
    <glyph glyph-name="uni0304" unicode="&#x304;" horiz-adv-x="0" 
d="M75 798v64h350v-64h-350z" />
    <glyph glyph-name="uni0306" unicode="&#x306;" horiz-adv-x="0" 
d="M250 784q-84 0 -138.5 49t-61.5 131h84q8 -52 39 -82t77 -30q47 0 77.5 30t38.5 82h84q-7 -82 -61.5 -131t-138.5 -49z" />
    <glyph glyph-name="uni0307" unicode="&#x307;" horiz-adv-x="0" 
d="M250 792q-32 0 -51.5 18.5t-19.5 49.5q0 32 19.5 50t51.5 18t51.5 -18t19.5 -50q0 -31 -19.5 -49.5t-51.5 -18.5z" />
    <glyph glyph-name="uni0308" unicode="&#x308;" horiz-adv-x="0" 
d="M136 792q-32 0 -51.5 18.5t-19.5 49.5q0 32 19.5 50t51.5 18t51.5 -18t19.5 -50q0 -31 -19.5 -49.5t-51.5 -18.5zM364 792q-32 0 -51.5 18.5t-19.5 49.5q0 32 19.5 50t51.5 18t51.5 -18t19.5 -50q0 -31 -19.5 -49.5t-51.5 -18.5z" />
    <glyph glyph-name="hookabovecomb" unicode="&#x309;" horiz-adv-x="0" 
d="M232 820q55 26 55 49q0 36 -52 36q-31 0 -57 -5.5t-56 -13.5l-5 66q32 8 61 13t58 5q71 0 104 -22t33 -69q0 -25 -20.5 -50t-64.5 -55z" />
    <glyph glyph-name="uni030A" unicode="&#x30a;" horiz-adv-x="0" 
d="M250 784q-39 0 -71.5 19t-51.5 51.5t-19 71.5q0 40 19 72t51.5 51t71.5 19q40 0 72 -19t51 -51t19 -72q0 -39 -19 -71.5t-51 -51.5t-72 -19zM250 844q35 0 58.5 24t23.5 58q0 35 -23.5 58.5t-58.5 23.5q-34 0 -58 -23.5t-24 -58.5q0 -34 24 -58t58 -24z" />
    <glyph glyph-name="uni030B" unicode="&#x30b;" horiz-adv-x="0" 
d="M352 780h-76l97 220h96zM153 780h-76l97 220h96z" />
    <glyph glyph-name="uni030C" unicode="&#x30c;" horiz-adv-x="0" 
d="M50 1000h96l102 -177h4l102 177h96l-133 -220h-134z" />
    <glyph glyph-name="uni030F" unicode="&#x30f;" horiz-adv-x="0" 
d="M87 780l-117 220h96l97 -220h-76zM286 780l-117 220h96l97 -220h-76z" />
    <glyph glyph-name="uni0311" unicode="&#x311;" horiz-adv-x="0" 
d="M250 974q84 0 138.5 -49t61.5 -131h-84q-8 53 -38.5 82.5t-77.5 29.5q-46 0 -77 -29.5t-39 -82.5h-84q7 82 61.5 131t138.5 49z" />
    <glyph glyph-name="uni0312" unicode="&#x312;" horiz-adv-x="0" 
d="M302 1000h80l-102 -220h-100z" />
    <glyph glyph-name="uni031B" unicode="&#x31b;" horiz-adv-x="0" 
d="M243 652q-13 0 -28 6l-7 63h37q23 0 35.5 12t12.5 34q0 8 -2.5 21t-5.5 20h75q5 -13 7.5 -27.5t2.5 -28.5q0 -48 -32.5 -74t-94.5 -26z" />
    <glyph glyph-name="dotbelowcomb" unicode="&#x323;" horiz-adv-x="0" 
d="M250 -198q-32 0 -51.5 18.5t-19.5 49.5q0 32 19.5 50t51.5 18t51.5 -18t19.5 -50q0 -31 -19.5 -49.5t-51.5 -18.5z" />
    <glyph glyph-name="uni0324" unicode="&#x324;" horiz-adv-x="0" 
d="M136 -198q-32 0 -51.5 18.5t-19.5 49.5q0 32 19.5 50t51.5 18t51.5 -18t19.5 -50q0 -31 -19.5 -49.5t-51.5 -18.5zM364 -198q-32 0 -51.5 18.5t-19.5 49.5q0 32 19.5 50t51.5 18t51.5 -18t19.5 -50q0 -31 -19.5 -49.5t-51.5 -18.5z" />
    <glyph glyph-name="uni0326" unicode="&#x326;" horiz-adv-x="0" 
d="M155 -270h-80l102 220h100z" />
    <glyph glyph-name="uni0327" unicode="&#x327;" horiz-adv-x="0" 
d="M268 -218q-16 0 -30 1.5t-27 5.5v66q11 -4 24 -6t27 -2t24.5 3.5t16.5 11.5t6 21q0 27 -26.5 57.5t-76.5 59.5l70 21q52 -34 79.5 -72t27.5 -79q0 -28 -13.5 -47.5t-39 -30t-62.5 -10.5z" />
    <glyph glyph-name="uni0328" unicode="&#x328;" horiz-adv-x="0" 
d="M232 -218q-36 0 -62 10.5t-39.5 30t-13.5 47.5q0 40 27.5 78.5t79.5 72.5l70 -21q-49 -29 -76 -59.5t-27 -57.5q0 -13 6 -21t17 -11.5t24 -3.5q14 0 27 2t24 6v-66q-13 -4 -27 -5.5t-30 -1.5z" />
    <glyph glyph-name="uni032E" unicode="&#x32e;" horiz-adv-x="0" 
d="M250 -206q-84 0 -138.5 49t-61.5 131h84q8 -52 39 -82t77 -30q47 0 77.5 30t38.5 82h84q-7 -82 -61.5 -131t-138.5 -49z" />
    <glyph glyph-name="uni0331" unicode="&#x331;" horiz-adv-x="0" 
d="M75 -192v64h350v-64h-350z" />
    <glyph glyph-name="Wgrave" unicode="&#x1e80;" vert-adv-y="1235" 
d="M75 0l-65 730h82l40 -627h4l52 527h124l52 -527h4l40 627h82l-65 -730h-116l-57 538h-4l-57 -538h-116zM207 780l-122 220h100l102 -220h-80z" />
    <glyph glyph-name="wgrave" unicode="&#x1e81;" vert-adv-y="1235" 
d="M83 0l-73 520h80l50 -460h4l45 460h122l45 -460h4l50 460h80l-73 -520h-120l-45 465h-4l-45 -465h-120zM207 570l-122 220h100l102 -220h-80z" />
    <glyph glyph-name="Wacute" unicode="&#x1e82;" vert-adv-y="1235" 
d="M75 0l-65 730h82l40 -627h4l52 527h124l52 -527h4l40 627h82l-65 -730h-116l-57 538h-4l-57 -538h-116zM293 780h-80l102 220h100z" />
    <glyph glyph-name="wacute" unicode="&#x1e83;" vert-adv-y="1235" 
d="M83 0l-73 520h80l50 -460h4l45 460h122l45 -460h4l50 460h80l-73 -520h-120l-45 465h-4l-45 -465h-120zM293 570h-80l102 220h100z" />
    <glyph glyph-name="Wdieresis" unicode="&#x1e84;" vert-adv-y="1235" 
d="M75 0l-65 730h82l40 -627h4l52 527h124l52 -527h4l40 627h82l-65 -730h-116l-57 538h-4l-57 -538h-116zM136 792q-32 0 -51.5 18.5t-19.5 49.5q0 32 19.5 50t51.5 18t51.5 -18t19.5 -50q0 -31 -19.5 -49.5t-51.5 -18.5zM364 792q-32 0 -51.5 18.5t-19.5 49.5
q0 32 19.5 50t51.5 18t51.5 -18t19.5 -50q0 -31 -19.5 -49.5t-51.5 -18.5z" />
    <glyph glyph-name="wdieresis" unicode="&#x1e85;" vert-adv-y="1235" 
d="M83 0l-73 520h80l50 -460h4l45 460h122l45 -460h4l50 460h80l-73 -520h-120l-45 465h-4l-45 -465h-120zM136 582q-32 0 -51.5 18.5t-19.5 49.5q0 32 19.5 50t51.5 18t51.5 -18t19.5 -50q0 -31 -19.5 -49.5t-51.5 -18.5zM364 582q-32 0 -51.5 18.5t-19.5 49.5
q0 32 19.5 50t51.5 18t51.5 -18t19.5 -50q0 -31 -19.5 -49.5t-51.5 -18.5z" />
    <glyph glyph-name="uni1E9E" unicode="&#x1e9e;" 
d="M43 473q0 131 60 199t176 68q65 0 113 -25t78 -74l-48 -65q-25 45 -61 68.5t-82 23.5q-77 0 -116.5 -52t-39.5 -153v-463h-80v473zM295 -10q-22 0 -49 3.5t-51 11.5v73q21 -8 41.5 -12t42.5 -4q62 0 92 32.5t30 100.5q0 70 -33 100.5t-108 30.5h-10l-30 64l170 264
l80 -13l-156 -246v-4q86 -4 127.5 -52t41.5 -143q0 -102 -47.5 -154t-140.5 -52z" />
    <glyph glyph-name="uni1EA0" unicode="&#x1ea0;" vert-adv-y="1235" 
d="M20 0l181 730h98l181 -730h-82l-146 636h-4l-146 -636h-82zM112 200v70h276v-70h-276zM250 -198q-32 0 -51.5 18.5t-19.5 49.5q0 32 19.5 50t51.5 18t51.5 -18t19.5 -50q0 -31 -19.5 -49.5t-51.5 -18.5z" />
    <glyph glyph-name="uni1EA1" unicode="&#x1ea1;" vert-adv-y="1235" 
d="M261 -10q-100 0 -157 45.5t-57 124.5q0 83 63.5 125t187.5 42h90v-65h-89q-87 0 -129.5 -25t-42.5 -76q0 -48 35 -76t96 -28q32 0 62.5 8t51.5 21l-22 -46v298q0 51 -8 78t-31.5 36.5t-68.5 9.5q-29 0 -56 -3t-54 -9.5t-57 -17.5v69q35 14 80.5 21.5t94.5 7.5
q68 0 107 -17t55 -58.5t16 -114.5v-318q-31 -15 -77 -23.5t-90 -8.5zM250 -198q-32 0 -51.5 18.5t-19.5 49.5q0 32 19.5 50t51.5 18t51.5 -18t19.5 -50q0 -31 -19.5 -49.5t-51.5 -18.5z" />
    <glyph glyph-name="uni1EA2" unicode="&#x1ea2;" vert-adv-y="1235" 
d="M20 0l181 730h98l181 -730h-82l-146 636h-4l-146 -636h-82zM112 200v70h276v-70h-276zM227 820q55 26 55 49q0 36 -52 36q-31 0 -57 -5.5t-56 -13.5l-5 66q32 8 61 13t58 5q71 0 104 -22t33 -69q0 -25 -20.5 -50t-64.5 -55z" />
    <glyph glyph-name="uni1EA3" unicode="&#x1ea3;" vert-adv-y="1235" 
d="M261 -10q-100 0 -157 45.5t-57 124.5q0 83 63.5 125t187.5 42h90v-65h-89q-87 0 -129.5 -25t-42.5 -76q0 -48 35 -76t96 -28q32 0 62.5 8t51.5 21l-22 -46v298q0 51 -8 78t-31.5 36.5t-68.5 9.5q-29 0 -56 -3t-54 -9.5t-57 -17.5v69q35 14 80.5 21.5t94.5 7.5
q68 0 107 -17t55 -58.5t16 -114.5v-318q-31 -15 -77 -23.5t-90 -8.5zM227 610q55 26 55 49q0 36 -52 36q-31 0 -57 -5.5t-56 -13.5l-5 66q32 8 61 13t58 5q71 0 104 -22t33 -69q0 -25 -20.5 -50t-64.5 -55z" />
    <glyph glyph-name="uni1EA4" unicode="&#x1ea4;" vert-adv-y="1235" 
d="M20 0l181 730h98l181 -730h-82l-146 636h-4l-146 -636h-82zM112 200v70h276v-70h-276zM50 780l133 220h134l133 -220h-96l-102 177h-4l-102 -177h-96zM453 942h-80l102 220h100z" />
    <glyph glyph-name="uni1EA5" unicode="&#x1ea5;" vert-adv-y="1235" 
d="M261 -10q-100 0 -157 45.5t-57 124.5q0 83 63.5 125t187.5 42h90v-65h-89q-87 0 -129.5 -25t-42.5 -76q0 -48 35 -76t96 -28q32 0 62.5 8t51.5 21l-22 -46v298q0 51 -8 78t-31.5 36.5t-68.5 9.5q-29 0 -56 -3t-54 -9.5t-57 -17.5v69q35 14 80.5 21.5t94.5 7.5
q68 0 107 -17t55 -58.5t16 -114.5v-318q-31 -15 -77 -23.5t-90 -8.5zM50 570l133 220h134l133 -220h-96l-102 177h-4l-102 -177h-96zM453 732h-80l102 220h100z" />
    <glyph glyph-name="uni1EA6" unicode="&#x1ea6;" vert-adv-y="1235" 
d="M20 0l181 730h98l181 -730h-82l-146 636h-4l-146 -636h-82zM112 200v70h276v-70h-276zM50 780l133 220h134l133 -220h-96l-102 177h-4l-102 -177h-96zM397 942l-122 220h100l102 -220h-80z" />
    <glyph glyph-name="uni1EA7" unicode="&#x1ea7;" vert-adv-y="1235" 
d="M261 -10q-100 0 -157 45.5t-57 124.5q0 83 63.5 125t187.5 42h90v-65h-89q-87 0 -129.5 -25t-42.5 -76q0 -48 35 -76t96 -28q32 0 62.5 8t51.5 21l-22 -46v298q0 51 -8 78t-31.5 36.5t-68.5 9.5q-29 0 -56 -3t-54 -9.5t-57 -17.5v69q35 14 80.5 21.5t94.5 7.5
q68 0 107 -17t55 -58.5t16 -114.5v-318q-31 -15 -77 -23.5t-90 -8.5zM50 570l133 220h134l133 -220h-96l-102 177h-4l-102 -177h-96zM397 732l-122 220h100l102 -220h-80z" />
    <glyph glyph-name="uni1EA8" unicode="&#x1ea8;" vert-adv-y="1235" 
d="M20 0l181 730h98l181 -730h-82l-146 636h-4l-146 -636h-82zM112 200v70h276v-70h-276zM50 780l133 220h134l133 -220h-96l-102 177h-4l-102 -177h-96zM367 1000q55 26 55 49q0 36 -52 36q-31 0 -57 -5.5t-56 -13.5l-5 66q32 8 61 13t58 5q71 0 104 -22t33 -69
q0 -25 -20.5 -50t-64.5 -55z" />
    <glyph glyph-name="uni1EA9" unicode="&#x1ea9;" vert-adv-y="1235" 
d="M261 -10q-100 0 -157 45.5t-57 124.5q0 83 63.5 125t187.5 42h90v-65h-89q-87 0 -129.5 -25t-42.5 -76q0 -48 35 -76t96 -28q32 0 62.5 8t51.5 21l-22 -46v298q0 51 -8 78t-31.5 36.5t-68.5 9.5q-29 0 -56 -3t-54 -9.5t-57 -17.5v69q35 14 80.5 21.5t94.5 7.5
q68 0 107 -17t55 -58.5t16 -114.5v-318q-31 -15 -77 -23.5t-90 -8.5zM50 570l133 220h134l133 -220h-96l-102 177h-4l-102 -177h-96zM367 790q55 26 55 49q0 36 -52 36q-31 0 -57 -5.5t-56 -13.5l-5 66q32 8 61 13t58 5q71 0 104 -22t33 -69q0 -25 -20.5 -50t-64.5 -55z" />
    <glyph glyph-name="uni1EAA" unicode="&#x1eaa;" vert-adv-y="1235" 
d="M20 0l181 730h98l181 -730h-82l-146 636h-4l-146 -636h-82zM112 200v70h276v-70h-276zM50 780l133 220h134l133 -220h-96l-102 177h-4l-102 -177h-96zM334 1033q-28 0 -54 16t-63 53q-19 20 -29.5 27.5t-18.5 7.5q-15 0 -23 -24t-8 -70h-78q0 80 28 125t78 45
q28 0 54 -15.5t63 -53.5q19 -19 29.5 -27t18.5 -8q15 0 23 24t8 70h78q0 -80 -28 -125t-78 -45z" />
    <glyph glyph-name="uni1EAB" unicode="&#x1eab;" vert-adv-y="1235" 
d="M261 -10q-100 0 -157 45.5t-57 124.5q0 83 63.5 125t187.5 42h90v-65h-89q-87 0 -129.5 -25t-42.5 -76q0 -48 35 -76t96 -28q32 0 62.5 8t51.5 21l-22 -46v298q0 51 -8 78t-31.5 36.5t-68.5 9.5q-29 0 -56 -3t-54 -9.5t-57 -17.5v69q35 14 80.5 21.5t94.5 7.5
q68 0 107 -17t55 -58.5t16 -114.5v-318q-31 -15 -77 -23.5t-90 -8.5zM50 570l133 220h134l133 -220h-96l-102 177h-4l-102 -177h-96zM334 823q-28 0 -54 16t-63 53q-19 20 -29.5 27.5t-18.5 7.5q-15 0 -23 -24t-8 -70h-78q0 80 28 125t78 45q28 0 54 -15.5t63 -53.5
q19 -19 29.5 -27t18.5 -8q15 0 23 24t8 70h78q0 -80 -28 -125t-78 -45z" />
    <glyph glyph-name="uni1EAC" unicode="&#x1eac;" vert-adv-y="1235" 
d="M20 0l181 730h98l181 -730h-82l-146 636h-4l-146 -636h-82zM112 200v70h276v-70h-276zM250 -198q-32 0 -51.5 18.5t-19.5 49.5q0 32 19.5 50t51.5 18t51.5 -18t19.5 -50q0 -31 -19.5 -49.5t-51.5 -18.5zM50 780l133 220h134l133 -220h-96l-102 177h-4l-102 -177h-96z" />
    <glyph glyph-name="uni1EAD" unicode="&#x1ead;" vert-adv-y="1235" 
d="M261 -10q-100 0 -157 45.5t-57 124.5q0 83 63.5 125t187.5 42h90v-65h-89q-87 0 -129.5 -25t-42.5 -76q0 -48 35 -76t96 -28q32 0 62.5 8t51.5 21l-22 -46v298q0 51 -8 78t-31.5 36.5t-68.5 9.5q-29 0 -56 -3t-54 -9.5t-57 -17.5v69q35 14 80.5 21.5t94.5 7.5
q68 0 107 -17t55 -58.5t16 -114.5v-318q-31 -15 -77 -23.5t-90 -8.5zM250 -198q-32 0 -51.5 18.5t-19.5 49.5q0 32 19.5 50t51.5 18t51.5 -18t19.5 -50q0 -31 -19.5 -49.5t-51.5 -18.5zM50 570l133 220h134l133 -220h-96l-102 177h-4l-102 -177h-96z" />
    <glyph glyph-name="uni1EAE" unicode="&#x1eae;" vert-adv-y="1235" 
d="M20 0l181 730h98l181 -730h-82l-146 636h-4l-146 -636h-82zM112 200v70h276v-70h-276zM250 784q-84 0 -138.5 49t-61.5 131h84q8 -52 39 -82t77 -30q47 0 77.5 30t38.5 82h84q-7 -82 -61.5 -131t-138.5 -49zM283 960h-80l102 220h100z" />
    <glyph glyph-name="uni1EAF" unicode="&#x1eaf;" vert-adv-y="1235" 
d="M261 -10q-100 0 -157 45.5t-57 124.5q0 83 63.5 125t187.5 42h90v-65h-89q-87 0 -129.5 -25t-42.5 -76q0 -48 35 -76t96 -28q32 0 62.5 8t51.5 21l-22 -46v298q0 51 -8 78t-31.5 36.5t-68.5 9.5q-29 0 -56 -3t-54 -9.5t-57 -17.5v69q35 14 80.5 21.5t94.5 7.5
q68 0 107 -17t55 -58.5t16 -114.5v-318q-31 -15 -77 -23.5t-90 -8.5zM250 574q-84 0 -138.5 49t-61.5 131h84q8 -52 39 -82t77 -30q47 0 77.5 30t38.5 82h84q-7 -82 -61.5 -131t-138.5 -49zM283 750h-80l102 220h100z" />
    <glyph glyph-name="uni1EB0" unicode="&#x1eb0;" vert-adv-y="1235" 
d="M20 0l181 730h98l181 -730h-82l-146 636h-4l-146 -636h-82zM112 200v70h276v-70h-276zM250 784q-84 0 -138.5 49t-61.5 131h84q8 -52 39 -82t77 -30q47 0 77.5 30t38.5 82h84q-7 -82 -61.5 -131t-138.5 -49zM217 960l-122 220h100l102 -220h-80z" />
    <glyph glyph-name="uni1EB1" unicode="&#x1eb1;" vert-adv-y="1235" 
d="M261 -10q-100 0 -157 45.5t-57 124.5q0 83 63.5 125t187.5 42h90v-65h-89q-87 0 -129.5 -25t-42.5 -76q0 -48 35 -76t96 -28q32 0 62.5 8t51.5 21l-22 -46v298q0 51 -8 78t-31.5 36.5t-68.5 9.5q-29 0 -56 -3t-54 -9.5t-57 -17.5v69q35 14 80.5 21.5t94.5 7.5
q68 0 107 -17t55 -58.5t16 -114.5v-318q-31 -15 -77 -23.5t-90 -8.5zM250 574q-84 0 -138.5 49t-61.5 131h84q8 -52 39 -82t77 -30q47 0 77.5 30t38.5 82h84q-7 -82 -61.5 -131t-138.5 -49zM217 750l-122 220h100l102 -220h-80z" />
    <glyph glyph-name="uni1EB2" unicode="&#x1eb2;" vert-adv-y="1235" 
d="M20 0l181 730h98l181 -730h-82l-146 636h-4l-146 -636h-82zM112 200v70h276v-70h-276zM250 784q-84 0 -138.5 49t-61.5 131h84q8 -52 39 -82t77 -30q47 0 77.5 30t38.5 82h84q-7 -82 -61.5 -131t-138.5 -49zM227 1030q55 26 55 49q0 36 -52 36q-31 0 -57 -5.5t-56 -13.5
l-5 66q32 8 61 13t58 5q71 0 104 -22t33 -69q0 -25 -20.5 -50t-64.5 -55z" />
    <glyph glyph-name="uni1EB3" unicode="&#x1eb3;" vert-adv-y="1235" 
d="M261 -10q-100 0 -157 45.5t-57 124.5q0 83 63.5 125t187.5 42h90v-65h-89q-87 0 -129.5 -25t-42.5 -76q0 -48 35 -76t96 -28q32 0 62.5 8t51.5 21l-22 -46v298q0 51 -8 78t-31.5 36.5t-68.5 9.5q-29 0 -56 -3t-54 -9.5t-57 -17.5v69q35 14 80.5 21.5t94.5 7.5
q68 0 107 -17t55 -58.5t16 -114.5v-318q-31 -15 -77 -23.5t-90 -8.5zM250 574q-84 0 -138.5 49t-61.5 131h84q8 -52 39 -82t77 -30q47 0 77.5 30t38.5 82h84q-7 -82 -61.5 -131t-138.5 -49zM227 820q55 26 55 49q0 36 -52 36q-31 0 -57 -5.5t-56 -13.5l-5 66q32 8 61 13
t58 5q71 0 104 -22t33 -69q0 -25 -20.5 -50t-64.5 -55z" />
    <glyph glyph-name="uni1EB4" unicode="&#x1eb4;" vert-adv-y="1235" 
d="M20 0l181 730h98l181 -730h-82l-146 636h-4l-146 -636h-82zM112 200v70h276v-70h-276zM250 784q-84 0 -138.5 49t-61.5 131h84q8 -52 39 -82t77 -30q47 0 77.5 30t38.5 82h84q-7 -82 -61.5 -131t-138.5 -49zM334 1003q-28 0 -54 16t-63 53q-19 20 -29.5 27.5t-18.5 7.5
q-15 0 -23 -24t-8 -70h-78q0 80 28 125t78 45q28 0 54 -15.5t63 -53.5q19 -19 29.5 -27t18.5 -8q15 0 23 24t8 70h78q0 -80 -28 -125t-78 -45z" />
    <glyph glyph-name="uni1EB5" unicode="&#x1eb5;" vert-adv-y="1235" 
d="M261 -10q-100 0 -157 45.5t-57 124.5q0 83 63.5 125t187.5 42h90v-65h-89q-87 0 -129.5 -25t-42.5 -76q0 -48 35 -76t96 -28q32 0 62.5 8t51.5 21l-22 -46v298q0 51 -8 78t-31.5 36.5t-68.5 9.5q-29 0 -56 -3t-54 -9.5t-57 -17.5v69q35 14 80.5 21.5t94.5 7.5
q68 0 107 -17t55 -58.5t16 -114.5v-318q-31 -15 -77 -23.5t-90 -8.5zM250 574q-84 0 -138.5 49t-61.5 131h84q8 -52 39 -82t77 -30q47 0 77.5 30t38.5 82h84q-7 -82 -61.5 -131t-138.5 -49zM334 793q-28 0 -54 16t-63 53q-19 20 -29.5 27.5t-18.5 7.5q-15 0 -23 -24t-8 -70
h-78q0 80 28 125t78 45q28 0 54 -15.5t63 -53.5q19 -19 29.5 -27t18.5 -8q15 0 23 24t8 70h78q0 -80 -28 -125t-78 -45z" />
    <glyph glyph-name="uni1EB6" unicode="&#x1eb6;" vert-adv-y="1235" 
d="M20 0l181 730h98l181 -730h-82l-146 636h-4l-146 -636h-82zM112 200v70h276v-70h-276zM250 -198q-32 0 -51.5 18.5t-19.5 49.5q0 32 19.5 50t51.5 18t51.5 -18t19.5 -50q0 -31 -19.5 -49.5t-51.5 -18.5zM250 784q-84 0 -138.5 49t-61.5 131h84q8 -52 39 -82t77 -30
q47 0 77.5 30t38.5 82h84q-7 -82 -61.5 -131t-138.5 -49z" />
    <glyph glyph-name="uni1EB7" unicode="&#x1eb7;" vert-adv-y="1235" 
d="M261 -10q-100 0 -157 45.5t-57 124.5q0 83 63.5 125t187.5 42h90v-65h-89q-87 0 -129.5 -25t-42.5 -76q0 -48 35 -76t96 -28q32 0 62.5 8t51.5 21l-22 -46v298q0 51 -8 78t-31.5 36.5t-68.5 9.5q-29 0 -56 -3t-54 -9.5t-57 -17.5v69q35 14 80.5 21.5t94.5 7.5
q68 0 107 -17t55 -58.5t16 -114.5v-318q-31 -15 -77 -23.5t-90 -8.5zM250 -198q-32 0 -51.5 18.5t-19.5 49.5q0 32 19.5 50t51.5 18t51.5 -18t19.5 -50q0 -31 -19.5 -49.5t-51.5 -18.5zM250 574q-84 0 -138.5 49t-61.5 131h84q8 -52 39 -82t77 -30q47 0 77.5 30t38.5 82h84
q-7 -82 -61.5 -131t-138.5 -49z" />
    <glyph glyph-name="uni1EB8" unicode="&#x1eb8;" vert-adv-y="1235" 
d="M81 0v730h350v-70h-269v-239h259v-70h-259v-281h269v-70h-350zM250 -198q-32 0 -51.5 18.5t-19.5 49.5q0 32 19.5 50t51.5 18t51.5 -18t19.5 -50q0 -31 -19.5 -49.5t-51.5 -18.5z" />
    <glyph glyph-name="uni1EB9" unicode="&#x1eb9;" vert-adv-y="1235" 
d="M286 -10q-117 0 -174 61.5t-57 188.5v40q0 129 47.5 189.5t147.5 60.5q101 0 148 -60.5t47 -189.5v-54h-351v65h291l-18 -23v9q0 98 -27.5 141.5t-89.5 43.5t-89.5 -43.5t-27.5 -141.5v-34q0 -69 15 -109.5t50 -58t94 -17.5q29 0 59.5 4t65.5 13v-69q-30 -7 -64.5 -11.5
t-66.5 -4.5zM250 -198q-32 0 -51.5 18.5t-19.5 49.5q0 32 19.5 50t51.5 18t51.5 -18t19.5 -50q0 -31 -19.5 -49.5t-51.5 -18.5z" />
    <glyph glyph-name="uni1EBA" unicode="&#x1eba;" vert-adv-y="1235" 
d="M81 0v730h350v-70h-269v-239h259v-70h-259v-281h269v-70h-350zM227 820q55 26 55 49q0 36 -52 36q-31 0 -57 -5.5t-56 -13.5l-5 66q32 8 61 13t58 5q71 0 104 -22t33 -69q0 -25 -20.5 -50t-64.5 -55z" />
    <glyph glyph-name="uni1EBB" unicode="&#x1ebb;" vert-adv-y="1235" 
d="M286 -10q-117 0 -174 61.5t-57 188.5v40q0 129 47.5 189.5t147.5 60.5q101 0 148 -60.5t47 -189.5v-54h-351v65h291l-18 -23v9q0 98 -27.5 141.5t-89.5 43.5t-89.5 -43.5t-27.5 -141.5v-34q0 -69 15 -109.5t50 -58t94 -17.5q29 0 59.5 4t65.5 13v-69q-30 -7 -64.5 -11.5
t-66.5 -4.5zM227 610q55 26 55 49q0 36 -52 36q-31 0 -57 -5.5t-56 -13.5l-5 66q32 8 61 13t58 5q71 0 104 -22t33 -69q0 -25 -20.5 -50t-64.5 -55z" />
    <glyph glyph-name="uni1EBC" unicode="&#x1ebc;" vert-adv-y="1235" 
d="M81 0v730h350v-70h-269v-239h259v-70h-259v-281h269v-70h-350zM334 783q-28 0 -54 16t-63 53q-19 20 -29.5 27.5t-18.5 7.5q-15 0 -23 -24t-8 -70h-78q0 80 28 125t78 45q28 0 54 -15.5t63 -53.5q19 -19 29.5 -27t18.5 -8q15 0 23 24t8 70h78q0 -80 -28 -125t-78 -45z
" />
    <glyph glyph-name="uni1EBD" unicode="&#x1ebd;" vert-adv-y="1235" 
d="M286 -10q-117 0 -174 61.5t-57 188.5v40q0 129 47.5 189.5t147.5 60.5q101 0 148 -60.5t47 -189.5v-54h-351v65h291l-18 -23v9q0 98 -27.5 141.5t-89.5 43.5t-89.5 -43.5t-27.5 -141.5v-34q0 -69 15 -109.5t50 -58t94 -17.5q29 0 59.5 4t65.5 13v-69q-30 -7 -64.5 -11.5
t-66.5 -4.5zM334 573q-28 0 -54 16t-63 53q-19 20 -29.5 27.5t-18.5 7.5q-15 0 -23 -24t-8 -70h-78q0 80 28 125t78 45q28 0 54 -15.5t63 -53.5q19 -19 29.5 -27t18.5 -8q15 0 23 24t8 70h78q0 -80 -28 -125t-78 -45z" />
    <glyph glyph-name="uni1EBE" unicode="&#x1ebe;" vert-adv-y="1235" 
d="M81 0v730h350v-70h-269v-239h259v-70h-259v-281h269v-70h-350zM50 780l133 220h134l133 -220h-96l-102 177h-4l-102 -177h-96zM453 942h-80l102 220h100z" />
    <glyph glyph-name="uni1EBF" unicode="&#x1ebf;" vert-adv-y="1235" 
d="M286 -10q-117 0 -174 61.5t-57 188.5v40q0 129 47.5 189.5t147.5 60.5q101 0 148 -60.5t47 -189.5v-54h-351v65h291l-18 -23v9q0 98 -27.5 141.5t-89.5 43.5t-89.5 -43.5t-27.5 -141.5v-34q0 -69 15 -109.5t50 -58t94 -17.5q29 0 59.5 4t65.5 13v-69q-30 -7 -64.5 -11.5
t-66.5 -4.5zM50 570l133 220h134l133 -220h-96l-102 177h-4l-102 -177h-96zM453 732h-80l102 220h100z" />
    <glyph glyph-name="uni1EC0" unicode="&#x1ec0;" vert-adv-y="1235" 
d="M81 0v730h350v-70h-269v-239h259v-70h-259v-281h269v-70h-350zM50 780l133 220h134l133 -220h-96l-102 177h-4l-102 -177h-96zM397 942l-122 220h100l102 -220h-80z" />
    <glyph glyph-name="uni1EC1" unicode="&#x1ec1;" vert-adv-y="1235" 
d="M286 -10q-117 0 -174 61.5t-57 188.5v40q0 129 47.5 189.5t147.5 60.5q101 0 148 -60.5t47 -189.5v-54h-351v65h291l-18 -23v9q0 98 -27.5 141.5t-89.5 43.5t-89.5 -43.5t-27.5 -141.5v-34q0 -69 15 -109.5t50 -58t94 -17.5q29 0 59.5 4t65.5 13v-69q-30 -7 -64.5 -11.5
t-66.5 -4.5zM50 570l133 220h134l133 -220h-96l-102 177h-4l-102 -177h-96zM397 732l-122 220h100l102 -220h-80z" />
    <glyph glyph-name="uni1EC2" unicode="&#x1ec2;" vert-adv-y="1235" 
d="M81 0v730h350v-70h-269v-239h259v-70h-259v-281h269v-70h-350zM50 780l133 220h134l133 -220h-96l-102 177h-4l-102 -177h-96zM367 1000q55 26 55 49q0 36 -52 36q-31 0 -57 -5.5t-56 -13.5l-5 66q32 8 61 13t58 5q71 0 104 -22t33 -69q0 -25 -20.5 -50t-64.5 -55z" />
    <glyph glyph-name="uni1EC3" unicode="&#x1ec3;" vert-adv-y="1235" 
d="M286 -10q-117 0 -174 61.5t-57 188.5v40q0 129 47.5 189.5t147.5 60.5q101 0 148 -60.5t47 -189.5v-54h-351v65h291l-18 -23v9q0 98 -27.5 141.5t-89.5 43.5t-89.5 -43.5t-27.5 -141.5v-34q0 -69 15 -109.5t50 -58t94 -17.5q29 0 59.5 4t65.5 13v-69q-30 -7 -64.5 -11.5
t-66.5 -4.5zM50 570l133 220h134l133 -220h-96l-102 177h-4l-102 -177h-96zM367 790q55 26 55 49q0 36 -52 36q-31 0 -57 -5.5t-56 -13.5l-5 66q32 8 61 13t58 5q71 0 104 -22t33 -69q0 -25 -20.5 -50t-64.5 -55z" />
    <glyph glyph-name="uni1EC4" unicode="&#x1ec4;" vert-adv-y="1235" 
d="M81 0v730h350v-70h-269v-239h259v-70h-259v-281h269v-70h-350zM50 780l133 220h134l133 -220h-96l-102 177h-4l-102 -177h-96zM334 1033q-28 0 -54 16t-63 53q-19 20 -29.5 27.5t-18.5 7.5q-15 0 -23 -24t-8 -70h-78q0 80 28 125t78 45q28 0 54 -15.5t63 -53.5
q19 -19 29.5 -27t18.5 -8q15 0 23 24t8 70h78q0 -80 -28 -125t-78 -45z" />
    <glyph glyph-name="uni1EC5" unicode="&#x1ec5;" vert-adv-y="1235" 
d="M286 -10q-117 0 -174 61.5t-57 188.5v40q0 129 47.5 189.5t147.5 60.5q101 0 148 -60.5t47 -189.5v-54h-351v65h291l-18 -23v9q0 98 -27.5 141.5t-89.5 43.5t-89.5 -43.5t-27.5 -141.5v-34q0 -69 15 -109.5t50 -58t94 -17.5q29 0 59.5 4t65.5 13v-69q-30 -7 -64.5 -11.5
t-66.5 -4.5zM50 570l133 220h134l133 -220h-96l-102 177h-4l-102 -177h-96zM334 823q-28 0 -54 16t-63 53q-19 20 -29.5 27.5t-18.5 7.5q-15 0 -23 -24t-8 -70h-78q0 80 28 125t78 45q28 0 54 -15.5t63 -53.5q19 -19 29.5 -27t18.5 -8q15 0 23 24t8 70h78q0 -80 -28 -125
t-78 -45z" />
    <glyph glyph-name="uni1EC6" unicode="&#x1ec6;" vert-adv-y="1235" 
d="M81 0v730h350v-70h-269v-239h259v-70h-259v-281h269v-70h-350zM250 -198q-32 0 -51.5 18.5t-19.5 49.5q0 32 19.5 50t51.5 18t51.5 -18t19.5 -50q0 -31 -19.5 -49.5t-51.5 -18.5zM50 780l133 220h134l133 -220h-96l-102 177h-4l-102 -177h-96z" />
    <glyph glyph-name="uni1EC7" unicode="&#x1ec7;" vert-adv-y="1235" 
d="M286 -10q-117 0 -174 61.5t-57 188.5v40q0 129 47.5 189.5t147.5 60.5q101 0 148 -60.5t47 -189.5v-54h-351v65h291l-18 -23v9q0 98 -27.5 141.5t-89.5 43.5t-89.5 -43.5t-27.5 -141.5v-34q0 -69 15 -109.5t50 -58t94 -17.5q29 0 59.5 4t65.5 13v-69q-30 -7 -64.5 -11.5
t-66.5 -4.5zM250 -198q-32 0 -51.5 18.5t-19.5 49.5q0 32 19.5 50t51.5 18t51.5 -18t19.5 -50q0 -31 -19.5 -49.5t-51.5 -18.5zM50 570l133 220h134l133 -220h-96l-102 177h-4l-102 -177h-96z" />
    <glyph glyph-name="uni1EC8" unicode="&#x1ec8;" vert-adv-y="1235" 
d="M75 0v70h134v590h-134v70h350v-70h-134v-590h134v-70h-350zM227 820q55 26 55 49q0 36 -52 36q-31 0 -57 -5.5t-56 -13.5l-5 66q32 8 61 13t58 5q71 0 104 -22t33 -69q0 -25 -20.5 -50t-64.5 -55z" />
    <glyph glyph-name="uni1EC9" unicode="&#x1ec9;" vert-adv-y="1235" 
d="M260 0v450h-180v70h260v-520h-80zM277 610q55 26 55 49q0 36 -52 36q-31 0 -57 -5.5t-56 -13.5l-5 66q32 8 61 13t58 5q71 0 104 -22t33 -69q0 -25 -20.5 -50t-64.5 -55z" />
    <glyph glyph-name="uni1ECA" unicode="&#x1eca;" vert-adv-y="1235" 
d="M75 0v70h134v590h-134v70h350v-70h-134v-590h134v-70h-350zM250 -198q-32 0 -51.5 18.5t-19.5 49.5q0 32 19.5 50t51.5 18t51.5 -18t19.5 -50q0 -31 -19.5 -49.5t-51.5 -18.5z" />
    <glyph glyph-name="uni1ECB" unicode="&#x1ecb;" vert-adv-y="1235" 
d="M260 0v450h-180v70h260v-520h-80zM284 614q-32 0 -51.5 18.5t-19.5 49.5q0 32 19.5 50t51.5 18t51.5 -18t19.5 -50q0 -31 -19.5 -49.5t-51.5 -18.5zM300 -198q-32 0 -51.5 18.5t-19.5 49.5q0 32 19.5 50t51.5 18t51.5 -18t19.5 -50q0 -31 -19.5 -49.5t-51.5 -18.5z" />
    <glyph glyph-name="uni1ECC" unicode="&#x1ecc;" vert-adv-y="1235" 
d="M250 -10q-77 0 -123 33.5t-66.5 109.5t-20.5 202v60q0 127 20.5 202.5t66.5 109t123 33.5t123 -33.5t66.5 -109t20.5 -202.5v-60q0 -126 -20.5 -202t-66.5 -109.5t-123 -33.5zM250 62q50 0 77.5 24.5t39 85t11.5 168.5v50q0 108 -11.5 168.5t-39 85t-77.5 24.5
q-49 0 -77 -24.5t-39.5 -85t-11.5 -168.5v-50q0 -108 11.5 -168.5t39.5 -85t77 -24.5zM250 -198q-32 0 -51.5 18.5t-19.5 49.5q0 32 19.5 50t51.5 18t51.5 -18t19.5 -50q0 -31 -19.5 -49.5t-51.5 -18.5z" />
    <glyph glyph-name="uni1ECD" unicode="&#x1ecd;" vert-adv-y="1235" 
d="M250 -10q-103 0 -151.5 60.5t-48.5 189.5v40q0 129 48.5 189.5t151.5 60.5q104 0 152 -60.5t48 -189.5v-40q0 -129 -48 -189.5t-152 -60.5zM250 60q65 0 92.5 43t27.5 142v30q0 99 -27.5 142t-92.5 43q-64 0 -92 -43t-28 -142v-30q0 -99 28 -142t92 -43zM250 -198
q-32 0 -51.5 18.5t-19.5 49.5q0 32 19.5 50t51.5 18t51.5 -18t19.5 -50q0 -31 -19.5 -49.5t-51.5 -18.5z" />
    <glyph glyph-name="uni1ECE" unicode="&#x1ece;" vert-adv-y="1235" 
d="M250 -10q-77 0 -123 33.5t-66.5 109.5t-20.5 202v60q0 127 20.5 202.5t66.5 109t123 33.5t123 -33.5t66.5 -109t20.5 -202.5v-60q0 -126 -20.5 -202t-66.5 -109.5t-123 -33.5zM250 62q50 0 77.5 24.5t39 85t11.5 168.5v50q0 108 -11.5 168.5t-39 85t-77.5 24.5
q-49 0 -77 -24.5t-39.5 -85t-11.5 -168.5v-50q0 -108 11.5 -168.5t39.5 -85t77 -24.5zM227 820q55 26 55 49q0 36 -52 36q-31 0 -57 -5.5t-56 -13.5l-5 66q32 8 61 13t58 5q71 0 104 -22t33 -69q0 -25 -20.5 -50t-64.5 -55z" />
    <glyph glyph-name="uni1ECF" unicode="&#x1ecf;" vert-adv-y="1235" 
d="M250 -10q-103 0 -151.5 60.5t-48.5 189.5v40q0 129 48.5 189.5t151.5 60.5q104 0 152 -60.5t48 -189.5v-40q0 -129 -48 -189.5t-152 -60.5zM250 60q65 0 92.5 43t27.5 142v30q0 99 -27.5 142t-92.5 43q-64 0 -92 -43t-28 -142v-30q0 -99 28 -142t92 -43zM227 610
q55 26 55 49q0 36 -52 36q-31 0 -57 -5.5t-56 -13.5l-5 66q32 8 61 13t58 5q71 0 104 -22t33 -69q0 -25 -20.5 -50t-64.5 -55z" />
    <glyph glyph-name="uni1ED0" unicode="&#x1ed0;" vert-adv-y="1235" 
d="M250 -10q-77 0 -123 33.5t-66.5 109.5t-20.5 202v60q0 127 20.5 202.5t66.5 109t123 33.5t123 -33.5t66.5 -109t20.5 -202.5v-60q0 -126 -20.5 -202t-66.5 -109.5t-123 -33.5zM250 62q50 0 77.5 24.5t39 85t11.5 168.5v50q0 108 -11.5 168.5t-39 85t-77.5 24.5
q-49 0 -77 -24.5t-39.5 -85t-11.5 -168.5v-50q0 -108 11.5 -168.5t39.5 -85t77 -24.5zM50 780l133 220h134l133 -220h-96l-102 177h-4l-102 -177h-96zM453 942h-80l102 220h100z" />
    <glyph glyph-name="uni1ED1" unicode="&#x1ed1;" vert-adv-y="1235" 
d="M250 -10q-103 0 -151.5 60.5t-48.5 189.5v40q0 129 48.5 189.5t151.5 60.5q104 0 152 -60.5t48 -189.5v-40q0 -129 -48 -189.5t-152 -60.5zM250 60q65 0 92.5 43t27.5 142v30q0 99 -27.5 142t-92.5 43q-64 0 -92 -43t-28 -142v-30q0 -99 28 -142t92 -43zM50 570l133 220
h134l133 -220h-96l-102 177h-4l-102 -177h-96zM453 732h-80l102 220h100z" />
    <glyph glyph-name="uni1ED2" unicode="&#x1ed2;" vert-adv-y="1235" 
d="M250 -10q-77 0 -123 33.5t-66.5 109.5t-20.5 202v60q0 127 20.5 202.5t66.5 109t123 33.5t123 -33.5t66.5 -109t20.5 -202.5v-60q0 -126 -20.5 -202t-66.5 -109.5t-123 -33.5zM250 62q50 0 77.5 24.5t39 85t11.5 168.5v50q0 108 -11.5 168.5t-39 85t-77.5 24.5
q-49 0 -77 -24.5t-39.5 -85t-11.5 -168.5v-50q0 -108 11.5 -168.5t39.5 -85t77 -24.5zM50 780l133 220h134l133 -220h-96l-102 177h-4l-102 -177h-96zM397 942l-122 220h100l102 -220h-80z" />
    <glyph glyph-name="uni1ED3" unicode="&#x1ed3;" vert-adv-y="1235" 
d="M250 -10q-103 0 -151.5 60.5t-48.5 189.5v40q0 129 48.5 189.5t151.5 60.5q104 0 152 -60.5t48 -189.5v-40q0 -129 -48 -189.5t-152 -60.5zM250 60q65 0 92.5 43t27.5 142v30q0 99 -27.5 142t-92.5 43q-64 0 -92 -43t-28 -142v-30q0 -99 28 -142t92 -43zM50 570l133 220
h134l133 -220h-96l-102 177h-4l-102 -177h-96zM397 732l-122 220h100l102 -220h-80z" />
    <glyph glyph-name="uni1ED4" unicode="&#x1ed4;" vert-adv-y="1235" 
d="M250 -10q-77 0 -123 33.5t-66.5 109.5t-20.5 202v60q0 127 20.5 202.5t66.5 109t123 33.5t123 -33.5t66.5 -109t20.5 -202.5v-60q0 -126 -20.5 -202t-66.5 -109.5t-123 -33.5zM250 62q50 0 77.5 24.5t39 85t11.5 168.5v50q0 108 -11.5 168.5t-39 85t-77.5 24.5
q-49 0 -77 -24.5t-39.5 -85t-11.5 -168.5v-50q0 -108 11.5 -168.5t39.5 -85t77 -24.5zM50 780l133 220h134l133 -220h-96l-102 177h-4l-102 -177h-96zM367 1000q55 26 55 49q0 36 -52 36q-31 0 -57 -5.5t-56 -13.5l-5 66q32 8 61 13t58 5q71 0 104 -22t33 -69
q0 -25 -20.5 -50t-64.5 -55z" />
    <glyph glyph-name="uni1ED5" unicode="&#x1ed5;" vert-adv-y="1235" 
d="M250 -10q-103 0 -151.5 60.5t-48.5 189.5v40q0 129 48.5 189.5t151.5 60.5q104 0 152 -60.5t48 -189.5v-40q0 -129 -48 -189.5t-152 -60.5zM250 60q65 0 92.5 43t27.5 142v30q0 99 -27.5 142t-92.5 43q-64 0 -92 -43t-28 -142v-30q0 -99 28 -142t92 -43zM50 570l133 220
h134l133 -220h-96l-102 177h-4l-102 -177h-96zM367 790q55 26 55 49q0 36 -52 36q-31 0 -57 -5.5t-56 -13.5l-5 66q32 8 61 13t58 5q71 0 104 -22t33 -69q0 -25 -20.5 -50t-64.5 -55z" />
    <glyph glyph-name="uni1ED6" unicode="&#x1ed6;" vert-adv-y="1235" 
d="M250 -10q-77 0 -123 33.5t-66.5 109.5t-20.5 202v60q0 127 20.5 202.5t66.5 109t123 33.5t123 -33.5t66.5 -109t20.5 -202.5v-60q0 -126 -20.5 -202t-66.5 -109.5t-123 -33.5zM250 62q50 0 77.5 24.5t39 85t11.5 168.5v50q0 108 -11.5 168.5t-39 85t-77.5 24.5
q-49 0 -77 -24.5t-39.5 -85t-11.5 -168.5v-50q0 -108 11.5 -168.5t39.5 -85t77 -24.5zM50 780l133 220h134l133 -220h-96l-102 177h-4l-102 -177h-96zM334 1033q-28 0 -54 16t-63 53q-19 20 -29.5 27.5t-18.5 7.5q-15 0 -23 -24t-8 -70h-78q0 80 28 125t78 45q28 0 54 -15.5
t63 -53.5q19 -19 29.5 -27t18.5 -8q15 0 23 24t8 70h78q0 -80 -28 -125t-78 -45z" />
    <glyph glyph-name="uni1ED7" unicode="&#x1ed7;" vert-adv-y="1235" 
d="M250 -10q-103 0 -151.5 60.5t-48.5 189.5v40q0 129 48.5 189.5t151.5 60.5q104 0 152 -60.5t48 -189.5v-40q0 -129 -48 -189.5t-152 -60.5zM250 60q65 0 92.5 43t27.5 142v30q0 99 -27.5 142t-92.5 43q-64 0 -92 -43t-28 -142v-30q0 -99 28 -142t92 -43zM50 570l133 220
h134l133 -220h-96l-102 177h-4l-102 -177h-96zM334 823q-28 0 -54 16t-63 53q-19 20 -29.5 27.5t-18.5 7.5q-15 0 -23 -24t-8 -70h-78q0 80 28 125t78 45q28 0 54 -15.5t63 -53.5q19 -19 29.5 -27t18.5 -8q15 0 23 24t8 70h78q0 -80 -28 -125t-78 -45z" />
    <glyph glyph-name="uni1ED8" unicode="&#x1ed8;" vert-adv-y="1235" 
d="M250 -10q-77 0 -123 33.5t-66.5 109.5t-20.5 202v60q0 127 20.5 202.5t66.5 109t123 33.5t123 -33.5t66.5 -109t20.5 -202.5v-60q0 -126 -20.5 -202t-66.5 -109.5t-123 -33.5zM250 62q50 0 77.5 24.5t39 85t11.5 168.5v50q0 108 -11.5 168.5t-39 85t-77.5 24.5
q-49 0 -77 -24.5t-39.5 -85t-11.5 -168.5v-50q0 -108 11.5 -168.5t39.5 -85t77 -24.5zM250 -198q-32 0 -51.5 18.5t-19.5 49.5q0 32 19.5 50t51.5 18t51.5 -18t19.5 -50q0 -31 -19.5 -49.5t-51.5 -18.5zM50 780l133 220h134l133 -220h-96l-102 177h-4l-102 -177h-96z" />
    <glyph glyph-name="uni1ED9" unicode="&#x1ed9;" vert-adv-y="1235" 
d="M250 -10q-103 0 -151.5 60.5t-48.5 189.5v40q0 129 48.5 189.5t151.5 60.5q104 0 152 -60.5t48 -189.5v-40q0 -129 -48 -189.5t-152 -60.5zM250 60q65 0 92.5 43t27.5 142v30q0 99 -27.5 142t-92.5 43q-64 0 -92 -43t-28 -142v-30q0 -99 28 -142t92 -43zM250 -198
q-32 0 -51.5 18.5t-19.5 49.5q0 32 19.5 50t51.5 18t51.5 -18t19.5 -50q0 -31 -19.5 -49.5t-51.5 -18.5zM50 570l133 220h134l133 -220h-96l-102 177h-4l-102 -177h-96z" />
    <glyph glyph-name="uni1EDA" unicode="&#x1eda;" vert-adv-y="1235" 
d="M363 657q-17 0 -33.5 1.5t-34.5 4.5l13 63h57q27 0 42.5 15t15.5 41q0 8 -2.5 21t-5.5 20h75q5 -13 7.5 -27.5t2.5 -28.5q0 -52 -35.5 -81t-101.5 -29zM250 -10q-77 0 -123 33.5t-66.5 109.5t-20.5 202v60q0 127 20.5 202.5t66.5 109t123 33.5t123 -33.5t66.5 -109
t20.5 -202.5v-60q0 -126 -20.5 -202t-66.5 -109.5t-123 -33.5zM250 62q50 0 77.5 24.5t39 85t11.5 168.5v50q0 108 -11.5 168.5t-39 85t-77.5 24.5q-49 0 -77 -24.5t-39.5 -85t-11.5 -168.5v-50q0 -108 11.5 -168.5t39.5 -85t77 -24.5zM293 780h-80l102 220h100z" />
    <glyph glyph-name="uni1EDB" unicode="&#x1edb;" vert-adv-y="1235" 
d="M248 -10q-103 0 -151.5 60.5t-48.5 189.5v40q0 129 48.5 189.5t151.5 60.5q104 0 152 -60.5t48 -189.5v-40q0 -129 -48 -189.5t-152 -60.5zM248 60q65 0 92.5 43t27.5 142v30q0 99 -27.5 142t-92.5 43q-64 0 -92 -43t-28 -142v-30q0 -99 28 -142t92 -43zM381 421
q-13 0 -28 6l-7 63h37q23 0 35.5 12t12.5 34q0 8 -2.5 21t-5.5 20h75q5 -13 7.5 -27.5t2.5 -28.5q0 -48 -32.5 -74t-94.5 -26zM291 570h-80l102 220h100z" />
    <glyph glyph-name="uni1EDC" unicode="&#x1edc;" vert-adv-y="1235" 
d="M363 657q-17 0 -33.5 1.5t-34.5 4.5l13 63h57q27 0 42.5 15t15.5 41q0 8 -2.5 21t-5.5 20h75q5 -13 7.5 -27.5t2.5 -28.5q0 -52 -35.5 -81t-101.5 -29zM250 -10q-77 0 -123 33.5t-66.5 109.5t-20.5 202v60q0 127 20.5 202.5t66.5 109t123 33.5t123 -33.5t66.5 -109
t20.5 -202.5v-60q0 -126 -20.5 -202t-66.5 -109.5t-123 -33.5zM250 62q50 0 77.5 24.5t39 85t11.5 168.5v50q0 108 -11.5 168.5t-39 85t-77.5 24.5q-49 0 -77 -24.5t-39.5 -85t-11.5 -168.5v-50q0 -108 11.5 -168.5t39.5 -85t77 -24.5zM207 780l-122 220h100l102 -220h-80z
" />
    <glyph glyph-name="uni1EDD" unicode="&#x1edd;" vert-adv-y="1235" 
d="M248 -10q-103 0 -151.5 60.5t-48.5 189.5v40q0 129 48.5 189.5t151.5 60.5q104 0 152 -60.5t48 -189.5v-40q0 -129 -48 -189.5t-152 -60.5zM248 60q65 0 92.5 43t27.5 142v30q0 99 -27.5 142t-92.5 43q-64 0 -92 -43t-28 -142v-30q0 -99 28 -142t92 -43zM381 421
q-13 0 -28 6l-7 63h37q23 0 35.5 12t12.5 34q0 8 -2.5 21t-5.5 20h75q5 -13 7.5 -27.5t2.5 -28.5q0 -48 -32.5 -74t-94.5 -26zM205 570l-122 220h100l102 -220h-80z" />
    <glyph glyph-name="uni1EDE" unicode="&#x1ede;" vert-adv-y="1235" 
d="M363 657q-17 0 -33.5 1.5t-34.5 4.5l13 63h57q27 0 42.5 15t15.5 41q0 8 -2.5 21t-5.5 20h75q5 -13 7.5 -27.5t2.5 -28.5q0 -52 -35.5 -81t-101.5 -29zM250 -10q-77 0 -123 33.5t-66.5 109.5t-20.5 202v60q0 127 20.5 202.5t66.5 109t123 33.5t123 -33.5t66.5 -109
t20.5 -202.5v-60q0 -126 -20.5 -202t-66.5 -109.5t-123 -33.5zM250 62q50 0 77.5 24.5t39 85t11.5 168.5v50q0 108 -11.5 168.5t-39 85t-77.5 24.5q-49 0 -77 -24.5t-39.5 -85t-11.5 -168.5v-50q0 -108 11.5 -168.5t39.5 -85t77 -24.5zM227 820q55 26 55 49q0 36 -52 36
q-31 0 -57 -5.5t-56 -13.5l-5 66q32 8 61 13t58 5q71 0 104 -22t33 -69q0 -25 -20.5 -50t-64.5 -55z" />
    <glyph glyph-name="uni1EDF" unicode="&#x1edf;" vert-adv-y="1235" 
d="M248 -10q-103 0 -151.5 60.5t-48.5 189.5v40q0 129 48.5 189.5t151.5 60.5q104 0 152 -60.5t48 -189.5v-40q0 -129 -48 -189.5t-152 -60.5zM248 60q65 0 92.5 43t27.5 142v30q0 99 -27.5 142t-92.5 43q-64 0 -92 -43t-28 -142v-30q0 -99 28 -142t92 -43zM381 421
q-13 0 -28 6l-7 63h37q23 0 35.5 12t12.5 34q0 8 -2.5 21t-5.5 20h75q5 -13 7.5 -27.5t2.5 -28.5q0 -48 -32.5 -74t-94.5 -26zM225 610q55 26 55 49q0 36 -52 36q-31 0 -57 -5.5t-56 -13.5l-5 66q32 8 61 13t58 5q71 0 104 -22t33 -69q0 -25 -20.5 -50t-64.5 -55z" />
    <glyph glyph-name="uni1EE0" unicode="&#x1ee0;" vert-adv-y="1235" 
d="M363 657q-17 0 -33.5 1.5t-34.5 4.5l13 63h57q27 0 42.5 15t15.5 41q0 8 -2.5 21t-5.5 20h75q5 -13 7.5 -27.5t2.5 -28.5q0 -52 -35.5 -81t-101.5 -29zM250 -10q-77 0 -123 33.5t-66.5 109.5t-20.5 202v60q0 127 20.5 202.5t66.5 109t123 33.5t123 -33.5t66.5 -109
t20.5 -202.5v-60q0 -126 -20.5 -202t-66.5 -109.5t-123 -33.5zM250 62q50 0 77.5 24.5t39 85t11.5 168.5v50q0 108 -11.5 168.5t-39 85t-77.5 24.5q-49 0 -77 -24.5t-39.5 -85t-11.5 -168.5v-50q0 -108 11.5 -168.5t39.5 -85t77 -24.5zM334 783q-28 0 -54 16t-63 53
q-19 20 -29.5 27.5t-18.5 7.5q-15 0 -23 -24t-8 -70h-78q0 80 28 125t78 45q28 0 54 -15.5t63 -53.5q19 -19 29.5 -27t18.5 -8q15 0 23 24t8 70h78q0 -80 -28 -125t-78 -45z" />
    <glyph glyph-name="uni1EE1" unicode="&#x1ee1;" vert-adv-y="1235" 
d="M248 -10q-103 0 -151.5 60.5t-48.5 189.5v40q0 129 48.5 189.5t151.5 60.5q104 0 152 -60.5t48 -189.5v-40q0 -129 -48 -189.5t-152 -60.5zM248 60q65 0 92.5 43t27.5 142v30q0 99 -27.5 142t-92.5 43q-64 0 -92 -43t-28 -142v-30q0 -99 28 -142t92 -43zM381 421
q-13 0 -28 6l-7 63h37q23 0 35.5 12t12.5 34q0 8 -2.5 21t-5.5 20h75q5 -13 7.5 -27.5t2.5 -28.5q0 -48 -32.5 -74t-94.5 -26zM332 573q-28 0 -54 16t-63 53q-19 20 -29.5 27.5t-18.5 7.5q-15 0 -23 -24t-8 -70h-78q0 80 28 125t78 45q28 0 54 -15.5t63 -53.5
q19 -19 29.5 -27t18.5 -8q15 0 23 24t8 70h78q0 -80 -28 -125t-78 -45z" />
    <glyph glyph-name="uni1EE2" unicode="&#x1ee2;" vert-adv-y="1235" 
d="M363 657q-17 0 -33.5 1.5t-34.5 4.5l13 63h57q27 0 42.5 15t15.5 41q0 8 -2.5 21t-5.5 20h75q5 -13 7.5 -27.5t2.5 -28.5q0 -52 -35.5 -81t-101.5 -29zM250 -10q-77 0 -123 33.5t-66.5 109.5t-20.5 202v60q0 127 20.5 202.5t66.5 109t123 33.5t123 -33.5t66.5 -109
t20.5 -202.5v-60q0 -126 -20.5 -202t-66.5 -109.5t-123 -33.5zM250 62q50 0 77.5 24.5t39 85t11.5 168.5v50q0 108 -11.5 168.5t-39 85t-77.5 24.5q-49 0 -77 -24.5t-39.5 -85t-11.5 -168.5v-50q0 -108 11.5 -168.5t39.5 -85t77 -24.5zM250 -198q-32 0 -51.5 18.5
t-19.5 49.5q0 32 19.5 50t51.5 18t51.5 -18t19.5 -50q0 -31 -19.5 -49.5t-51.5 -18.5z" />
    <glyph glyph-name="uni1EE3" unicode="&#x1ee3;" vert-adv-y="1235" 
d="M248 -10q-103 0 -151.5 60.5t-48.5 189.5v40q0 129 48.5 189.5t151.5 60.5q104 0 152 -60.5t48 -189.5v-40q0 -129 -48 -189.5t-152 -60.5zM248 60q65 0 92.5 43t27.5 142v30q0 99 -27.5 142t-92.5 43q-64 0 -92 -43t-28 -142v-30q0 -99 28 -142t92 -43zM381 421
q-13 0 -28 6l-7 63h37q23 0 35.5 12t12.5 34q0 8 -2.5 21t-5.5 20h75q5 -13 7.5 -27.5t2.5 -28.5q0 -48 -32.5 -74t-94.5 -26zM248 -198q-32 0 -51.5 18.5t-19.5 49.5q0 32 19.5 50t51.5 18t51.5 -18t19.5 -50q0 -31 -19.5 -49.5t-51.5 -18.5z" />
    <glyph glyph-name="uni1EE4" unicode="&#x1ee4;" vert-adv-y="1235" 
d="M250 -10q-100 0 -147.5 49.5t-47.5 155.5v535h80v-527q0 -75 27 -108t88 -33q62 0 88.5 33t26.5 108v527h80v-535q0 -106 -47 -155.5t-148 -49.5zM250 -198q-32 0 -51.5 18.5t-19.5 49.5q0 32 19.5 50t51.5 18t51.5 -18t19.5 -50q0 -31 -19.5 -49.5t-51.5 -18.5z" />
    <glyph glyph-name="uni1EE5" unicode="&#x1ee5;" vert-adv-y="1235" 
d="M259 -10q-74 0 -116.5 17t-60 58.5t-17.5 114.5v340h78v-336q0 -48 10 -75t35.5 -38t71.5 -11q24 0 43.5 3t39 10t42.5 19l-28 -50v478h78v-498q-37 -16 -80 -24t-96 -8zM250 -198q-32 0 -51.5 18.5t-19.5 49.5q0 32 19.5 50t51.5 18t51.5 -18t19.5 -50
q0 -31 -19.5 -49.5t-51.5 -18.5z" />
    <glyph glyph-name="uni1EE6" unicode="&#x1ee6;" vert-adv-y="1235" 
d="M250 -10q-100 0 -147.5 49.5t-47.5 155.5v535h80v-527q0 -75 27 -108t88 -33q62 0 88.5 33t26.5 108v527h80v-535q0 -106 -47 -155.5t-148 -49.5zM227 820q55 26 55 49q0 36 -52 36q-31 0 -57 -5.5t-56 -13.5l-5 66q32 8 61 13t58 5q71 0 104 -22t33 -69q0 -25 -20.5 -50
t-64.5 -55z" />
    <glyph glyph-name="uni1EE7" unicode="&#x1ee7;" vert-adv-y="1235" 
d="M259 -10q-74 0 -116.5 17t-60 58.5t-17.5 114.5v340h78v-336q0 -48 10 -75t35.5 -38t71.5 -11q24 0 43.5 3t39 10t42.5 19l-28 -50v478h78v-498q-37 -16 -80 -24t-96 -8zM227 610q55 26 55 49q0 36 -52 36q-31 0 -57 -5.5t-56 -13.5l-5 66q32 8 61 13t58 5q71 0 104 -22
t33 -69q0 -25 -20.5 -50t-64.5 -55z" />
    <glyph glyph-name="uni1EE8" unicode="&#x1ee8;" vert-adv-y="1235" 
d="M250 -10q-100 0 -147.5 49.5t-47.5 155.5v535h80v-527q0 -75 27 -108t88 -33q62 0 88.5 33t26.5 108v527h80v-535q0 -106 -47 -155.5t-148 -49.5zM413 661q-13 0 -28 6l-7 63h37q23 0 35.5 12t12.5 34q0 8 -2.5 21t-5.5 20h75q5 -13 7.5 -27.5t2.5 -28.5q0 -48 -32.5 -74
t-94.5 -26zM293 780h-80l102 220h100z" />
    <glyph glyph-name="uni1EE9" unicode="&#x1ee9;" vert-adv-y="1235" 
d="M257 -10q-74 0 -116.5 17t-60 58.5t-17.5 114.5v340h78v-336q0 -48 10 -75t35.5 -38t71.5 -11q24 0 43.5 3t39 10t42.5 19l-28 -50v478h78v-498q-37 -16 -80 -24t-96 -8zM394 451q-13 0 -28 6l-7 63h37q23 0 35.5 12t12.5 34q0 8 -2.5 21t-5.5 20h75q5 -13 7.5 -27.5
t2.5 -28.5q0 -48 -32.5 -74t-94.5 -26zM291 570h-80l102 220h100z" />
    <glyph glyph-name="uni1EEA" unicode="&#x1eea;" vert-adv-y="1235" 
d="M250 -10q-100 0 -147.5 49.5t-47.5 155.5v535h80v-527q0 -75 27 -108t88 -33q62 0 88.5 33t26.5 108v527h80v-535q0 -106 -47 -155.5t-148 -49.5zM413 661q-13 0 -28 6l-7 63h37q23 0 35.5 12t12.5 34q0 8 -2.5 21t-5.5 20h75q5 -13 7.5 -27.5t2.5 -28.5q0 -48 -32.5 -74
t-94.5 -26zM207 780l-122 220h100l102 -220h-80z" />
    <glyph glyph-name="uni1EEB" unicode="&#x1eeb;" vert-adv-y="1235" 
d="M257 -10q-74 0 -116.5 17t-60 58.5t-17.5 114.5v340h78v-336q0 -48 10 -75t35.5 -38t71.5 -11q24 0 43.5 3t39 10t42.5 19l-28 -50v478h78v-498q-37 -16 -80 -24t-96 -8zM394 451q-13 0 -28 6l-7 63h37q23 0 35.5 12t12.5 34q0 8 -2.5 21t-5.5 20h75q5 -13 7.5 -27.5
t2.5 -28.5q0 -48 -32.5 -74t-94.5 -26zM205 570l-122 220h100l102 -220h-80z" />
    <glyph glyph-name="uni1EEC" unicode="&#x1eec;" vert-adv-y="1235" 
d="M250 -10q-100 0 -147.5 49.5t-47.5 155.5v535h80v-527q0 -75 27 -108t88 -33q62 0 88.5 33t26.5 108v527h80v-535q0 -106 -47 -155.5t-148 -49.5zM413 661q-13 0 -28 6l-7 63h37q23 0 35.5 12t12.5 34q0 8 -2.5 21t-5.5 20h75q5 -13 7.5 -27.5t2.5 -28.5q0 -48 -32.5 -74
t-94.5 -26zM227 820q55 26 55 49q0 36 -52 36q-31 0 -57 -5.5t-56 -13.5l-5 66q32 8 61 13t58 5q71 0 104 -22t33 -69q0 -25 -20.5 -50t-64.5 -55z" />
    <glyph glyph-name="uni1EED" unicode="&#x1eed;" vert-adv-y="1235" 
d="M257 -10q-74 0 -116.5 17t-60 58.5t-17.5 114.5v340h78v-336q0 -48 10 -75t35.5 -38t71.5 -11q24 0 43.5 3t39 10t42.5 19l-28 -50v478h78v-498q-37 -16 -80 -24t-96 -8zM394 451q-13 0 -28 6l-7 63h37q23 0 35.5 12t12.5 34q0 8 -2.5 21t-5.5 20h75q5 -13 7.5 -27.5
t2.5 -28.5q0 -48 -32.5 -74t-94.5 -26zM225 610q55 26 55 49q0 36 -52 36q-31 0 -57 -5.5t-56 -13.5l-5 66q32 8 61 13t58 5q71 0 104 -22t33 -69q0 -25 -20.5 -50t-64.5 -55z" />
    <glyph glyph-name="uni1EEE" unicode="&#x1eee;" vert-adv-y="1235" 
d="M250 -10q-100 0 -147.5 49.5t-47.5 155.5v535h80v-527q0 -75 27 -108t88 -33q62 0 88.5 33t26.5 108v527h80v-535q0 -106 -47 -155.5t-148 -49.5zM413 661q-13 0 -28 6l-7 63h37q23 0 35.5 12t12.5 34q0 8 -2.5 21t-5.5 20h75q5 -13 7.5 -27.5t2.5 -28.5q0 -48 -32.5 -74
t-94.5 -26zM334 783q-28 0 -54 16t-63 53q-19 20 -29.5 27.5t-18.5 7.5q-15 0 -23 -24t-8 -70h-78q0 80 28 125t78 45q28 0 54 -15.5t63 -53.5q19 -19 29.5 -27t18.5 -8q15 0 23 24t8 70h78q0 -80 -28 -125t-78 -45z" />
    <glyph glyph-name="uni1EEF" unicode="&#x1eef;" vert-adv-y="1235" 
d="M332 573q-28 0 -54 16t-63 53q-19 20 -29.5 27.5t-18.5 7.5q-15 0 -23 -24t-8 -70h-78q0 80 28 125t78 45q28 0 54 -15.5t63 -53.5q19 -19 29.5 -27t18.5 -8q15 0 23 24t8 70h78q0 -80 -28 -125t-78 -45zM257 -10q-74 0 -116.5 17t-60 58.5t-17.5 114.5v340h78v-336
q0 -48 10 -75t35.5 -38t71.5 -11q24 0 43.5 3t39 10t42.5 19l-28 -50v478h78v-498q-37 -16 -80 -24t-96 -8zM394 451q-13 0 -28 6l-7 63h37q23 0 35.5 12t12.5 34q0 8 -2.5 21t-5.5 20h75q5 -13 7.5 -27.5t2.5 -28.5q0 -48 -32.5 -74t-94.5 -26z" />
    <glyph glyph-name="uni1EF0" unicode="&#x1ef0;" vert-adv-y="1235" 
d="M250 -10q-100 0 -147.5 49.5t-47.5 155.5v535h80v-527q0 -75 27 -108t88 -33q62 0 88.5 33t26.5 108v527h80v-535q0 -106 -47 -155.5t-148 -49.5zM413 661q-13 0 -28 6l-7 63h37q23 0 35.5 12t12.5 34q0 8 -2.5 21t-5.5 20h75q5 -13 7.5 -27.5t2.5 -28.5q0 -48 -32.5 -74
t-94.5 -26zM250 -198q-32 0 -51.5 18.5t-19.5 49.5q0 32 19.5 50t51.5 18t51.5 -18t19.5 -50q0 -31 -19.5 -49.5t-51.5 -18.5z" />
    <glyph glyph-name="uni1EF1" unicode="&#x1ef1;" vert-adv-y="1235" 
d="M257 -10q-74 0 -116.5 17t-60 58.5t-17.5 114.5v340h78v-336q0 -48 10 -75t35.5 -38t71.5 -11q24 0 43.5 3t39 10t42.5 19l-28 -50v478h78v-498q-37 -16 -80 -24t-96 -8zM394 451q-13 0 -28 6l-7 63h37q23 0 35.5 12t12.5 34q0 8 -2.5 21t-5.5 20h75q5 -13 7.5 -27.5
t2.5 -28.5q0 -48 -32.5 -74t-94.5 -26zM248 -198q-32 0 -51.5 18.5t-19.5 49.5q0 32 19.5 50t51.5 18t51.5 -18t19.5 -50q0 -31 -19.5 -49.5t-51.5 -18.5z" />
    <glyph glyph-name="Ygrave" unicode="&#x1ef2;" vert-adv-y="1235" 
d="M209 0v285l-194 445h83l150 -359h4l150 359h83l-194 -445v-285h-82zM207 780l-122 220h100l102 -220h-80z" />
    <glyph glyph-name="ygrave" unicode="&#x1ef3;" vert-adv-y="1235" 
d="M55 -150q47 0 79.5 17.5t54.5 55.5t35 98l4 -40l-203 539h85l144 -410h4l132 410h85l-186 -549q-21 -61 -51.5 -104t-75 -65t-107.5 -22v70zM207 570l-122 220h100l102 -220h-80z" />
    <glyph glyph-name="uni1EF4" unicode="&#x1ef4;" vert-adv-y="1235" 
d="M209 0v285l-194 445h83l150 -359h4l150 359h83l-194 -445v-285h-82zM250 -198q-32 0 -51.5 18.5t-19.5 49.5q0 32 19.5 50t51.5 18t51.5 -18t19.5 -50q0 -31 -19.5 -49.5t-51.5 -18.5z" />
    <glyph glyph-name="uni1EF5" unicode="&#x1ef5;" vert-adv-y="1235" 
d="M55 -150q47 0 79.5 17.5t54.5 55.5t35 98l4 -40l-203 539h85l144 -410h4l132 410h85l-186 -549q-21 -61 -51.5 -104t-75 -65t-107.5 -22v70zM385 -198q-32 0 -51.5 18.5t-19.5 49.5q0 32 19.5 50t51.5 18t51.5 -18t19.5 -50q0 -31 -19.5 -49.5t-51.5 -18.5z" />
    <glyph glyph-name="uni1EF6" unicode="&#x1ef6;" vert-adv-y="1235" 
d="M209 0v285l-194 445h83l150 -359h4l150 359h83l-194 -445v-285h-82zM227 820q55 26 55 49q0 36 -52 36q-31 0 -57 -5.5t-56 -13.5l-5 66q32 8 61 13t58 5q71 0 104 -22t33 -69q0 -25 -20.5 -50t-64.5 -55z" />
    <glyph glyph-name="uni1EF7" unicode="&#x1ef7;" vert-adv-y="1235" 
d="M55 -150q47 0 79.5 17.5t54.5 55.5t35 98l4 -40l-203 539h85l144 -410h4l132 410h85l-186 -549q-21 -61 -51.5 -104t-75 -65t-107.5 -22v70zM227 610q55 26 55 49q0 36 -52 36q-31 0 -57 -5.5t-56 -13.5l-5 66q32 8 61 13t58 5q71 0 104 -22t33 -69q0 -25 -20.5 -50
t-64.5 -55z" />
    <glyph glyph-name="uni1EF8" unicode="&#x1ef8;" vert-adv-y="1235" 
d="M209 0v285l-194 445h83l150 -359h4l150 359h83l-194 -445v-285h-82zM334 783q-28 0 -54 16t-63 53q-19 20 -29.5 27.5t-18.5 7.5q-15 0 -23 -24t-8 -70h-78q0 80 28 125t78 45q28 0 54 -15.5t63 -53.5q19 -19 29.5 -27t18.5 -8q15 0 23 24t8 70h78q0 -80 -28 -125
t-78 -45z" />
    <glyph glyph-name="uni1EF9" unicode="&#x1ef9;" vert-adv-y="1235" 
d="M55 -150q47 0 79.5 17.5t54.5 55.5t35 98l4 -40l-203 539h85l144 -410h4l132 410h85l-186 -549q-21 -61 -51.5 -104t-75 -65t-107.5 -22v70zM334 573q-28 0 -54 16t-63 53q-19 20 -29.5 27.5t-18.5 7.5q-15 0 -23 -24t-8 -70h-78q0 80 28 125t78 45q28 0 54 -15.5
t63 -53.5q19 -19 29.5 -27t18.5 -8q15 0 23 24t8 70h78q0 -80 -28 -125t-78 -45z" />
    <glyph glyph-name="endash" unicode="&#x2013;" 
d="M50 253v74h400v-74h-400z" />
    <glyph glyph-name="emdash" unicode="&#x2014;" 
d="M0 253v74h500v-74h-500z" />
    <glyph glyph-name="quoteleft" unicode="&#x2018;" 
d="M351 770l-102 -300h-100l122 300h80z" />
    <glyph glyph-name="quoteright" unicode="&#x2019;" 
d="M149 470l102 300h100l-122 -300h-80z" />
    <glyph glyph-name="quotesinglbase" unicode="&#x201a;" 
d="M149 -100l102 300h100l-122 -300h-80z" />
    <glyph glyph-name="quotedblleft" unicode="&#x201c;" 
d="M252 770l-98 -300h-96l117 300h77zM442 770l-98 -300h-96l117 300h77z" />
    <glyph glyph-name="quotedblright" unicode="&#x201d;" 
d="M248 470l98 300h96l-117 -300h-77zM58 470l98 300h96l-117 -300h-77z" />
    <glyph glyph-name="quotedblbase" unicode="&#x201e;" 
d="M248 -100l98 300h96l-117 -300h-77zM58 -100l98 300h96l-117 -300h-77z" />
    <glyph glyph-name="dagger" unicode="&#x2020;" 
d="M210 -110v562h-185v72h185v206h80v-206h185v-72h-185v-562h-80z" />
    <glyph glyph-name="daggerdbl" unicode="&#x2021;" 
d="M210 -110v562h-185v72h185v206h80v-206h185v-72h-185v-562h-80zM25 95v74h450v-74h-450z" />
    <glyph glyph-name="bullet" unicode="&#x2022;" 
d="M250 199q-43 0 -68.5 25.5t-25.5 66.5t25.5 66.5t68.5 25.5t68.5 -25.5t25.5 -66.5t-25.5 -66.5t-68.5 -25.5z" />
    <glyph glyph-name="ellipsis" unicode="&#x2026;" 
d="M417 -10q-30 0 -48.5 21t-18.5 55q0 35 18.5 55.5t48.5 20.5t48.5 -20.5t18.5 -55.5q0 -34 -18.5 -55t-48.5 -21zM250 -10q-30 0 -48.5 21t-18.5 55q0 35 18.5 55.5t48.5 20.5t48.5 -20.5t18.5 -55.5q0 -34 -18.5 -55t-48.5 -21zM83 -10q-30 0 -48.5 21t-18.5 55
q0 35 18.5 55.5t48.5 20.5t48.5 -20.5t18.5 -55.5q0 -34 -18.5 -55t-48.5 -21z" />
    <glyph glyph-name="perthousand" unicode="&#x2030;" 
d="M158 410q-68 0 -105.5 40t-37.5 112v26q0 72 37.5 112t105.5 40t105.5 -40t37.5 -112v-26q0 -72 -37.5 -112t-105.5 -40zM158 473q35 0 50.5 22t15.5 71v18q0 49 -15.5 71t-50.5 22q-34 0 -50 -22t-16 -71v-18q0 -49 16 -71t50 -22zM184 -10q-60 0 -93 40t-33 112v26
q0 72 33 112t93 40t93 -40t33 -112v-26q0 -72 -33 -112t-93 -40zM184 53q30 0 44 22t14 71v18q0 49 -14 71t-44 22t-44 -22t-14 -71v-18q0 -49 14 -71t44 -22zM369 -10q-60 0 -93 40t-33 112v26q0 72 33 112t93 40t93 -40t33 -112v-26q0 -72 -33 -112t-93 -40zM369 53
q30 0 44 22t14 71v18q0 49 -14 71t-44 22t-44 -22t-14 -71v-18q0 -49 14 -71t44 -22zM158 410q-68 0 -105.5 40t-37.5 112v26q0 72 37.5 112t105.5 40t105.5 -40t37.5 -112v-26q0 -72 -37.5 -112t-105.5 -40zM158 473q35 0 50.5 22t15.5 71v18q0 49 -15.5 71t-50.5 22
q-34 0 -50 -22t-16 -71v-18q0 -49 16 -71t50 -22zM5 217v76l420 220v-76z" />
    <glyph glyph-name="guilsinglleft" unicode="&#x2039;" 
d="M276 0l-156 260l156 260h78l-158 -260l158 -260h-78z" />
    <glyph glyph-name="guilsinglright" unicode="&#x203a;" 
d="M224 0h-78l158 260l-158 260h78l156 -260z" />
    <glyph glyph-name="fraction" unicode="&#x2044;" 
d="M40 217v76l420 220v-76z" />
    <glyph glyph-name="uni2070" unicode="&#x2070;" 
d="M250 405q-68 0 -105.5 40t-37.5 112v26q0 72 37.5 112t105.5 40t105.5 -40t37.5 -112v-26q0 -72 -37.5 -112t-105.5 -40zM250 468q35 0 50.5 22t15.5 71v18q0 49 -15.5 71t-50.5 22q-34 0 -50 -22t-16 -71v-18q0 -49 16 -71t50 -22z" />
    <glyph glyph-name="uni2074" unicode="&#x2074;" 
d="M257 410v51h-192v60l201 209h68v-209h51v-60h-51v-51h-77zM145 516h117v122h-4l-113 -118v-4z" />
    <glyph glyph-name="colonmonetary" unicode="&#x20a1;" vert-adv-y="1235" 
d="M115 -105l49 470h70l-49 -470h-70zM164 365l49 470h70l-49 -470h-70zM225 -105l49 470h70l-49 -470h-70zM274 365l49 470h70l-49 -470h-70zM310 -10q-130 0 -196.5 87t-66.5 258v60q0 171 64 258t189 87q35 0 68 -6.5t59 -19.5v-244h-80v232l40 -62q-38 28 -89 28
q-83 0 -126 -70t-43 -208v-50q0 -143 46.5 -210.5t142.5 -67.5q27 0 56 5t53 13v-75q-25 -7 -56.5 -11t-60.5 -4z" />
    <glyph glyph-name="franc" unicode="&#x20a3;" vert-adv-y="1235" 
d="M92 0v730h360v-70h-278v-229h268v-70h-268v-361h-82zM10 160v70h350v-70h-350z" />
    <glyph glyph-name="lira" unicode="&#x20a4;" 
d="M60 70q26 3 45 23t29.5 55.5t10.5 81.5v336q0 88 41 131t124 43q27 0 54 -4t53 -12v-72q-27 10 -50.5 14t-43.5 4q-51 0 -74 -25t-23 -81v-334q0 -54 -12.5 -95t-35.5 -61v-4h262v-70h-380v70zM60 250v68h330v-68h-330zM60 412v68h330v-68h-330z" />
    <glyph glyph-name="uni20A6" unicode="&#x20a6;" vert-adv-y="1235" 
d="M250 412v68h245v-68h-245zM5 250v68h245v-68h-245zM5 412v68h245v-68h-245zM250 250v68h245v-68h-245zM55 0v730h130l176 -630h4v630h80v-730h-130l-176 630h-4v-630h-80z" />
    <glyph glyph-name="peseta" unicode="&#x20a7;" vert-adv-y="1235" 
d="M5 460v70h130v0h230v0h130v-70h-130v0h-230v0h-130zM59 728q44 7 77.5 9.5t61.5 2.5q91 0 146 -24.5t80 -78t25 -142.5q0 -88 -25 -142t-80 -78.5t-146 -24.5q-28 0 -53 2t-53 6l26 72q24 -4 44 -6t43 -2q60 0 95.5 17t51.5 55t16 101q0 64 -16 101.5t-51.5 54.5
t-95.5 17q-23 0 -45 -2t-45 -6l26 28v-688h-82v728z" />
    <glyph glyph-name="uni20A9" unicode="&#x20a9;" vert-adv-y="1235" 
d="M250 250v68h245v-68h-245zM250 412v68h245v-68h-80v0h-165zM250 250h-245v68h245v-68zM250 412h-165v0h-80v68h245v-68zM75 0l-65 730h82l40 -627h4l52 527h124l52 -527h4l40 627h82l-65 -730h-116l-57 538h-4l-57 -538h-116z" />
    <glyph glyph-name="dong" unicode="&#x20ab;" 
d="M50 -124v66h400v-66h-400zM95 589v66h400v-66h-400zM254 -10q-78 0 -125.5 27.5t-69 89.5t-21.5 163q0 96 18 153t59 82t109 25q43 0 82.5 -9t72.5 -28l-25 -66q-31 17 -61.5 25t-62.5 8q-43 0 -68 -17.5t-35.5 -59t-10.5 -114.5q0 -78 12 -124t40.5 -65.5t77.5 -19.5
q32 0 60.5 7.5t51.5 21.5l-18 -43v684h78v-708q-31 -14 -73 -23t-91 -9z" />
    <glyph glyph-name="Euro" unicode="&#x20ac;" 
d="M324 -10q-130 0 -196.5 87t-66.5 258v60q0 171 66.5 258t196.5 87q29 0 60.5 -3.5t56.5 -11.5v-75q-24 8 -53 13t-56 5q-96 0 -142.5 -67.5t-46.5 -210.5v-50q0 -143 46.5 -210.5t142.5 -67.5q27 0 56 5t53 13v-75q-25 -7 -56.5 -11t-60.5 -4zM5 417v66h380v-66h-380z
M5 247v66h380v-66h-380z" />
    <glyph glyph-name="uni20AD" unicode="&#x20ad;" 
d="M5 351v70h460v-70h-460zM75 0v730h80v-316h4l225 316h91l-245 -344l245 -386h-90l-226 358h-4v-358h-80z" />
    <glyph glyph-name="uni20B1" unicode="&#x20b1;" 
d="M5 542v68h490v-68h-490zM5 380v68h490v-68h-490zM59 728q44 7 77.5 9.5t61.5 2.5q91 0 146 -24.5t80 -78t25 -142.5q0 -88 -25 -142t-80 -78.5t-146 -24.5q-28 0 -53 2t-53 6l26 72q24 -4 44 -6t43 -2q60 0 95.5 17t51.5 55t16 101q0 64 -16 101.5t-51.5 54.5t-95.5 17
q-23 0 -45 -2t-45 -6l26 28v-688h-82v728z" />
    <glyph glyph-name="uni20B2" unicode="&#x20b2;" vert-adv-y="1235" 
d="M302 -10q-265 0 -265 345v60q0 174 67.5 259.5t204.5 85.5q29 0 60 -3.5t59 -9.5v-74q-28 7 -57.5 11t-56.5 4q-102 0 -148.5 -66t-46.5 -212v-50q0 -139 44.5 -208.5t133.5 -69.5q23 0 49.5 5t51.5 15l-31 -38v308h-150v68h230v-410q-32 -10 -72 -15t-73 -5zM215 -105
v480h70v-480h-70zM215 375v460h70v-460h-70z" />
    <glyph glyph-name="uni20B5" unicode="&#x20b5;" vert-adv-y="1235" 
d="M215 365v470h70v-470h-70zM215 -105v470h70v-470h-70zM310 -10q-130 0 -196.5 87t-66.5 258v60q0 171 64 258t189 87q35 0 68 -6.5t59 -19.5v-244h-80v232l40 -62q-38 28 -89 28q-83 0 -126 -70t-43 -208v-50q0 -143 46.5 -210.5t142.5 -67.5q27 0 56 5t53 13v-75
q-25 -7 -56.5 -11t-60.5 -4z" />
    <glyph glyph-name="uni20B9" unicode="&#x20b9;" 
d="M41 290v70h110q61 0 96.5 14.5t51.5 47t16 86.5q0 55 -16 88t-52 47.5t-96 14.5h-110v72h430v-70h-156l6 15q40 -22 57.5 -61t17.5 -104q0 -78 -25.5 -126.5t-81 -71t-145.5 -22.5h-103zM312 0l-250 328h92l252 -328h-94zM41 474v70h430v-70h-430z" />
    <glyph glyph-name="uni20BA" unicode="&#x20ba;" 
d="M210 -10q-29 0 -60.5 3t-67.5 9v728h82v-683l-17 27q20 -6 38 -9t39 -3q62 0 101 27t57.5 84t18.5 147h81q0 -117 -28 -190t-87.5 -106.5t-156.5 -33.5zM7 349v70l420 80v-70zM7 512v70l420 80v-70z" />
    <glyph glyph-name="uni20BC" unicode="&#x20bc;" 
d="M35 296q0 87 21 138.5t68 74t126 22.5t126 -22.5t68 -74t21 -138.5v-296h-80v291q0 66 -12 102.5t-41 51t-82 14.5q-52 0 -81.5 -14.5t-41.5 -51t-12 -102.5v-291h-80v296zM215 0v730h70v-730h-70z" />
    <glyph glyph-name="uni20BD" unicode="&#x20bd;" 
d="M85 728q44 7 76.5 9.5t61.5 2.5q91 0 146.5 -23.5t80.5 -75t25 -136.5t-25 -136.5t-80 -75t-147 -23.5h-213v68h221q60 0 95.5 16t51.5 52.5t16 96.5q0 61 -16 97t-51.5 52t-95.5 16q-23 0 -45 -2t-45 -6l26 27v-687h-82v728zM10 122v68h370v-68h-370z" />
    <glyph glyph-name="uni2116" unicode="&#x2116;" 
d="M55 336v394h101l205 -284h4v284h80v-394h-101l-205 284h-4v-284h-80zM340 90q-58 0 -89 26t-31 74v16q0 48 31 74t89 26t89 -26t31 -74v-16q0 -48 -31 -74t-89 -26zM340 144q27 0 39.5 11.5t12.5 36.5v12q0 25 -12.5 36.5t-39.5 11.5t-39.5 -11.5t-12.5 -36.5v-12
q0 -25 12.5 -36.5t39.5 -11.5zM235 0v54h210v-54h-210z" />
    <glyph glyph-name="trademark" unicode="&#x2122;" 
d="M89 375v303h-71v62h309l14 -150h2l14 150h95v-365h-67l6 250h-2l-24 -180h-45l-24 180h-2l6 -250h-68v303h-71v-303h-72z" />
    <glyph glyph-name="minus" unicode="&#x2212;" 
d="M25 253v74h450v-74h-450z" />
    <glyph glyph-name="uni2215" unicode="&#x2215;" 
d="M33 -40l351 810h83l-351 -810h-83z" />
    <glyph glyph-name="uni2219" unicode="&#x2219;" 
d="M250 215q-35 0 -56.5 21t-21.5 55q0 35 21.5 55.5t56.5 20.5t56.5 -20.5t21.5 -55.5q0 -34 -21.5 -55t-56.5 -21z" />
    <glyph glyph-name="approxequal" unicode="&#x2248;" 
d="M367 316q-34 0 -67 13.5t-69 35.5q-26 16 -47.5 26.5t-41.5 10.5q-23 0 -35 -18t-12 -59h-75q0 70 29 107t84 37q34 0 67 -13.5t69 -36.5q26 -16 47.5 -26t41.5 -10q23 0 35 18t12 59h75q0 -70 -29 -107t-84 -37zM367 111q-34 0 -67 13.5t-69 35.5q-26 16 -47.5 26.5
t-41.5 10.5q-23 0 -35 -18t-12 -59h-75q0 70 29 107t84 37q34 0 67 -13.5t69 -36.5q26 -16 47.5 -26t41.5 -10q23 0 35 18t12 59h75q0 -70 -29 -107t-84 -37z" />
    <glyph glyph-name="notequal" unicode="&#x2260;" 
d="M211 15l-71 17l149 533l71 -17zM60 368v72h380v-72h-380zM60 140v72h380v-72h-380z" />
    <glyph glyph-name="lessequal" unicode="&#x2264;" 
d="M475 0h-450v70h450v-70zM446 178l-380 228v92l380 228v-80l-318 -191v-6l318 -191v-80z" />
    <glyph glyph-name="greaterequal" unicode="&#x2265;" 
d="M25 0v70h450v-70h-450zM54 178v80l318 191v6l-318 191v80l380 -228v-92z" />
    <glyph glyph-name="i.loclTRK" vert-adv-y="1235" 
d="M260 0v450h-180v70h260v-520h-80zM300 582q-32 0 -51.5 18.5t-19.5 49.5q0 32 19.5 50t51.5 18t51.5 -18t19.5 -50q0 -31 -19.5 -49.5t-51.5 -18.5z" />
    <glyph glyph-name="zero.lf" vert-adv-y="1235" 
d="M250 316q-32 0 -51 19t-19 50q0 32 19 50.5t51 18.5t51 -18.5t19 -50.5q0 -31 -19 -50t-51 -19zM250 -10q-77 0 -123 33.5t-66.5 109.5t-20.5 202v60q0 127 20.5 202.5t66.5 109t123 33.5t123 -33.5t66.5 -109t20.5 -202.5v-60q0 -126 -20.5 -202t-66.5 -109.5
t-123 -33.5zM250 62q50 0 77.5 24.5t39 85t11.5 168.5v50q0 108 -11.5 168.5t-39 85t-77.5 24.5q-49 0 -77 -24.5t-39.5 -85t-11.5 -168.5v-50q0 -108 11.5 -168.5t39.5 -85t77 -24.5z" />
    <glyph glyph-name="one.lf" vert-adv-y="1235" 
d="M274 0v633h-3l-235 -190v95l238 192h82v-730h-82z" />
    <glyph glyph-name="two.lf" vert-adv-y="1235" 
d="M65 70q78 90 132 158.5t86.5 122t47 98t14.5 86.5q0 68 -30 100.5t-93 32.5q-38 0 -76 -9t-81 -29v75q77 35 173 35q98 0 144.5 -48t46.5 -149q0 -47 -14 -97t-44.5 -106t-79.5 -121.5t-118 -144.5v-4h262v-70h-370v70z" />
    <glyph glyph-name="three.lf" vert-adv-y="1235" 
d="M216 -10q-34 0 -76 6t-80 19v76q36 -15 71.5 -23t70.5 -8q156 0 156 154q0 77 -41.5 111.5t-132.5 34.5h-58v70l201 226v4h-267v70h368v-70l-206 -231v-4h21q95 0 146 -54.5t51 -156.5q0 -109 -57.5 -166.5t-166.5 -57.5z" />
    <glyph glyph-name="four.lf" vert-adv-y="1235" 
d="M313 0v145h-298v70l298 515h82v-515h90v-70h-90v-145h-82zM107 213h206v353h-4l-202 -349v-4z" />
    <glyph glyph-name="five.lf" vert-adv-y="1235" 
d="M229 -10q-37 0 -77 6.5t-78 18.5v76q24 -10 46.5 -17t45.5 -10.5t49 -3.5q83 0 120 39.5t37 127.5q0 80 -29.5 120t-86.5 40q-30 0 -60.5 -12.5t-51.5 -34.5h-70v390h363v-70h-283v-232h4q26 14 56 22t61 8q86 0 132.5 -59.5t46.5 -171.5q0 -121 -56 -179t-169 -58z" />
    <glyph glyph-name="six.lf" vert-adv-y="1235" 
d="M250 -10q-75 0 -122.5 28.5t-70 89t-22.5 155.5q0 154 37.5 257t114.5 158t194 62v-72q-63 -4 -113.5 -30.5t-83.5 -73t-46 -109.5h4q23 17 54.5 25.5t70.5 8.5q102 0 150 -59t48 -185q0 -131 -51.5 -193t-163.5 -62zM250 60q68 0 100.5 45t32.5 136q0 92 -32.5 136.5
t-98.5 44.5q-67 0 -101 -45.5t-34 -136.5t33 -135.5t100 -44.5z" />
    <glyph glyph-name="seven.lf" vert-adv-y="1235" 
d="M136 0q41 178 98.5 343t128.5 311v4h-313v72h400v-72q-48 -97 -88.5 -200.5t-75 -217t-64.5 -240.5h-86z" />
    <glyph glyph-name="eight.lf" vert-adv-y="1235" 
d="M250 -10q-104 0 -164.5 55t-60.5 149q0 133 137 187v4q-59 28 -92.5 75.5t-33.5 106.5q0 79 58 126t156 47t156 -47t58 -126q0 -58 -33 -105.5t-93 -74.5v-4q68 -26 102.5 -73t34.5 -116q0 -94 -60.5 -149t-164.5 -55zM250 60q66 0 104.5 36.5t38.5 99.5q0 56 -35 92.5
t-112 56.5q-139 -33 -139 -149q0 -63 38.5 -99.5t104.5 -36.5zM251 422q62 14 97 50.5t35 85.5q0 52 -35.5 82t-97.5 30q-61 0 -97 -30t-36 -82q0 -49 34.5 -84t99.5 -52z" />
    <glyph glyph-name="nine.lf" vert-adv-y="1235" 
d="M250 740q76 0 123 -28.5t69.5 -88.5t22.5 -156q0 -153 -37.5 -256.5t-114.5 -158t-194 -62.5v72q64 4 114 30.5t83 73t46 109.5h-4q-23 -17 -54.5 -25.5t-70.5 -8.5q-102 0 -150 59t-48 185q0 131 51.5 193t163.5 62zM250 670q-67 0 -100 -44.5t-33 -136.5
q0 -91 32.5 -136t98.5 -45q68 0 101.5 45.5t33.5 136.5q0 92 -32.5 136t-100.5 44z" />
    <glyph glyph-name="periodcentered.loclCAT" vert-adv-y="1235" 
d="M250 215q-35 0 -56.5 21t-21.5 55q0 35 21.5 55.5t56.5 20.5t56.5 -20.5t21.5 -55.5q0 -34 -21.5 -55t-56.5 -21z" />
    <glyph glyph-name="uni20B5.BRACKET.499" vert-adv-y="1235" 
d="M215 695v140h70v-140h-70zM215 -105v140h70v-140h-70zM310 -10q-130 0 -196.5 87t-66.5 258v60q0 171 64 258t189 87q35 0 68 -6.5t59 -19.5v-244h-80v232l40 -62q-38 28 -89 28q-83 0 -126 -70t-43 -208v-50q0 -143 46.5 -210.5t142.5 -67.5q27 0 56 5t53 13v-75
q-25 -7 -56.5 -11t-60.5 -4z" />
    <glyph glyph-name="cent.BRACKET.499" vert-adv-y="1235" 
d="M225 490v135h70v-135h-70zM225 -105v135h70v-135h-70zM292 -10q-231 0 -231 250v40q0 250 232 250q65 0 118 -16v-209h-78v197l38 -57q-22 8 -44 11.5t-44 3.5q-74 0 -108 -44t-34 -141v-30q0 -67 15.5 -108t50.5 -59t93 -18q28 0 55 4t56 13v-71q-27 -7 -57 -11.5
t-62 -4.5z" />
    <glyph glyph-name="colonmonetary.BRACKET.234" vert-adv-y="1235" 
d="M115 -105l17 163h70l-17 -163h-70zM199 701l14 134h70l-14 -134h-70zM225 -105l17 163h70l-17 -163h-70zM309 701l14 134h70l-14 -134h-70zM310 -10q-130 0 -196.5 87t-66.5 258v60q0 171 64 258t189 87q35 0 68 -6.5t59 -19.5v-244h-80v232l40 -62q-38 28 -89 28
q-83 0 -126 -70t-43 -208v-50q0 -143 46.5 -210.5t142.5 -67.5q27 0 56 5t53 13v-75q-25 -7 -56.5 -11t-60.5 -4z" />
    <glyph glyph-name="dollar.BRACKET.499" 
d="M215 -105v131h70v-131h-70zM215 704v131h70v-131h-70zM224 -10q-39 0 -77.5 6.5t-76.5 19.5v77q37 -15 73 -23t74 -8q68 0 105.5 28t37.5 89q0 32 -12.5 57.5t-42 49.5t-82.5 53q-65 37 -102.5 69t-53 68.5t-15.5 83.5q0 93 54.5 136.5t171.5 43.5q35 0 70.5 -4t74.5 -13
v-213h-80v182l32 -36q-27 6 -50.5 9t-48.5 3q-72 0 -107 -26.5t-35 -82.5q0 -31 12.5 -56.5t43 -50t82.5 -53.5q64 -36 101 -68.5t53 -69t16 -84.5q0 -94 -54.5 -140.5t-163.5 -46.5z" />
    <glyph glyph-name="uni20B2.BRACKET.499" vert-adv-y="1235" 
d="M302 -10q-265 0 -265 345v60q0 174 67.5 259.5t204.5 85.5q29 0 60 -3.5t59 -9.5v-74q-28 7 -57.5 11t-56.5 4q-102 0 -148.5 -66t-46.5 -212v-50q0 -139 44.5 -208.5t133.5 -69.5q23 0 49.5 5t51.5 15l-31 -38v308h-150v68h230v-410q-32 -10 -72 -15t-73 -5zM215 -105
v131h70v-131h-70zM215 704v131h70v-131h-70z" />
    <glyph glyph-name="uni20A6.BRACKET.234" vert-adv-y="1235" 
d="M220 412v68h275v-68h-90v0h-185zM5 250v68h90v0h185v-68h-275zM5 412v68h90v-68h-90zM405 250v68h90v-68h-90zM55 0v730h130l176 -630h4v630h80v-730h-130l-176 630h-4v-630h-80z" />
    <glyph glyph-name="uni20B1.BRACKET.367" 
d="M385 543v68h110v-68h-110zM5 381v68h110v-68h-110zM5 543v68h110v-68h-110zM385 381v68h110v-68h-110zM59 728q44 7 77.5 9.5t61.5 2.5q91 0 146 -24.5t80 -78t25 -142.5q0 -88 -25 -142t-80 -78.5t-146 -24.5q-28 0 -53 2t-53 6l26 72q24 -4 44 -6t43 -2q60 0 95.5 17
t51.5 55t16 101q0 64 -16 101.5t-51.5 54.5t-95.5 17q-23 0 -45 -2t-45 -6l26 28v-688h-82v728z" />
    <glyph glyph-name="uni20A9.BRACKET.234" vert-adv-y="1235" 
d="M410 250v68h85v-68h-85zM275 412v68h220v-68h-80v0h-140zM90 250h-85v68h85v-68zM225 412h-140v0h-80v68h220v-68zM75 0l-65 730h82l40 -627h4l52 527h124l52 -527h4l40 627h82l-65 -730h-116l-57 538h-4l-57 -538h-116z" />
  </font>
</defs>
</svg>
