<?xml version="1.0" encoding="UTF-8"?>
<!-- Created with Inkscape (http://www.inkscape.org/) -->
<svg width="59.665mm" height="49.677mm" version="1.1" viewBox="0 0 59.665 49.677" xmlns="http://www.w3.org/2000/svg">
 <g transform="translate(-30.356 -59.793)">
  <g fill="#fff" stroke="#000" stroke-width=".26458">
   <rect x="30.488" y="59.926" width="59.4" height="49.412"/>
   <ellipse cx="49.675" cy="80.689" rx="6.5708" ry="7.6221"/>
   <ellipse cx="70.702" cy="80.689" rx="6.5708" ry="7.6221"/>
  </g>
  <ellipse cx="70.603" cy="80.774" rx="1.8294" ry="2.1222"/>
  <ellipse cx="50.267" cy="80.821" rx="1.8294" ry="2.1222"/>
  <g fill="none" stroke="#000">
   <path d="m54.826 96.642c0.6441 5.1632 11.404 4.7471 11.523 0" stroke-width=".26458px"/>
   <path d="m40.94 71.774c6.0264-3.1861 10.885-1.4201 15.32 2.1977" stroke-width=".523"/>
   <path d="m78.82 72.49c-11.767-1.8477-14.285-0.84489-15.419 1.1682" stroke-width=".523"/>
  </g>
  <g fill="#fff" stroke="#000" stroke-width=".26458">
   <rect x="100.4" y="59.4" width="59.4" height="49.412"/>
   <ellipse cx="119.59" cy="80.164" rx="6.5708" ry="7.6221"/>
   <ellipse cx="140.62" cy="80.164" rx="6.5708" ry="7.6221"/>
  </g>
  <ellipse cx="140.52" cy="80.248" rx="1.8294" ry="2.1222"/>
  <ellipse cx="120.18" cy="80.295" rx="1.8294" ry="2.1222"/>
  <g fill="none" stroke="#000">
   <path d="m124.74 96.116h11.523" stroke-width=".26458px"/>
   <path d="m110.85 71.248c6.0264-3.1861 10.885-1.4201 15.32 2.1977" stroke-width=".523"/>
   <path d="m148.73 71.964c-11.767-1.8477-14.285-0.84489-15.419 1.1682" stroke-width=".523"/>
  </g>
 </g>
</svg>
